M48
; DRILL file {KiCad 9.0.1} date 2026-05-05T10:13:53+0200
; FORMAT={-:-/ absolute / metric / decimal}
; #@! TF.CreationDate,2026-05-05T10:13:53+02:00
; #@! TF.GenerationSoftware,Kicad,Pcbnew,9.0.1
; #@! TF.FileFunction,Plated,1,4,PTH
FMAT,2
METRIC
; #@! TA.AperFunction,Plated,PTH,ViaDrill
T1C0.300
; #@! TA.AperFunction,Plated,PTH,ComponentDrill
T2C0.400
; #@! TA.AperFunction,Plated,PTH,ComponentDrill
T3C0.600
; #@! TA.AperFunction,Plated,PTH,ComponentDrill
T4C1.000
; #@! TA.AperFunction,Plated,PTH,ComponentDrill
T5C1.020
; #@! TA.AperFunction,Plated,PTH,ComponentDrill
T6C1.850
; #@! TA.AperFunction,Plated,PTH,ComponentDrill
T7C2.930
; #@! TA.AperFunction,Plated,PTH,ComponentDrill
T8C3.200
%
G90
G05
T1
X67.95Y-85.0
X68.5Y-89.5
X69.399Y-89.0
X70.5Y-86.5
X70.5Y-98.5
X70.971Y-78.471
X71.0Y-87.5
X71.0Y-95.0
X71.1Y-112.3
X71.5Y-93.5
X71.5Y-96.5
X71.5Y-98.25
X71.654Y-87.926
X72.0Y-76.5
X72.0Y-79.0
X72.0Y-80.0
X72.0Y-106.0
X72.361Y-77.861
X73.5Y-82.5
X74.0Y-75.5
X74.5Y-82.5
X74.5Y-97.0
X74.5Y-98.5
X74.614Y-83.714
X75.0Y-61.5
X75.0Y-80.55
X75.0Y-90.2
X75.0Y-101.5
X75.5Y-84.7
X75.688Y-74.5
X76.97Y-86.53
X77.0Y-96.3
X77.0Y-103.5
X77.45Y-93.5
X77.5Y-86.0
X77.5Y-105.0
X77.688Y-74.5
X78.0Y-92.0
X78.03Y-85.47
X78.5Y-98.0
X78.75Y-37.25
X79.0Y-96.5
X80.079Y-107.925
X80.45Y-97.0
X80.5Y-73.5
X80.75Y-67.75
X81.0Y-98.5
X81.0Y-101.55
X81.5Y-81.0
X81.5Y-121.425
X82.0Y-43.0
X82.0Y-83.45
X82.0Y-84.55
X82.0Y-99.0
X82.25Y-51.25
X82.5Y-53.75
X82.5Y-56.25
X82.5Y-79.0
X82.55Y-95.0
X83.0Y-73.5
X83.0Y-91.5
X83.0Y-95.899
X83.0Y-105.55
X83.75Y-121.425
X84.0Y-75.5
X84.0Y-97.0
X84.0Y-111.675
X84.5Y-86.0
X84.5Y-93.3
X85.5Y-91.0
X86.0Y-40.75
X86.0Y-67.5
X86.0Y-68.5
X86.0Y-84.0
X86.03Y-91.53
X86.75Y-121.25
X87.0Y-44.25
X87.0Y-75.5
X87.0Y-93.5
X87.25Y-51.5
X87.5Y-50.5
X87.5Y-54.0
X87.5Y-56.5
X87.5Y-68.0
X87.5Y-69.875
X87.5Y-70.5
X87.5Y-71.25
X87.5Y-73.0
X87.5Y-101.0
X87.75Y-36.5
X87.75Y-40.75
X87.75Y-49.75
X87.764Y-75.514
X88.5Y-68.0
X88.5Y-69.875
X88.5Y-70.575
X88.5Y-71.25
X89.1Y-82.101
X89.25Y-45.5
X89.5Y-41.0
X89.5Y-69.875
X89.5Y-70.5
X89.5Y-71.25
X89.5Y-84.0
X89.75Y-72.549
X90.0Y-76.615
X90.0Y-92.5
X90.5Y-66.5
X90.5Y-94.0
X90.75Y-36.5
X90.75Y-40.75
X91.0Y-44.25
X91.5Y-73.099
X91.614Y-92.164
X91.75Y-126.25
X92.0Y-56.0
X92.0Y-64.5
X92.0Y-84.5
X92.5Y-69.75
X92.5Y-88.5
X93.5Y-86.05
X93.5Y-88.0
X93.5Y-101.95
X93.75Y-36.5
X94.0Y-79.0
X94.0Y-87.0
X94.0Y-96.5
X94.25Y-42.0
X94.25Y-64.25
X95.0Y-65.25
X95.0Y-69.75
X95.0Y-82.601
X95.0Y-91.0
X95.25Y-39.75
X95.25Y-42.0
X95.55Y-103.05
X95.75Y-124.549
X96.0Y-53.5
X96.0Y-78.5
X96.0Y-85.0
X96.5Y-83.151
X97.5Y-86.1
X97.5Y-92.0
X97.5Y-96.0
X97.5Y-107.0
X98.0Y-91.0
X98.03Y-106.45
X98.2Y-58.7
X98.25Y-71.586
X98.312Y-66.586
X98.5Y-94.5
X98.95Y-85.55
X99.25Y-51.75
X99.25Y-55.25
X99.462Y-69.786
X99.5Y-81.5
X100.05Y-98.429
X100.082Y-93.102
X100.593Y-97.912
X100.75Y-52.25
X101.0Y-73.45
X101.0Y-101.4
X101.0Y-123.25
X101.25Y-89.0
X101.5Y-46.5
X101.5Y-77.399
X101.5Y-100.8
X101.5Y-108.0
X101.75Y-127.0
X102.5Y-79.5
X102.5Y-81.0
X102.812Y-66.586
X103.0Y-77.165
X103.0Y-90.5
X103.0Y-93.0
X103.0Y-97.5
X103.0Y-103.0
X103.003Y-98.43
X103.033Y-94.634
X103.078Y-100.8
X103.45Y-96.9
X103.482Y-89.221
X103.5Y-79.5
X104.0Y-47.25
X104.05Y-82.0
X104.05Y-83.701
X104.05Y-85.0
X104.25Y-89.0
X104.264Y-94.514
X104.5Y-78.5
X104.55Y-95.25
X104.786Y-104.114
X105.0Y-42.0
X105.25Y-65.0
X105.6Y-55.7
X105.75Y-66.0
X105.75Y-74.0
X105.95Y-101.701
X106.5Y-104.0
X106.748Y-108.75
X106.75Y-74.001
X107.0Y-63.0
X107.111Y-76.139
X107.19Y-56.5
X107.25Y-90.25
X107.298Y-91.5
X107.298Y-96.5
X107.349Y-94.8
X107.5Y-79.25
X107.5Y-82.5
X107.5Y-84.0
X107.5Y-85.0
X107.848Y-89.652
X108.25Y-79.75
X108.379Y-89.121
X108.398Y-96.0
X108.45Y-85.55
X108.5Y-114.5
X108.871Y-120.379
X108.899Y-97.0
X108.899Y-98.0
X108.899Y-100.5
X108.899Y-101.331
X108.899Y-111.5
X108.909Y-88.591
X109.439Y-88.061
X109.5Y-79.05
X109.75Y-69.462
X109.75Y-73.962
X109.97Y-87.53
X110.0Y-109.0
X110.0Y-118.0
X110.25Y-86.0
X110.5Y-76.002
X110.5Y-87.0
X110.53Y-108.47
X110.55Y-120.5
X111.0Y-79.5
X111.061Y-107.939
X111.856Y-107.957
X112.75Y-69.25
X112.75Y-73.5
X112.75Y-76.002
X113.0Y-78.95
X113.0Y-80.45
X113.05Y-98.999
X113.499Y-114.502
X113.5Y-75.651
X113.5Y-109.0
X113.5Y-112.5
X113.736Y-80.264
X113.75Y-78.95
X113.8Y-99.0
X113.899Y-107.25
X114.45Y-112.5
X114.5Y-75.101
X115.0Y-98.0
X115.0Y-99.0
X115.0Y-100.5
X115.0Y-115.5
X115.001Y-103.846
X115.25Y-69.25
X115.25Y-73.5
X115.55Y-108.5
X116.0Y-74.5
X116.0Y-79.5
X116.0Y-123.0
X116.101Y-101.05
X116.2Y-47.9
X116.25Y-96.7
X116.439Y-114.939
X116.5Y-65.25
X116.5Y-104.5
X116.97Y-115.47
X117.0Y-78.95
X117.0Y-80.05
X117.0Y-101.05
X117.03Y-105.03
X117.5Y-76.0
X117.5Y-92.5
X117.5Y-116.0
X117.5Y-119.5
X117.561Y-105.561
X117.75Y-69.25
X117.75Y-73.5
X118.0Y-55.75
X118.236Y-75.514
X118.5Y-63.5
X118.5Y-116.5
X118.621Y-106.621
X119.0Y-75.5
X119.0Y-82.0
X119.05Y-109.0
X119.05Y-112.0
X119.5Y-52.75
X119.5Y-120.5
X119.75Y-79.0
X119.95Y-80.75
X120.0Y-69.25
X120.0Y-73.7
X120.101Y-101.0
X120.114Y-112.164
X120.651Y-106.5
X120.75Y-108.25
X120.95Y-112.5
X121.0Y-100.5
X121.0Y-120.5
X121.236Y-67.264
X121.5Y-73.7
X121.5Y-79.0
X121.5Y-104.0
X121.5Y-119.0
X121.75Y-80.25
X122.0Y-87.0
X122.0Y-101.0
X122.03Y-104.53
X122.03Y-119.53
X122.5Y-99.0
X122.561Y-105.061
X122.75Y-59.25
X122.75Y-126.0
X122.8Y-75.5
X123.0Y-90.0
X123.0Y-120.0
X123.091Y-105.591
X123.25Y-87.5
X123.53Y-120.53
X123.75Y-75.0
X123.823Y-105.755
X124.0Y-79.0
X124.0Y-119.5
X124.3Y-104.25
X124.5Y-124.0
X124.53Y-118.97
X125.0Y-79.0
X125.25Y-126.0
X125.5Y-108.5
X125.5Y-112.5
X125.5Y-116.5
X125.779Y-72.279
X125.849Y-71.247
X126.0Y-98.722
X126.0Y-120.5
X126.0Y-126.75
X126.429Y-108.5
X126.5Y-58.25
X126.5Y-82.75
X126.5Y-134.0
X127.0Y-120.5
X127.45Y-98.5
X127.5Y-56.75
X127.5Y-62.0
X127.529Y-99.366
X127.53Y-119.97
X127.75Y-78.75
X127.75Y-88.7
X127.75Y-92.0
X127.75Y-100.5
X128.0Y-97.5
X128.45Y-120.5
X128.75Y-80.5
X128.75Y-86.25
X128.75Y-93.75
X129.0Y-95.75
X129.0Y-96.5
X129.0Y-119.5
X129.25Y-88.5
X129.5Y-81.25
X129.5Y-93.25
X129.55Y-101.5
X129.75Y-86.25
X130.0Y-109.0
X130.0Y-111.5
X130.0Y-120.5
X130.25Y-116.25
X130.894Y-76.894
X131.0Y-106.5
X131.5Y-112.25
X131.75Y-68.25
X131.75Y-110.75
X131.95Y-127.6
X132.0Y-108.0
X132.264Y-112.264
X132.5Y-81.5
X132.5Y-93.5
X132.614Y-99.886
X132.7Y-133.6
X132.7Y-137.35
X132.7Y-100.75
X132.75Y-86.751
X132.75Y-135.25
X132.97Y-91.53
X133.25Y-88.5
X133.25Y-93.5
X133.5Y-91.0
X133.7Y-83.578
X133.75Y-71.95
X134.5Y-101.0
X134.75Y-89.25
X135.0Y-74.3
X135.0Y-86.199
X135.25Y-90.999
X135.75Y-122.25
X135.875Y-68.625
X136.25Y-86.5
X136.421Y-122.585
X136.5Y-56.85
X137.0Y-76.5
X137.0Y-84.5
X137.0Y-101.0
X137.0Y-116.75
X137.25Y-93.25
X137.5Y-80.2
X137.5Y-89.0
X137.625Y-68.625
X137.875Y-59.875
X138.0Y-99.25
X138.0Y-130.25
X138.25Y-98.0
X138.5Y-76.5
X138.5Y-80.7
X138.5Y-81.8
X138.5Y-84.5
X138.5Y-88.75
X138.75Y-68.5
X139.236Y-85.486
X139.25Y-119.0
X139.293Y-81.809
X139.486Y-89.264
X139.5Y-98.0
X139.5Y-101.0
X140.25Y-68.5
X140.75Y-98.25
X140.8Y-67.75
X141.0Y-67.0
X141.0Y-71.25
X141.0Y-81.25
X141.7Y-64.75
X142.0Y-101.0
X142.25Y-115.75
X143.35Y-55.002
X143.399Y-63.252
X143.5Y-56.25
X143.5Y-57.5
X143.5Y-98.75
X143.514Y-94.514
X143.75Y-100.25
X144.0Y-82.359
X144.25Y-65.2
X144.75Y-78.5
X144.85Y-60.951
X145.0Y-62.0
X145.0Y-64.5
X145.5Y-93.0
X145.5Y-105.25
X146.5Y-90.25
X147.0Y-117.75
X148.25Y-84.0
X148.572Y-95.75
X148.75Y-136.25
X149.0Y-99.0
X149.25Y-95.064
X149.25Y-98.0
X149.25Y-104.0
X149.549Y-106.549
X149.637Y-72.865
X149.75Y-92.75
X149.75Y-128.5
X150.637Y-73.615
X151.0Y-95.0
X151.0Y-104.25
X151.0Y-117.25
X151.25Y-128.25
X151.75Y-75.0
X151.75Y-105.25
X153.387Y-70.615
X153.5Y-67.25
X153.5Y-75.75
X153.75Y-120.0
X154.5Y-89.25
X154.875Y-80.45
X154.887Y-69.865
X155.25Y-65.0
X155.75Y-71.25
X155.75Y-114.5
X156.5Y-127.75
X157.325Y-55.575
X158.0Y-67.0
X158.0Y-118.25
X158.25Y-64.0
X159.25Y-76.365
X159.575Y-55.325
X160.25Y-67.25
X160.637Y-77.615
X160.75Y-72.25
X160.75Y-78.5
X161.25Y-116.0
X161.387Y-75.615
X161.651Y-66.5
X161.7Y-61.7
X161.825Y-55.325
T2
X156.9Y-85.4
X156.9Y-86.25
X156.9Y-87.1
X156.9Y-87.95
X156.9Y-88.8
X156.9Y-89.65
X156.9Y-90.5
X156.9Y-91.35
X158.25Y-85.4
X158.25Y-86.25
X158.25Y-87.1
X158.25Y-87.95
X158.25Y-88.8
X158.25Y-89.65
X158.25Y-90.5
X158.25Y-91.35
T4
X75.6Y-53.535
X75.6Y-56.075
X90.7Y-114.66
X90.7Y-117.2
X90.7Y-119.74
X107.19Y-58.235
X107.19Y-60.775
X109.73Y-58.235
X109.73Y-60.775
X112.27Y-58.235
X112.27Y-60.775
X114.81Y-58.235
X114.81Y-60.775
X131.17Y-62.25
X133.71Y-62.25
X136.25Y-62.25
X138.79Y-62.25
X153.75Y-50.88
X153.75Y-53.42
X153.75Y-55.96
X153.75Y-58.5
X153.75Y-61.04
X159.75Y-96.42
X159.75Y-98.96
X159.75Y-101.5
X159.75Y-104.04
X159.75Y-106.58
T5
X81.66Y-130.0
X81.66Y-133.0
X84.66Y-130.0
X84.66Y-133.0
X87.66Y-130.0
X87.66Y-133.0
X90.66Y-130.0
X90.66Y-133.0
X93.66Y-130.0
X93.66Y-133.0
X96.66Y-130.0
X96.66Y-133.0
X107.16Y-129.93
X107.16Y-132.93
X110.16Y-129.93
X110.16Y-132.93
X113.16Y-129.93
X113.16Y-132.93
X116.16Y-129.93
X116.16Y-132.93
X119.16Y-129.93
X119.16Y-132.93
X122.16Y-129.93
X122.16Y-132.93
T6
X124.25Y-38.35
X124.25Y-46.35
X126.25Y-42.35
X128.25Y-38.35
X128.25Y-46.35
X130.25Y-42.35
X132.25Y-38.35
X132.25Y-46.35
X134.25Y-42.35
X136.25Y-38.35
X136.25Y-46.35
X138.25Y-42.35
X140.25Y-38.35
X140.25Y-46.35
T7
X117.75Y-41.85
X146.75Y-41.85
T8
X70.75Y-39.5
X70.75Y-136.25
X160.25Y-39.5
X160.25Y-136.25
T3
G00X157.13Y-84.05
M15
G01X158.63Y-84.05
M16
G05
G00X157.13Y-92.7
M15
G01X158.63Y-92.7
M16
G05
G00X160.86Y-84.05
M15
G01X161.66Y-84.05
M16
G05
G00X160.86Y-92.7
M15
G01X161.66Y-92.7
M16
G05
M30
