%TF.GenerationSoftware,KiCad,Pcbnew,9.0.1*%
%TF.CreationDate,2026-05-05T10:13:55+02:00*%
%TF.ProjectId,Dashcompleto,44617368-636f-46d7-906c-65746f2e6b69,rev?*%
%TF.SameCoordinates,Original*%
%TF.FileFunction,Copper,L1,Top*%
%TF.FilePolarity,Positive*%
%FSLAX46Y46*%
G04 Gerber Fmt 4.6, Leading zero omitted, Abs format (unit mm)*
G04 Created by KiCad (PCBNEW 9.0.1) date 2026-05-05 10:13:55*
%MOMM*%
%LPD*%
G01*
G04 APERTURE LIST*
G04 Aperture macros list*
%AMRoundRect*
0 Rectangle with rounded corners*
0 $1 Rounding radius*
0 $2 $3 $4 $5 $6 $7 $8 $9 X,Y pos of 4 corners*
0 Add a 4 corners polygon primitive as box body*
4,1,4,$2,$3,$4,$5,$6,$7,$8,$9,$2,$3,0*
0 Add four circle primitives for the rounded corners*
1,1,$1+$1,$2,$3*
1,1,$1+$1,$4,$5*
1,1,$1+$1,$6,$7*
1,1,$1+$1,$8,$9*
0 Add four rect primitives between the rounded corners*
20,1,$1+$1,$2,$3,$4,$5,0*
20,1,$1+$1,$4,$5,$6,$7,0*
20,1,$1+$1,$6,$7,$8,$9,0*
20,1,$1+$1,$8,$9,$2,$3,0*%
%AMFreePoly0*
4,1,17,1.203536,1.603536,1.205000,1.600000,1.205000,-0.800000,1.203536,-0.803536,1.200000,-0.805000,-1.200000,-0.805000,-1.203536,-0.803536,-1.205000,-0.800000,-1.205000,0.800000,-1.203536,0.803536,-1.200000,0.805000,-0.405000,0.805000,-0.405000,1.600000,-0.403536,1.603536,-0.400000,1.605000,1.200000,1.605000,1.203536,1.603536,1.203536,1.603536,$1*%
%AMFreePoly1*
4,1,17,0.403536,1.603536,0.405000,1.600000,0.405000,0.805000,1.200000,0.805000,1.203536,0.803536,1.205000,0.800000,1.205000,-0.800000,1.203536,-0.803536,1.200000,-0.805000,-1.200000,-0.805000,-1.203536,-0.803536,-1.205000,-0.800000,-1.205000,1.600000,-1.203536,1.603536,-1.200000,1.605000,0.400000,1.605000,0.403536,1.603536,0.403536,1.603536,$1*%
G04 Aperture macros list end*
%ADD10C,0.300000*%
%TA.AperFunction,NonConductor*%
%ADD11C,0.300000*%
%TD*%
%TA.AperFunction,NonConductor*%
%ADD12C,0.200000*%
%TD*%
%TA.AperFunction,SMDPad,CuDef*%
%ADD13RoundRect,0.250000X0.337500X0.475000X-0.337500X0.475000X-0.337500X-0.475000X0.337500X-0.475000X0*%
%TD*%
%TA.AperFunction,SMDPad,CuDef*%
%ADD14RoundRect,0.250000X-0.350000X-0.450000X0.350000X-0.450000X0.350000X0.450000X-0.350000X0.450000X0*%
%TD*%
%TA.AperFunction,SMDPad,CuDef*%
%ADD15RoundRect,0.250000X-0.337500X-0.475000X0.337500X-0.475000X0.337500X0.475000X-0.337500X0.475000X0*%
%TD*%
%TA.AperFunction,SMDPad,CuDef*%
%ADD16RoundRect,0.250000X0.350000X0.450000X-0.350000X0.450000X-0.350000X-0.450000X0.350000X-0.450000X0*%
%TD*%
%TA.AperFunction,SMDPad,CuDef*%
%ADD17RoundRect,0.250000X-0.312500X-0.625000X0.312500X-0.625000X0.312500X0.625000X-0.312500X0.625000X0*%
%TD*%
%TA.AperFunction,SMDPad,CuDef*%
%ADD18RoundRect,0.250000X-0.450000X0.350000X-0.450000X-0.350000X0.450000X-0.350000X0.450000X0.350000X0*%
%TD*%
%TA.AperFunction,SMDPad,CuDef*%
%ADD19RoundRect,0.250000X-0.625000X0.312500X-0.625000X-0.312500X0.625000X-0.312500X0.625000X0.312500X0*%
%TD*%
%TA.AperFunction,SMDPad,CuDef*%
%ADD20RoundRect,0.250000X-0.475000X0.337500X-0.475000X-0.337500X0.475000X-0.337500X0.475000X0.337500X0*%
%TD*%
%TA.AperFunction,SMDPad,CuDef*%
%ADD21RoundRect,0.150000X0.512500X0.150000X-0.512500X0.150000X-0.512500X-0.150000X0.512500X-0.150000X0*%
%TD*%
%TA.AperFunction,SMDPad,CuDef*%
%ADD22RoundRect,0.250000X0.450000X-0.350000X0.450000X0.350000X-0.450000X0.350000X-0.450000X-0.350000X0*%
%TD*%
%TA.AperFunction,SMDPad,CuDef*%
%ADD23RoundRect,0.150000X-0.150000X0.587500X-0.150000X-0.587500X0.150000X-0.587500X0.150000X0.587500X0*%
%TD*%
%TA.AperFunction,SMDPad,CuDef*%
%ADD24R,0.533400X1.524000*%
%TD*%
%TA.AperFunction,SMDPad,CuDef*%
%ADD25R,2.200000X2.150000*%
%TD*%
%TA.AperFunction,ComponentPad*%
%ADD26C,3.600000*%
%TD*%
%TA.AperFunction,ConnectorPad*%
%ADD27C,5.500000*%
%TD*%
%TA.AperFunction,SMDPad,CuDef*%
%ADD28RoundRect,0.250000X0.475000X-0.337500X0.475000X0.337500X-0.475000X0.337500X-0.475000X-0.337500X0*%
%TD*%
%TA.AperFunction,SMDPad,CuDef*%
%ADD29RoundRect,0.243750X-0.243750X-0.456250X0.243750X-0.456250X0.243750X0.456250X-0.243750X0.456250X0*%
%TD*%
%TA.AperFunction,SMDPad,CuDef*%
%ADD30R,0.900000X1.700000*%
%TD*%
%TA.AperFunction,SMDPad,CuDef*%
%ADD31RoundRect,0.150000X-0.587500X-0.150000X0.587500X-0.150000X0.587500X0.150000X-0.587500X0.150000X0*%
%TD*%
%TA.AperFunction,ComponentPad*%
%ADD32R,1.700000X1.700000*%
%TD*%
%TA.AperFunction,ComponentPad*%
%ADD33C,1.700000*%
%TD*%
%TA.AperFunction,SMDPad,CuDef*%
%ADD34RoundRect,0.250000X-1.100000X0.325000X-1.100000X-0.325000X1.100000X-0.325000X1.100000X0.325000X0*%
%TD*%
%TA.AperFunction,SMDPad,CuDef*%
%ADD35RoundRect,0.250000X0.625000X-0.312500X0.625000X0.312500X-0.625000X0.312500X-0.625000X-0.312500X0*%
%TD*%
%TA.AperFunction,SMDPad,CuDef*%
%ADD36RoundRect,0.250000X0.450000X-0.325000X0.450000X0.325000X-0.450000X0.325000X-0.450000X-0.325000X0*%
%TD*%
%TA.AperFunction,SMDPad,CuDef*%
%ADD37R,1.150000X1.000000*%
%TD*%
%TA.AperFunction,SMDPad,CuDef*%
%ADD38RoundRect,0.237500X-0.250000X-0.237500X0.250000X-0.237500X0.250000X0.237500X-0.250000X0.237500X0*%
%TD*%
%TA.AperFunction,SMDPad,CuDef*%
%ADD39R,1.100000X0.850000*%
%TD*%
%TA.AperFunction,SMDPad,CuDef*%
%ADD40R,1.100000X0.750000*%
%TD*%
%TA.AperFunction,SMDPad,CuDef*%
%ADD41R,1.000000X1.200000*%
%TD*%
%TA.AperFunction,SMDPad,CuDef*%
%ADD42R,1.350000X1.550000*%
%TD*%
%TA.AperFunction,SMDPad,CuDef*%
%ADD43R,1.350000X1.900000*%
%TD*%
%TA.AperFunction,SMDPad,CuDef*%
%ADD44R,1.800000X1.170000*%
%TD*%
%TA.AperFunction,SMDPad,CuDef*%
%ADD45R,2.950000X3.500000*%
%TD*%
%TA.AperFunction,SMDPad,CuDef*%
%ADD46RoundRect,0.250000X0.325000X1.100000X-0.325000X1.100000X-0.325000X-1.100000X0.325000X-1.100000X0*%
%TD*%
%TA.AperFunction,SMDPad,CuDef*%
%ADD47RoundRect,0.150000X0.587500X0.150000X-0.587500X0.150000X-0.587500X-0.150000X0.587500X-0.150000X0*%
%TD*%
%TA.AperFunction,SMDPad,CuDef*%
%ADD48R,0.400000X0.800000*%
%TD*%
%TA.AperFunction,SMDPad,CuDef*%
%ADD49R,2.500000X1.750000*%
%TD*%
%TA.AperFunction,SMDPad,CuDef*%
%ADD50RoundRect,0.075000X-0.675000X-0.075000X0.675000X-0.075000X0.675000X0.075000X-0.675000X0.075000X0*%
%TD*%
%TA.AperFunction,SMDPad,CuDef*%
%ADD51RoundRect,0.075000X-0.075000X-0.675000X0.075000X-0.675000X0.075000X0.675000X-0.075000X0.675000X0*%
%TD*%
%TA.AperFunction,SMDPad,CuDef*%
%ADD52RoundRect,0.250000X-0.450000X0.325000X-0.450000X-0.325000X0.450000X-0.325000X0.450000X0.325000X0*%
%TD*%
%TA.AperFunction,ComponentPad*%
%ADD53RoundRect,0.250001X0.499999X0.499999X-0.499999X0.499999X-0.499999X-0.499999X0.499999X-0.499999X0*%
%TD*%
%TA.AperFunction,ComponentPad*%
%ADD54C,1.500000*%
%TD*%
%TA.AperFunction,SMDPad,CuDef*%
%ADD55R,1.200000X0.300000*%
%TD*%
%TA.AperFunction,SMDPad,CuDef*%
%ADD56FreePoly0,270.000000*%
%TD*%
%TA.AperFunction,SMDPad,CuDef*%
%ADD57FreePoly1,270.000000*%
%TD*%
%TA.AperFunction,SMDPad,CuDef*%
%ADD58RoundRect,0.250000X-1.000000X-0.650000X1.000000X-0.650000X1.000000X0.650000X-1.000000X0.650000X0*%
%TD*%
%TA.AperFunction,SMDPad,CuDef*%
%ADD59R,3.500000X2.950000*%
%TD*%
%TA.AperFunction,SMDPad,CuDef*%
%ADD60RoundRect,0.150000X-0.512500X-0.150000X0.512500X-0.150000X0.512500X0.150000X-0.512500X0.150000X0*%
%TD*%
%TA.AperFunction,SMDPad,CuDef*%
%ADD61R,0.508000X1.193800*%
%TD*%
%TA.AperFunction,SMDPad,CuDef*%
%ADD62RoundRect,0.150000X0.150000X-0.825000X0.150000X0.825000X-0.150000X0.825000X-0.150000X-0.825000X0*%
%TD*%
%TA.AperFunction,ComponentPad*%
%ADD63C,2.800000*%
%TD*%
%TA.AperFunction,ComponentPad*%
%ADD64C,4.300000*%
%TD*%
%TA.AperFunction,ComponentPad*%
%ADD65C,0.700000*%
%TD*%
%TA.AperFunction,ComponentPad*%
%ADD66O,2.400000X0.900000*%
%TD*%
%TA.AperFunction,ComponentPad*%
%ADD67O,1.700000X0.900000*%
%TD*%
%TA.AperFunction,ViaPad*%
%ADD68C,0.600000*%
%TD*%
%TA.AperFunction,ViaPad*%
%ADD69C,0.500000*%
%TD*%
%TA.AperFunction,Conductor*%
%ADD70C,0.200000*%
%TD*%
%TA.AperFunction,Conductor*%
%ADD71C,0.400000*%
%TD*%
%TA.AperFunction,Conductor*%
%ADD72C,0.300000*%
%TD*%
%TA.AperFunction,Conductor*%
%ADD73C,0.500000*%
%TD*%
G04 APERTURE END LIST*
D10*
D11*
X186378328Y-88249998D02*
X186378328Y-89107141D01*
X186378328Y-88678570D02*
X184878328Y-88678570D01*
X184878328Y-88678570D02*
X185092614Y-88821427D01*
X185092614Y-88821427D02*
X185235471Y-88964284D01*
X185235471Y-88964284D02*
X185306900Y-89107141D01*
X184878328Y-87321427D02*
X184878328Y-87178570D01*
X184878328Y-87178570D02*
X184949757Y-87035713D01*
X184949757Y-87035713D02*
X185021185Y-86964285D01*
X185021185Y-86964285D02*
X185164042Y-86892856D01*
X185164042Y-86892856D02*
X185449757Y-86821427D01*
X185449757Y-86821427D02*
X185806900Y-86821427D01*
X185806900Y-86821427D02*
X186092614Y-86892856D01*
X186092614Y-86892856D02*
X186235471Y-86964285D01*
X186235471Y-86964285D02*
X186306900Y-87035713D01*
X186306900Y-87035713D02*
X186378328Y-87178570D01*
X186378328Y-87178570D02*
X186378328Y-87321427D01*
X186378328Y-87321427D02*
X186306900Y-87464285D01*
X186306900Y-87464285D02*
X186235471Y-87535713D01*
X186235471Y-87535713D02*
X186092614Y-87607142D01*
X186092614Y-87607142D02*
X185806900Y-87678570D01*
X185806900Y-87678570D02*
X185449757Y-87678570D01*
X185449757Y-87678570D02*
X185164042Y-87607142D01*
X185164042Y-87607142D02*
X185021185Y-87535713D01*
X185021185Y-87535713D02*
X184949757Y-87464285D01*
X184949757Y-87464285D02*
X184878328Y-87321427D01*
X184878328Y-86321428D02*
X184878328Y-85321428D01*
X184878328Y-85321428D02*
X186378328Y-85964285D01*
D12*
X166750000Y-33750000D02*
X188086420Y-33750000D01*
X188086420Y-140750000D02*
X166750000Y-140750000D01*
X187500000Y-33750000D02*
X187500000Y-140750000D01*
X187500000Y-33750000D02*
X188086421Y-34876504D01*
X187500000Y-33750000D02*
X186913579Y-34876504D01*
X187500000Y-140750000D02*
X186913579Y-139623496D01*
X187500000Y-140750000D02*
X188086421Y-139623496D01*
D13*
%TO.P,C16,1*%
%TO.N,VDD*%
X136787500Y-87750000D03*
%TO.P,C16,2*%
%TO.N,GND*%
X134712500Y-87750000D03*
%TD*%
D14*
%TO.P,R20,1*%
%TO.N,CANH1*%
X134000000Y-65750000D03*
%TO.P,R20,2*%
%TO.N,CANL1*%
X136000000Y-65750000D03*
%TD*%
D13*
%TO.P,C18,1*%
%TO.N,VDD*%
X101537500Y-66456250D03*
%TO.P,C18,2*%
%TO.N,GND*%
X99462500Y-66456250D03*
%TD*%
D15*
%TO.P,C10,1*%
%TO.N,VDD*%
X130462500Y-75250000D03*
%TO.P,C10,2*%
%TO.N,GND*%
X132537500Y-75250000D03*
%TD*%
D16*
%TO.P,R56,1*%
%TO.N,START*%
X120250000Y-51000000D03*
%TO.P,R56,2*%
%TO.N,START_OB*%
X118250000Y-51000000D03*
%TD*%
D17*
%TO.P,R48,1*%
%TO.N,GND*%
X133825000Y-133787500D03*
%TO.P,R48,2*%
%TO.N,RTDS*%
X136750000Y-133787500D03*
%TD*%
D18*
%TO.P,R16,1*%
%TO.N,VDD*%
X162324500Y-56574500D03*
%TO.P,R16,2*%
%TO.N,Net-(J4-CMD)*%
X162324500Y-58574500D03*
%TD*%
D19*
%TO.P,R50,1*%
%TO.N,Net-(Q6-G)*%
X136500000Y-127787500D03*
%TO.P,R50,2*%
%TO.N,RTDS*%
X136500000Y-130712500D03*
%TD*%
%TO.P,RS2,1*%
%TO.N,Net-(Q4-D)*%
X143500000Y-122500000D03*
%TO.P,RS2,2*%
%TO.N,IMD_LED-*%
X143500000Y-125425000D03*
%TD*%
D20*
%TO.P,C12,1*%
%TO.N,VDD*%
X132750000Y-114212500D03*
%TO.P,C12,2*%
%TO.N,GND*%
X132750000Y-116287500D03*
%TD*%
D21*
%TO.P,U8,1,GND*%
%TO.N,GND*%
X85887500Y-43725000D03*
%TO.P,U8,2,SW*%
%TO.N,Net-(U8-SW)*%
X85887500Y-42775000D03*
%TO.P,U8,3,VIN*%
%TO.N,VIN*%
X85887500Y-41825000D03*
%TO.P,U8,4,FB*%
%TO.N,Net-(U8-FB)*%
X83612500Y-41825000D03*
%TO.P,U8,5,EN*%
%TO.N,Net-(U8-EN)*%
X83612500Y-42775000D03*
%TO.P,U8,6,CB*%
%TO.N,Net-(U8-CB)*%
X83612500Y-43725000D03*
%TD*%
D22*
%TO.P,R41,1*%
%TO.N,Net-(U8-FB)*%
X78750000Y-40250000D03*
%TO.P,R41,2*%
%TO.N,GND*%
X78750000Y-38250000D03*
%TD*%
D23*
%TO.P,Q4,1,G*%
%TO.N,Net-(Q3-D)*%
X141150000Y-120500000D03*
%TO.P,Q4,2,S*%
%TO.N,GND*%
X139250000Y-120500000D03*
%TO.P,Q4,3,D*%
%TO.N,Net-(Q4-D)*%
X140200000Y-122375000D03*
%TD*%
D13*
%TO.P,C8,1*%
%TO.N,VDD*%
X158287500Y-65000000D03*
%TO.P,C8,2*%
%TO.N,GND*%
X156212500Y-65000000D03*
%TD*%
D20*
%TO.P,C9,1*%
%TO.N,+5V*%
X92500000Y-66462500D03*
%TO.P,C9,2*%
%TO.N,GND*%
X92500000Y-68537500D03*
%TD*%
D24*
%TO.P,U6,1,S#*%
%TO.N,QUADSPI_BK1_NCS*%
X95595000Y-87144900D03*
%TO.P,U6,2,DQ1*%
%TO.N,QUADSPI_BK1_IO1*%
X96865000Y-87144900D03*
%TO.P,U6,3,W#/DQ2*%
%TO.N,QUADSPI_BK1_IO2*%
X98135000Y-87144900D03*
%TO.P,U6,4,VSS*%
%TO.N,GND*%
X99405000Y-87144900D03*
%TO.P,U6,5,DQ0*%
%TO.N,QUADSPI_BK1_IO0*%
X99405000Y-79855100D03*
%TO.P,U6,6,C*%
%TO.N,QUADSPI_CLK*%
X98135000Y-79855100D03*
%TO.P,U6,7,DQ3/HOLD#*%
%TO.N,QUADSPI_BK1_IO3*%
X96865000Y-79855100D03*
%TO.P,U6,8,VCC*%
%TO.N,VDD*%
X95595000Y-79855100D03*
%TD*%
D25*
%TO.P,D1,1,K*%
%TO.N,+5V*%
X94300000Y-61500000D03*
%TO.P,D1,2,A*%
%TO.N,Net-(D1-A)*%
X98700000Y-61500000D03*
%TD*%
D26*
%TO.P,H3,1,1*%
%TO.N,GND*%
X70750000Y-39500000D03*
D27*
X70750000Y-39500000D03*
%TD*%
D14*
%TO.P,R18,1*%
%TO.N,VDD*%
X149500000Y-83750000D03*
%TO.P,R18,2*%
%TO.N,Net-(J4-DAT1)*%
X151500000Y-83750000D03*
%TD*%
D20*
%TO.P,C23,1*%
%TO.N,+5V*%
X95000000Y-66462500D03*
%TO.P,C23,2*%
%TO.N,GND*%
X95000000Y-68537500D03*
%TD*%
D15*
%TO.P,C39,1*%
%TO.N,+5V*%
X97150000Y-53525000D03*
%TO.P,C39,2*%
%TO.N,GND*%
X99225000Y-53525000D03*
%TD*%
D28*
%TO.P,C17,1*%
%TO.N,VDD*%
X120000000Y-72500000D03*
%TO.P,C17,2*%
%TO.N,GND*%
X120000000Y-70425000D03*
%TD*%
D16*
%TO.P,R55,1*%
%TO.N,RST_PILOTO_OB*%
X120750000Y-57000000D03*
%TO.P,R55,2*%
%TO.N,GND*%
X118750000Y-57000000D03*
%TD*%
D20*
%TO.P,C3,1*%
%TO.N,GND*%
X97000000Y-92962500D03*
%TO.P,C3,2*%
X97000000Y-95037500D03*
%TD*%
D23*
%TO.P,Q2,1,G*%
%TO.N,Net-(Q1-D)*%
X155700000Y-121375000D03*
%TO.P,Q2,2,S*%
%TO.N,GND*%
X153800000Y-121375000D03*
%TO.P,Q2,3,D*%
%TO.N,Net-(Q2-D)*%
X154750000Y-123250000D03*
%TD*%
D29*
%TO.P,LED1,1,K*%
%TO.N,GND*%
X99625000Y-71456250D03*
%TO.P,LED1,2,A*%
%TO.N,Net-(LED1-A)*%
X101500000Y-71456250D03*
%TD*%
D30*
%TO.P,SW1,1,1*%
%TO.N,Net-(U1-BOOT0)*%
X123050000Y-61500000D03*
%TO.P,SW1,2,2*%
%TO.N,VDD*%
X126450000Y-61500000D03*
%TD*%
D14*
%TO.P,R13,1*%
%TO.N,SDMMC1_D1*%
X146387500Y-80365000D03*
%TO.P,R13,2*%
%TO.N,Net-(J4-DAT1)*%
X148387500Y-80365000D03*
%TD*%
D13*
%TO.P,C36,1*%
%TO.N,+5V*%
X85750000Y-56250000D03*
%TO.P,C36,2*%
%TO.N,GND*%
X83675000Y-56250000D03*
%TD*%
%TO.P,C19,1*%
%TO.N,VDD*%
X103287500Y-87500000D03*
%TO.P,C19,2*%
%TO.N,GND*%
X101212500Y-87500000D03*
%TD*%
D31*
%TO.P,Q3,1,G*%
%TO.N,Net-(Q3-G)*%
X138500000Y-114787500D03*
%TO.P,Q3,2,S*%
%TO.N,GND*%
X138500000Y-116687500D03*
%TO.P,Q3,3,D*%
%TO.N,Net-(Q3-D)*%
X140375000Y-115737500D03*
%TD*%
D32*
%TO.P,J7,1,Pin_1*%
%TO.N,VDD*%
X159750000Y-96420000D03*
D33*
%TO.P,J7,2,Pin_2*%
%TO.N,SWDIO*%
X159750000Y-98960000D03*
%TO.P,J7,3,Pin_3*%
%TO.N,SWCLK*%
X159750000Y-101500000D03*
%TO.P,J7,4,Pin_4*%
%TO.N,SWO*%
X159750000Y-104040000D03*
%TO.P,J7,5,Pin_5*%
%TO.N,GND*%
X159750000Y-106580000D03*
%TD*%
D20*
%TO.P,C26,1*%
%TO.N,GND*%
X117750000Y-70462500D03*
%TO.P,C26,2*%
%TO.N,VREF*%
X117750000Y-72537500D03*
%TD*%
D32*
%TO.P,J6,1,Pin_1*%
%TO.N,CANH1*%
X131170000Y-62250000D03*
D33*
%TO.P,J6,2,Pin_2*%
%TO.N,CANL1*%
X133710000Y-62250000D03*
%TO.P,J6,3,Pin_3*%
%TO.N,CANH2*%
X136250000Y-62250000D03*
%TO.P,J6,4,Pin_4*%
%TO.N,CANL2*%
X138790000Y-62250000D03*
%TD*%
D13*
%TO.P,C37,1*%
%TO.N,+5V*%
X85750000Y-53750000D03*
%TO.P,C37,2*%
%TO.N,GND*%
X83675000Y-53750000D03*
%TD*%
D34*
%TO.P,C42,1*%
%TO.N,IMD_OK*%
X147000000Y-111737500D03*
%TO.P,C42,2*%
%TO.N,GND*%
X147000000Y-114687500D03*
%TD*%
D20*
%TO.P,C13,1*%
%TO.N,VDD*%
X104250000Y-114712500D03*
%TO.P,C13,2*%
%TO.N,GND*%
X104250000Y-116787500D03*
%TD*%
D35*
%TO.P,R45,1*%
%TO.N,GND*%
X143250000Y-114675000D03*
%TO.P,R45,2*%
%TO.N,IMD_OK*%
X143250000Y-111750000D03*
%TD*%
D18*
%TO.P,R1,1*%
%TO.N,Net-(U1-BOOT0)*%
X120500000Y-63750000D03*
%TO.P,R1,2*%
%TO.N,GND*%
X120500000Y-65750000D03*
%TD*%
D14*
%TO.P,R10,1*%
%TO.N,SDMMC1_CMD*%
X146387500Y-70365000D03*
%TO.P,R10,2*%
%TO.N,Net-(J4-CMD)*%
X148387500Y-70365000D03*
%TD*%
D32*
%TO.P,J16,1,Pin_1*%
%TO.N,GND*%
X107190000Y-60775000D03*
D33*
%TO.P,J16,2,Pin_2*%
%TO.N,VDD*%
X107190000Y-58235000D03*
%TO.P,J16,3,Pin_3*%
%TO.N,SPI_CE*%
X109730000Y-60775000D03*
%TO.P,J16,4,Pin_4*%
%TO.N,SPI_CS*%
X109730000Y-58235000D03*
%TO.P,J16,5,Pin_5*%
%TO.N,SPI_CLK*%
X112270000Y-60775000D03*
%TO.P,J16,6,Pin_6*%
%TO.N,SPI_MOSI*%
X112270000Y-58235000D03*
%TO.P,J16,7,Pin_7*%
%TO.N,SPI_MISO*%
X114810000Y-60775000D03*
%TO.P,J16,8,Pin_8*%
%TO.N,SPI_IRQ*%
X114810000Y-58235000D03*
%TD*%
D28*
%TO.P,C40,1*%
%TO.N,Net-(C40-Pad1)*%
X81250000Y-46325000D03*
%TO.P,C40,2*%
%TO.N,Net-(U8-FB)*%
X81250000Y-44250000D03*
%TD*%
D14*
%TO.P,R36,1*%
%TO.N,Net-(U1-PA13)*%
X152750000Y-97920000D03*
%TO.P,R36,2*%
%TO.N,SWDIO*%
X154750000Y-97920000D03*
%TD*%
D36*
%TO.P,D2,1,K*%
%TO.N,Net-(D2-K)*%
X83250000Y-115750000D03*
%TO.P,D2,2,A*%
%TO.N,LED1*%
X83250000Y-113700000D03*
%TD*%
D37*
%TO.P,Y1,1,1*%
%TO.N,Net-(U1-PH0)*%
X101500000Y-94100000D03*
%TO.P,Y1,2,2*%
%TO.N,GND*%
X99750000Y-94100000D03*
%TO.P,Y1,3,3*%
X99750000Y-95500000D03*
%TO.P,Y1,4,4*%
X101500000Y-95500000D03*
%TD*%
D38*
%TO.P,R33,1*%
%TO.N,D+*%
X143262500Y-87750000D03*
%TO.P,R33,2*%
%TO.N,Net-(J17-D+-PadA6)*%
X145087500Y-87750000D03*
%TD*%
D16*
%TO.P,R22,1*%
%TO.N,Net-(LED1-A)*%
X101537500Y-68706250D03*
%TO.P,R22,2*%
%TO.N,VDD*%
X99537500Y-68706250D03*
%TD*%
D28*
%TO.P,C5,1*%
%TO.N,Net-(C2-Pad1)*%
X139500000Y-104000000D03*
%TO.P,C5,2*%
%TO.N,GND*%
X139500000Y-101925000D03*
%TD*%
D18*
%TO.P,R23,1*%
%TO.N,Net-(D2-K)*%
X83250000Y-117925000D03*
%TO.P,R23,2*%
%TO.N,GND*%
X83250000Y-119925000D03*
%TD*%
D36*
%TO.P,D3,1,K*%
%TO.N,Net-(D3-K)*%
X86250000Y-115575000D03*
%TO.P,D3,2,A*%
%TO.N,LED2*%
X86250000Y-113525000D03*
%TD*%
D17*
%TO.P,R43,1*%
%TO.N,Net-(Q1-G)*%
X151287500Y-111437500D03*
%TO.P,R43,2*%
%TO.N,BMS_OK*%
X154212500Y-111437500D03*
%TD*%
D22*
%TO.P,R34,1*%
%TO.N,Net-(D1-A)*%
X147750000Y-104000000D03*
%TO.P,R34,2*%
%TO.N,VBUS*%
X147750000Y-102000000D03*
%TD*%
D28*
%TO.P,C2,1*%
%TO.N,Net-(C2-Pad1)*%
X137000000Y-104037500D03*
%TO.P,C2,2*%
%TO.N,GND*%
X137000000Y-101962500D03*
%TD*%
D14*
%TO.P,R5,1*%
%TO.N,Net-(U1-PB3)*%
X152750000Y-102920000D03*
%TO.P,R5,2*%
%TO.N,SWO*%
X154750000Y-102920000D03*
%TD*%
D17*
%TO.P,R47,1*%
%TO.N,Net-(Q3-D)*%
X142537500Y-117750000D03*
%TO.P,R47,2*%
%TO.N,+5V*%
X145462500Y-117750000D03*
%TD*%
D28*
%TO.P,C33,1*%
%TO.N,VIN*%
X93760000Y-39600000D03*
%TO.P,C33,2*%
%TO.N,GND*%
X93760000Y-37525000D03*
%TD*%
D14*
%TO.P,R11,1*%
%TO.N,SDMMC1_CK*%
X146387500Y-72365000D03*
%TO.P,R11,2*%
%TO.N,Net-(J4-CLK)*%
X148387500Y-72365000D03*
%TD*%
D28*
%TO.P,C32,1*%
%TO.N,VIN*%
X90750000Y-39600000D03*
%TO.P,C32,2*%
%TO.N,GND*%
X90750000Y-37525000D03*
%TD*%
D32*
%TO.P,J13,1,Pin_1*%
%TO.N,+5V*%
X75600000Y-56075000D03*
D33*
%TO.P,J13,2,Pin_2*%
X75600000Y-53535000D03*
%TD*%
D39*
%TO.P,J4,1,DAT2*%
%TO.N,Net-(J4-DAT2)*%
X162750000Y-72250000D03*
%TO.P,J4,2,DAT3/CD*%
%TO.N,Net-(J4-DAT3{slash}CD)*%
X162750000Y-73350000D03*
%TO.P,J4,3,CMD*%
%TO.N,Net-(J4-CMD)*%
X162750000Y-74450000D03*
%TO.P,J4,4,VDD*%
%TO.N,VDD*%
X162750000Y-75550000D03*
%TO.P,J4,5,CLK*%
%TO.N,Net-(J4-CLK)*%
X162750000Y-76650000D03*
%TO.P,J4,6,VSS*%
%TO.N,GND*%
X162750000Y-77750000D03*
%TO.P,J4,7,DAT0*%
%TO.N,Net-(J4-DAT0)*%
X162750000Y-78850000D03*
D40*
%TO.P,J4,8,DAT1*%
%TO.N,Net-(J4-DAT1)*%
X162750000Y-79900000D03*
D41*
%TO.P,J4,9,DET*%
%TO.N,MICROSD_DET*%
X156600000Y-69615000D03*
%TO.P,J4,10,SHIELD*%
%TO.N,GND*%
X152900000Y-69615000D03*
D42*
%TO.P,J4,11*%
%TO.N,N/C*%
X162625000Y-69790000D03*
D43*
X151925000Y-73115000D03*
X151925000Y-79085000D03*
D44*
X162400000Y-81110000D03*
%TD*%
D13*
%TO.P,C1,1*%
%TO.N,Net-(U1-PH0)*%
X101500000Y-92000000D03*
%TO.P,C1,2*%
%TO.N,GND*%
X99425000Y-92000000D03*
%TD*%
D45*
%TO.P,L2,1,1*%
%TO.N,+24V*%
X102950000Y-42025000D03*
%TO.P,L2,2,2*%
%TO.N,VIN*%
X97500000Y-42025000D03*
%TD*%
D18*
%TO.P,R35,1*%
%TO.N,VBUS*%
X145500000Y-102000000D03*
%TO.P,R35,2*%
%TO.N,GND*%
X145500000Y-104000000D03*
%TD*%
D28*
%TO.P,C15,1*%
%TO.N,VDD*%
X133750000Y-79537500D03*
%TO.P,C15,2*%
%TO.N,GND*%
X133750000Y-77462500D03*
%TD*%
D20*
%TO.P,C34,1*%
%TO.N,VIN*%
X89500000Y-42200000D03*
%TO.P,C34,2*%
%TO.N,GND*%
X89500000Y-44275000D03*
%TD*%
D14*
%TO.P,R12,1*%
%TO.N,SDMMC1_D0*%
X146387500Y-78365000D03*
%TO.P,R12,2*%
%TO.N,Net-(J4-DAT0)*%
X148387500Y-78365000D03*
%TD*%
D46*
%TO.P,C43,1*%
%TO.N,RTDS*%
X136750000Y-137287500D03*
%TO.P,C43,2*%
%TO.N,GND*%
X133800000Y-137287500D03*
%TD*%
D47*
%TO.P,Q7,1,G*%
%TO.N,Net-(Q7-G)*%
X148787500Y-130500000D03*
%TO.P,Q7,2,S*%
%TO.N,GND*%
X148787500Y-128600000D03*
%TO.P,Q7,3,D*%
%TO.N,TS_OFF_LED-*%
X146912500Y-129550000D03*
%TD*%
D48*
%TO.P,U5,1,OUT*%
%TO.N,VDD*%
X87550000Y-72075000D03*
%TO.P,U5,2,ADJ/SENSE*%
X88500000Y-72075000D03*
%TO.P,U5,3,GND*%
%TO.N,GND*%
X89450000Y-72075000D03*
%TO.P,U5,4,PG*%
%TO.N,unconnected-(U5-PG-Pad4)*%
X89450000Y-69075000D03*
%TO.P,U5,5,EN*%
%TO.N,+5V*%
X88500000Y-69075000D03*
%TO.P,U5,6,IN*%
X87550000Y-69075000D03*
D49*
%TO.P,U5,7,EPAD*%
%TO.N,GND*%
X88500000Y-70575000D03*
%TD*%
D22*
%TO.P,R57,1*%
%TO.N,START_OB*%
X116100000Y-51000000D03*
%TO.P,R57,2*%
%TO.N,GND*%
X116100000Y-49000000D03*
%TD*%
D32*
%TO.P,J14,1,Pin_1*%
%TO.N,VDD*%
X90700000Y-114660000D03*
D33*
%TO.P,J14,2,Pin_2*%
%TO.N,GND*%
X90700000Y-117200000D03*
%TO.P,J14,3,Pin_3*%
X90700000Y-119740000D03*
%TD*%
D18*
%TO.P,R4,1*%
%TO.N,Net-(J17-CC1)*%
X147750000Y-97000000D03*
%TO.P,R4,2*%
%TO.N,GND*%
X147750000Y-99000000D03*
%TD*%
D36*
%TO.P,D4,1,K*%
%TO.N,Net-(D4-K)*%
X80000000Y-115725000D03*
%TO.P,D4,2,A*%
%TO.N,LED3*%
X80000000Y-113675000D03*
%TD*%
D16*
%TO.P,R14,1*%
%TO.N,VDD*%
X162300000Y-62865000D03*
%TO.P,R14,2*%
%TO.N,Net-(J4-DAT2)*%
X160300000Y-62865000D03*
%TD*%
D20*
%TO.P,C30,1*%
%TO.N,+24V*%
X99215000Y-48200000D03*
%TO.P,C30,2*%
%TO.N,GND*%
X99215000Y-50275000D03*
%TD*%
D32*
%TO.P,J5,1,Pin_1*%
%TO.N,UART5_TX*%
X153750000Y-61040000D03*
D33*
%TO.P,J5,2,Pin_2*%
%TO.N,UART5_RX*%
X153750000Y-58500000D03*
%TO.P,J5,3,Pin_3*%
%TO.N,USART1_TX*%
X153750000Y-55960000D03*
%TO.P,J5,4,Pin_4*%
%TO.N,USART1_RX*%
X153750000Y-53420000D03*
%TO.P,J5,5,Pin_5*%
%TO.N,USART1_CK*%
X153750000Y-50880000D03*
%TD*%
D18*
%TO.P,R27,1*%
%TO.N,Net-(D4-K)*%
X80000000Y-117925000D03*
%TO.P,R27,2*%
%TO.N,GND*%
X80000000Y-119925000D03*
%TD*%
D13*
%TO.P,C7,1*%
%TO.N,VDD*%
X156575000Y-67250000D03*
%TO.P,C7,2*%
%TO.N,GND*%
X154500000Y-67250000D03*
%TD*%
D50*
%TO.P,U1,1,PE2*%
%TO.N,SPI_CS*%
X105825000Y-79250000D03*
%TO.P,U1,2,PE3*%
%TO.N,SPI_CE*%
X105825000Y-79750000D03*
%TO.P,U1,3,PE4*%
%TO.N,LTDC_B0*%
X105825000Y-80250000D03*
%TO.P,U1,4,PE5*%
%TO.N,LTDC_G0*%
X105825000Y-80750000D03*
%TO.P,U1,5,PE6*%
%TO.N,LTDC_G1*%
X105825000Y-81250000D03*
%TO.P,U1,6,VBAT*%
%TO.N,unconnected-(U1-VBAT-Pad6)*%
X105825000Y-81750000D03*
%TO.P,U1,7,PI8*%
%TO.N,LED2*%
X105825000Y-82250000D03*
%TO.P,U1,8,PC13*%
%TO.N,LED3*%
X105825000Y-82750000D03*
%TO.P,U1,9,PC14*%
%TO.N,unconnected-(U1-PC14-Pad9)*%
X105825000Y-83250000D03*
%TO.P,U1,10,PC15*%
%TO.N,unconnected-(U1-PC15-Pad10)*%
X105825000Y-83750000D03*
%TO.P,U1,11,PI9*%
%TO.N,LTDC_VSYNC*%
X105825000Y-84250000D03*
%TO.P,U1,12,PI10*%
%TO.N,LTDC_HSYNC*%
X105825000Y-84750000D03*
%TO.P,U1,13,PI11*%
%TO.N,LTDC_G6*%
X105825000Y-85250000D03*
%TO.P,U1,14,VSS*%
%TO.N,GND*%
X105825000Y-85750000D03*
%TO.P,U1,15,VDD*%
%TO.N,VDD*%
X105825000Y-86250000D03*
%TO.P,U1,16,PF0*%
%TO.N,FMC_A0*%
X105825000Y-86750000D03*
%TO.P,U1,17,PF1*%
%TO.N,FMC_A1*%
X105825000Y-87250000D03*
%TO.P,U1,18,PF2*%
%TO.N,FMC_A2*%
X105825000Y-87750000D03*
%TO.P,U1,19,PF3*%
%TO.N,FMC_A3*%
X105825000Y-88250000D03*
%TO.P,U1,20,PF4*%
%TO.N,FMC_A4*%
X105825000Y-88750000D03*
%TO.P,U1,21,PF5*%
%TO.N,FMC_A5*%
X105825000Y-89250000D03*
%TO.P,U1,22,VSS*%
%TO.N,GND*%
X105825000Y-89750000D03*
%TO.P,U1,23,VDD*%
%TO.N,VDD*%
X105825000Y-90250000D03*
%TO.P,U1,24,PF6*%
%TO.N,QUADSPI_BK1_IO3*%
X105825000Y-90750000D03*
%TO.P,U1,25,PF7*%
%TO.N,QUADSPI_BK1_IO2*%
X105825000Y-91250000D03*
%TO.P,U1,26,PF8*%
%TO.N,QUADSPI_BK1_IO0*%
X105825000Y-91750000D03*
%TO.P,U1,27,PF9*%
%TO.N,QUADSPI_BK1_IO1*%
X105825000Y-92250000D03*
%TO.P,U1,28,PF10*%
%TO.N,LTDC_DE*%
X105825000Y-92750000D03*
%TO.P,U1,29,PH0*%
%TO.N,Net-(U1-PH0)*%
X105825000Y-93250000D03*
%TO.P,U1,30,PH1*%
%TO.N,GND*%
X105825000Y-93750000D03*
%TO.P,U1,31,NRST*%
%TO.N,Net-(U1-NRST)*%
X105825000Y-94250000D03*
%TO.P,U1,32,PC0*%
%TO.N,FMC_SDNWE*%
X105825000Y-94750000D03*
%TO.P,U1,33,PC1*%
%TO.N,unconnected-(U1-PC1-Pad33)*%
X105825000Y-95250000D03*
%TO.P,U1,34,PC2_C*%
%TO.N,FMC_SDNE0*%
X105825000Y-95750000D03*
%TO.P,U1,35,PC3_C*%
%TO.N,FMC_SDCKE0*%
X105825000Y-96250000D03*
%TO.P,U1,36,VDD*%
%TO.N,VDD*%
X105825000Y-96750000D03*
%TO.P,U1,37,VSSA*%
%TO.N,GND*%
X105825000Y-97250000D03*
%TO.P,U1,38,VREF+*%
%TO.N,VREF*%
X105825000Y-97750000D03*
%TO.P,U1,39,VDDA*%
%TO.N,VDD*%
X105825000Y-98250000D03*
%TO.P,U1,40,PA0*%
%TO.N,LED1*%
X105825000Y-98750000D03*
%TO.P,U1,41,PA1*%
%TO.N,LTDC_R2*%
X105825000Y-99250000D03*
%TO.P,U1,42,PA2*%
%TO.N,LTDC_R1*%
X105825000Y-99750000D03*
%TO.P,U1,43,PH2*%
%TO.N,LTDC_R0*%
X105825000Y-100250000D03*
%TO.P,U1,44,PH3*%
%TO.N,unconnected-(U1-PH3-Pad44)*%
X105825000Y-100750000D03*
D51*
%TO.P,U1,45,PH4*%
%TO.N,LTDC_G4*%
X107750000Y-102675000D03*
%TO.P,U1,46,PH5*%
%TO.N,unconnected-(U1-PH5-Pad46)*%
X108250000Y-102675000D03*
%TO.P,U1,47,PA3*%
%TO.N,LTDC_B5*%
X108750000Y-102675000D03*
%TO.P,U1,48,VSS*%
%TO.N,GND*%
X109250000Y-102675000D03*
%TO.P,U1,49,VDD*%
%TO.N,VDD*%
X109750000Y-102675000D03*
%TO.P,U1,50,PA4*%
%TO.N,unconnected-(U1-PA4-Pad50)*%
X110250000Y-102675000D03*
%TO.P,U1,51,PA5*%
%TO.N,SPI_CLK*%
X110750000Y-102675000D03*
%TO.P,U1,52,PA6*%
%TO.N,LTDC_G2*%
X111250000Y-102675000D03*
%TO.P,U1,53,PA7*%
%TO.N,SPI_MOSI*%
X111750000Y-102675000D03*
%TO.P,U1,54,PC4*%
%TO.N,unconnected-(U1-PC4-Pad54)*%
X112250000Y-102675000D03*
%TO.P,U1,55,PC5*%
%TO.N,LTDC_STDBY*%
X112750000Y-102675000D03*
%TO.P,U1,56,PB0*%
%TO.N,LTDC_R3*%
X113250000Y-102675000D03*
%TO.P,U1,57,PB1*%
%TO.N,LTDC_R6*%
X113750000Y-102675000D03*
%TO.P,U1,58,PB2*%
%TO.N,QUADSPI_CLK*%
X114250000Y-102675000D03*
%TO.P,U1,59,PF11*%
%TO.N,FMC_SDNRAS*%
X114750000Y-102675000D03*
%TO.P,U1,60,PF12*%
%TO.N,FMC_A6*%
X115250000Y-102675000D03*
%TO.P,U1,61,VSS*%
%TO.N,GND*%
X115750000Y-102675000D03*
%TO.P,U1,62,VDD*%
%TO.N,VDD*%
X116250000Y-102675000D03*
%TO.P,U1,63,PF13*%
%TO.N,FMC_A7*%
X116750000Y-102675000D03*
%TO.P,U1,64,PF14*%
%TO.N,FMC_A8*%
X117250000Y-102675000D03*
%TO.P,U1,65,PF15*%
%TO.N,FMC_A9*%
X117750000Y-102675000D03*
%TO.P,U1,66,PG0*%
%TO.N,FMC_A10*%
X118250000Y-102675000D03*
%TO.P,U1,67,PG1*%
%TO.N,FMC_A11*%
X118750000Y-102675000D03*
%TO.P,U1,68,PE7*%
%TO.N,FMC_D4*%
X119250000Y-102675000D03*
%TO.P,U1,69,PE8*%
%TO.N,FMC_D5*%
X119750000Y-102675000D03*
%TO.P,U1,70,PE9*%
%TO.N,FMC_D6*%
X120250000Y-102675000D03*
%TO.P,U1,71,VSS*%
%TO.N,GND*%
X120750000Y-102675000D03*
%TO.P,U1,72,VDD*%
%TO.N,VDD*%
X121250000Y-102675000D03*
%TO.P,U1,73,PE10*%
%TO.N,FMC_D7*%
X121750000Y-102675000D03*
%TO.P,U1,74,PE11*%
%TO.N,FMC_D8*%
X122250000Y-102675000D03*
%TO.P,U1,75,PE12*%
%TO.N,FMC_D9*%
X122750000Y-102675000D03*
%TO.P,U1,76,PE13*%
%TO.N,FMC_D10*%
X123250000Y-102675000D03*
%TO.P,U1,77,PE14*%
%TO.N,FMC_D11*%
X123750000Y-102675000D03*
%TO.P,U1,78,PE15*%
%TO.N,FMC_D12*%
X124250000Y-102675000D03*
%TO.P,U1,79,PB10*%
%TO.N,QUADSPI_BK1_NCS*%
X124750000Y-102675000D03*
%TO.P,U1,80,PB11*%
%TO.N,LTDC_G5*%
X125250000Y-102675000D03*
%TO.P,U1,81,VCAP*%
%TO.N,Net-(C2-Pad1)*%
X125750000Y-102675000D03*
%TO.P,U1,82,VDD*%
%TO.N,VDD*%
X126250000Y-102675000D03*
%TO.P,U1,83,PH6*%
%TO.N,DOWN_SW*%
X126750000Y-102675000D03*
%TO.P,U1,84,PH7*%
%TO.N,SELECT_SW*%
X127250000Y-102675000D03*
%TO.P,U1,85,PH8*%
%TO.N,UP_SW*%
X127750000Y-102675000D03*
%TO.P,U1,86,PH9*%
%TO.N,MENU_SW*%
X128250000Y-102675000D03*
%TO.P,U1,87,PH10*%
%TO.N,LTDC_R4*%
X128750000Y-102675000D03*
%TO.P,U1,88,PH11*%
%TO.N,LTDC_R5*%
X129250000Y-102675000D03*
D50*
%TO.P,U1,89,PH12*%
%TO.N,unconnected-(U1-PH12-Pad89)*%
X131175000Y-100750000D03*
%TO.P,U1,90,VSS*%
%TO.N,GND*%
X131175000Y-100250000D03*
%TO.P,U1,91,VDD*%
%TO.N,VDD*%
X131175000Y-99750000D03*
%TO.P,U1,92,PB12*%
%TO.N,FDCAN2_RX*%
X131175000Y-99250000D03*
%TO.P,U1,93,PB13*%
%TO.N,FDCAN2_TX*%
X131175000Y-98750000D03*
%TO.P,U1,94,PB14*%
%TO.N,USART1_TX*%
X131175000Y-98250000D03*
%TO.P,U1,95,PB15*%
%TO.N,USART1_RX*%
X131175000Y-97750000D03*
%TO.P,U1,96,PD8*%
%TO.N,FMC_D13*%
X131175000Y-97250000D03*
%TO.P,U1,97,PD9*%
%TO.N,FMC_D14*%
X131175000Y-96750000D03*
%TO.P,U1,98,PD10*%
%TO.N,FMC_D15*%
X131175000Y-96250000D03*
%TO.P,U1,99,PD11*%
%TO.N,unconnected-(U1-PD11-Pad99)*%
X131175000Y-95750000D03*
%TO.P,U1,100,PD12*%
%TO.N,unconnected-(U1-PD12-Pad100)*%
X131175000Y-95250000D03*
%TO.P,U1,101,PD13*%
%TO.N,unconnected-(U1-PD13-Pad101)*%
X131175000Y-94750000D03*
%TO.P,U1,102,VSS*%
%TO.N,GND*%
X131175000Y-94250000D03*
%TO.P,U1,103,VDD*%
%TO.N,VDD*%
X131175000Y-93750000D03*
%TO.P,U1,104,PD14*%
%TO.N,FMC_D0*%
X131175000Y-93250000D03*
%TO.P,U1,105,PD15*%
%TO.N,FMC_D1*%
X131175000Y-92750000D03*
%TO.P,U1,106,PG2*%
%TO.N,unconnected-(U1-PG2-Pad106)*%
X131175000Y-92250000D03*
%TO.P,U1,107,PG3*%
%TO.N,unconnected-(U1-PG3-Pad107)*%
X131175000Y-91750000D03*
%TO.P,U1,108,PG4*%
%TO.N,FMC_BA0*%
X131175000Y-91250000D03*
%TO.P,U1,109,PG5*%
%TO.N,FMC_BA1*%
X131175000Y-90750000D03*
%TO.P,U1,110,PG6*%
%TO.N,LTDC_R7*%
X131175000Y-90250000D03*
%TO.P,U1,111,PG7*%
%TO.N,LTDC_CLK*%
X131175000Y-89750000D03*
%TO.P,U1,112,PG8*%
%TO.N,FMC_SDCLK*%
X131175000Y-89250000D03*
%TO.P,U1,113,VSS*%
%TO.N,GND*%
X131175000Y-88750000D03*
%TO.P,U1,114,VDD33_USB*%
%TO.N,VDD*%
X131175000Y-88250000D03*
%TO.P,U1,115,PC6*%
%TO.N,unconnected-(U1-PC6-Pad115)*%
X131175000Y-87750000D03*
%TO.P,U1,116,PC7*%
%TO.N,MICROSD_DET*%
X131175000Y-87250000D03*
%TO.P,U1,117,PC8*%
%TO.N,SDMMC1_D0*%
X131175000Y-86750000D03*
%TO.P,U1,118,PC9*%
%TO.N,SDMMC1_D1*%
X131175000Y-86250000D03*
%TO.P,U1,119,PA8*%
%TO.N,USART1_CK*%
X131175000Y-85750000D03*
%TO.P,U1,120,PA9*%
%TO.N,VBUS*%
X131175000Y-85250000D03*
%TO.P,U1,121,PA10*%
%TO.N,unconnected-(U1-PA10-Pad121)*%
X131175000Y-84750000D03*
%TO.P,U1,122,PA11*%
%TO.N,D-*%
X131175000Y-84250000D03*
%TO.P,U1,123,PA12*%
%TO.N,D+*%
X131175000Y-83750000D03*
%TO.P,U1,124,PA13*%
%TO.N,Net-(U1-PA13)*%
X131175000Y-83250000D03*
%TO.P,U1,125,VCAP*%
%TO.N,Net-(C2-Pad1)*%
X131175000Y-82750000D03*
%TO.P,U1,126,VSS*%
%TO.N,GND*%
X131175000Y-82250000D03*
%TO.P,U1,127,VDD*%
%TO.N,VDD*%
X131175000Y-81750000D03*
%TO.P,U1,128,PH13*%
%TO.N,FDCAN1_TX*%
X131175000Y-81250000D03*
%TO.P,U1,129,PH14*%
%TO.N,FDCAN1_RX*%
X131175000Y-80750000D03*
%TO.P,U1,130,PH15*%
%TO.N,unconnected-(U1-PH15-Pad130)*%
X131175000Y-80250000D03*
%TO.P,U1,131,PI0*%
%TO.N,unconnected-(U1-PI0-Pad131)*%
X131175000Y-79750000D03*
%TO.P,U1,132,PI1*%
%TO.N,unconnected-(U1-PI1-Pad132)*%
X131175000Y-79250000D03*
D51*
%TO.P,U1,133,PI2*%
%TO.N,unconnected-(U1-PI2-Pad133)*%
X129250000Y-77325000D03*
%TO.P,U1,134,PI3*%
%TO.N,unconnected-(U1-PI3-Pad134)*%
X128750000Y-77325000D03*
%TO.P,U1,135,VSS*%
%TO.N,GND*%
X128250000Y-77325000D03*
%TO.P,U1,136,VDD*%
%TO.N,VDD*%
X127750000Y-77325000D03*
%TO.P,U1,137,PA14*%
%TO.N,Net-(U1-PA14)*%
X127250000Y-77325000D03*
%TO.P,U1,138,PA15*%
%TO.N,unconnected-(U1-PA15-Pad138)*%
X126750000Y-77325000D03*
%TO.P,U1,139,PC10*%
%TO.N,SDMMC1_D2*%
X126250000Y-77325000D03*
%TO.P,U1,140,PC11*%
%TO.N,SDMMC1_D3*%
X125750000Y-77325000D03*
%TO.P,U1,141,PC12*%
%TO.N,SDMMC1_CK*%
X125250000Y-77325000D03*
%TO.P,U1,142,PD0*%
%TO.N,FMC_D2*%
X124750000Y-77325000D03*
%TO.P,U1,143,PD1*%
%TO.N,FMC_D3*%
X124250000Y-77325000D03*
%TO.P,U1,144,PD2*%
%TO.N,SDMMC1_CMD*%
X123750000Y-77325000D03*
%TO.P,U1,145,PD3*%
%TO.N,LTDC_G7*%
X123250000Y-77325000D03*
%TO.P,U1,146,PD4*%
%TO.N,START_OB*%
X122750000Y-77325000D03*
%TO.P,U1,147,PD5*%
%TO.N,RST_PILOTO_OB*%
X122250000Y-77325000D03*
%TO.P,U1,148,VSS*%
%TO.N,GND*%
X121750000Y-77325000D03*
%TO.P,U1,149,VDD*%
%TO.N,VDD*%
X121250000Y-77325000D03*
%TO.P,U1,150,PD6*%
%TO.N,LTDC_B2*%
X120750000Y-77325000D03*
%TO.P,U1,151,PD7*%
%TO.N,unconnected-(U1-PD7-Pad151)*%
X120250000Y-77325000D03*
%TO.P,U1,152,PG9*%
%TO.N,SPI_MISO*%
X119750000Y-77325000D03*
%TO.P,U1,153,PG10*%
%TO.N,LTDC_G3*%
X119250000Y-77325000D03*
%TO.P,U1,154,PG11*%
%TO.N,LTDC_B3*%
X118750000Y-77325000D03*
%TO.P,U1,155,PG12*%
%TO.N,LTDC_B1*%
X118250000Y-77325000D03*
%TO.P,U1,156,PG13*%
%TO.N,unconnected-(U1-PG13-Pad156)*%
X117750000Y-77325000D03*
%TO.P,U1,157,PG14*%
%TO.N,unconnected-(U1-PG14-Pad157)*%
X117250000Y-77325000D03*
%TO.P,U1,158,VSS*%
%TO.N,GND*%
X116750000Y-77325000D03*
%TO.P,U1,159,VDD*%
%TO.N,VDD*%
X116250000Y-77325000D03*
%TO.P,U1,160,PG15*%
%TO.N,FMC_SDNCAS*%
X115750000Y-77325000D03*
%TO.P,U1,161,PB3*%
%TO.N,Net-(U1-PB3)*%
X115250000Y-77325000D03*
%TO.P,U1,162,PB4*%
%TO.N,unconnected-(U1-PB4-Pad162)*%
X114750000Y-77325000D03*
%TO.P,U1,163,PB5*%
%TO.N,UART5_RX*%
X114250000Y-77325000D03*
%TO.P,U1,164,PB6*%
%TO.N,UART5_TX*%
X113750000Y-77325000D03*
%TO.P,U1,165,PB7*%
%TO.N,unconnected-(U1-PB7-Pad165)*%
X113250000Y-77325000D03*
%TO.P,U1,166,BOOT0*%
%TO.N,Net-(U1-BOOT0)*%
X112750000Y-77325000D03*
%TO.P,U1,167,PB8*%
%TO.N,unconnected-(U1-PB8-Pad167)*%
X112250000Y-77325000D03*
%TO.P,U1,168,PB9*%
%TO.N,LTDC_B7*%
X111750000Y-77325000D03*
%TO.P,U1,169,PE0*%
%TO.N,FMC_NBL0*%
X111250000Y-77325000D03*
%TO.P,U1,170,PE1*%
%TO.N,FMC_NBL1*%
X110750000Y-77325000D03*
%TO.P,U1,171,PDR_ON*%
%TO.N,unconnected-(U1-PDR_ON-Pad171)*%
X110250000Y-77325000D03*
%TO.P,U1,172,VDD*%
%TO.N,VDD*%
X109750000Y-77325000D03*
%TO.P,U1,173,PI4*%
%TO.N,LTDC_B4*%
X109250000Y-77325000D03*
%TO.P,U1,174,PI5*%
%TO.N,SPI_IRQ*%
X108750000Y-77325000D03*
%TO.P,U1,175,PI6*%
%TO.N,LTDC_B6*%
X108250000Y-77325000D03*
%TO.P,U1,176,PI7*%
%TO.N,unconnected-(U1-PI7-Pad176)*%
X107750000Y-77325000D03*
%TD*%
D17*
%TO.P,R51,1*%
%TO.N,Net-(Q7-G)*%
X152037500Y-132250000D03*
%TO.P,R51,2*%
%TO.N,TS_OFF*%
X154962500Y-132250000D03*
%TD*%
D26*
%TO.P,H2,1,1*%
%TO.N,GND*%
X160250000Y-136250000D03*
D27*
X160250000Y-136250000D03*
%TD*%
D35*
%TO.P,R42,1*%
%TO.N,GND*%
X157000000Y-114437500D03*
%TO.P,R42,2*%
%TO.N,BMS_OK*%
X157000000Y-111512500D03*
%TD*%
D20*
%TO.P,C27,1*%
%TO.N,GND*%
X135250000Y-91962500D03*
%TO.P,C27,2*%
%TO.N,VDD*%
X135250000Y-94037500D03*
%TD*%
D13*
%TO.P,C11,1*%
%TO.N,VDD*%
X115537500Y-106000000D03*
%TO.P,C11,2*%
%TO.N,GND*%
X113462500Y-106000000D03*
%TD*%
D20*
%TO.P,C29,1*%
%TO.N,+24V*%
X102225000Y-48200000D03*
%TO.P,C29,2*%
%TO.N,GND*%
X102225000Y-50275000D03*
%TD*%
%TO.P,C20,1*%
%TO.N,VDD*%
X132750000Y-118212500D03*
%TO.P,C20,2*%
%TO.N,GND*%
X132750000Y-120287500D03*
%TD*%
D14*
%TO.P,R21,1*%
%TO.N,CANH2*%
X138250000Y-65750000D03*
%TO.P,R21,2*%
%TO.N,CANL2*%
X140250000Y-65750000D03*
%TD*%
D18*
%TO.P,R19,1*%
%TO.N,VDD*%
X157324500Y-56574500D03*
%TO.P,R19,2*%
%TO.N,MICROSD_DET*%
X157324500Y-58574500D03*
%TD*%
D15*
%TO.P,C14,1*%
%TO.N,VDD*%
X139712500Y-99500000D03*
%TO.P,C14,2*%
%TO.N,GND*%
X141787500Y-99500000D03*
%TD*%
D52*
%TO.P,D6,1,K*%
%TO.N,N_RTDS*%
X131000000Y-133437500D03*
%TO.P,D6,2,A*%
%TO.N,+24V*%
X131000000Y-135487500D03*
%TD*%
D28*
%TO.P,C4,1*%
%TO.N,Net-(C2-Pad1)*%
X142000000Y-104000000D03*
%TO.P,C4,2*%
%TO.N,GND*%
X142000000Y-101925000D03*
%TD*%
D26*
%TO.P,H4,1,1*%
%TO.N,GND*%
X70750000Y-136250000D03*
D27*
X70750000Y-136250000D03*
%TD*%
D18*
%TO.P,R24,1*%
%TO.N,Net-(D3-K)*%
X86250000Y-117750000D03*
%TO.P,R24,2*%
%TO.N,GND*%
X86250000Y-119750000D03*
%TD*%
D53*
%TO.P,J1,1,1*%
%TO.N,VDD*%
X96660000Y-133000000D03*
D54*
%TO.P,J1,2,2*%
%TO.N,MENU_SW*%
X93660000Y-133000000D03*
%TO.P,J1,3,3*%
%TO.N,UP_SW*%
X90660000Y-133000000D03*
%TO.P,J1,4,4*%
%TO.N,DOWN_SW*%
X87660000Y-133000000D03*
%TO.P,J1,5,5*%
%TO.N,SELECT_SW*%
X84660000Y-133000000D03*
%TO.P,J1,6,6*%
%TO.N,START*%
X81660000Y-133000000D03*
%TO.P,J1,7,7*%
%TO.N,+5V*%
X96660000Y-130000000D03*
%TO.P,J1,8,8*%
%TO.N,RST_PILOTO*%
X93660000Y-130000000D03*
%TO.P,J1,9,9*%
%TO.N,unconnected-(J1-Pad9)*%
X90660000Y-130000000D03*
%TO.P,J1,10,10*%
%TO.N,unconnected-(J1-Pad10)*%
X87660000Y-130000000D03*
%TO.P,J1,11,11*%
%TO.N,unconnected-(J1-Pad11)*%
X84660000Y-130000000D03*
%TO.P,J1,12,12*%
%TO.N,unconnected-(J1-Pad12)*%
X81660000Y-130000000D03*
%TD*%
D20*
%TO.P,C21,1*%
%TO.N,VDD*%
X101750000Y-114712500D03*
%TO.P,C21,2*%
%TO.N,GND*%
X101750000Y-116787500D03*
%TD*%
%TO.P,C25,1*%
%TO.N,GND*%
X109750000Y-70675000D03*
%TO.P,C25,2*%
%TO.N,VDD*%
X109750000Y-72750000D03*
%TD*%
D14*
%TO.P,R8,1*%
%TO.N,SDMMC1_D2*%
X146387500Y-76365000D03*
%TO.P,R8,2*%
%TO.N,Net-(J4-DAT2)*%
X148387500Y-76365000D03*
%TD*%
D30*
%TO.P,SW2,1,1*%
%TO.N,Net-(R7-Pad1)*%
X126450000Y-67000000D03*
%TO.P,SW2,2,2*%
%TO.N,NRST*%
X123050000Y-67000000D03*
%TD*%
D17*
%TO.P,R44,1*%
%TO.N,Net-(Q1-D)*%
X156500000Y-118500000D03*
%TO.P,R44,2*%
%TO.N,+5V*%
X159425000Y-118500000D03*
%TD*%
D15*
%TO.P,C35,1*%
%TO.N,Net-(U8-CB)*%
X83675000Y-46500000D03*
%TO.P,C35,2*%
%TO.N,Net-(U8-SW)*%
X85750000Y-46500000D03*
%TD*%
D22*
%TO.P,R29,1*%
%TO.N,GND*%
X80500000Y-72500000D03*
%TO.P,R29,2*%
%TO.N,Net-(U7-FB)*%
X80500000Y-70500000D03*
%TD*%
D18*
%TO.P,R15,1*%
%TO.N,VDD*%
X159824500Y-56574500D03*
%TO.P,R15,2*%
%TO.N,Net-(J4-DAT3{slash}CD)*%
X159824500Y-58574500D03*
%TD*%
D55*
%TO.P,J3,1,1*%
%TO.N,GND*%
X73000000Y-83250000D03*
%TO.P,J3,2,2*%
%TO.N,LED+*%
X73000000Y-83750000D03*
%TO.P,J3,3,3*%
%TO.N,GND*%
X73000000Y-84250000D03*
%TO.P,J3,4,4*%
%TO.N,VDD*%
X73000000Y-84750000D03*
%TO.P,J3,5,5*%
%TO.N,LTDC_R0*%
X73000000Y-85250000D03*
%TO.P,J3,6,6*%
%TO.N,LTDC_R1*%
X73000000Y-85750000D03*
%TO.P,J3,7,7*%
%TO.N,LTDC_R2*%
X73000000Y-86250000D03*
%TO.P,J3,8,8*%
%TO.N,LTDC_R3*%
X73000000Y-86750000D03*
%TO.P,J3,9,9*%
%TO.N,LTDC_R4*%
X73000000Y-87250000D03*
%TO.P,J3,10,10*%
%TO.N,LTDC_R5*%
X73000000Y-87750000D03*
%TO.P,J3,11,11*%
%TO.N,LTDC_R6*%
X73000000Y-88250000D03*
%TO.P,J3,12,12*%
%TO.N,LTDC_R7*%
X73000000Y-88750000D03*
%TO.P,J3,13,13*%
%TO.N,LTDC_G0*%
X73000000Y-89250000D03*
%TO.P,J3,14,14*%
%TO.N,LTDC_G1*%
X73000000Y-89750000D03*
%TO.P,J3,15,15*%
%TO.N,LTDC_G2*%
X73000000Y-90250000D03*
%TO.P,J3,16,16*%
%TO.N,LTDC_G3*%
X73000000Y-90750000D03*
%TO.P,J3,17,17*%
%TO.N,LTDC_G4*%
X73000000Y-91250000D03*
%TO.P,J3,18,18*%
%TO.N,LTDC_G5*%
X73000000Y-91750000D03*
%TO.P,J3,19,19*%
%TO.N,LTDC_G6*%
X73000000Y-92250000D03*
%TO.P,J3,20,20*%
%TO.N,LTDC_G7*%
X73000000Y-92750000D03*
%TO.P,J3,21,21*%
%TO.N,LTDC_B0*%
X73000000Y-93250000D03*
%TO.P,J3,22,22*%
%TO.N,LTDC_B1*%
X73000000Y-93750000D03*
%TO.P,J3,23,23*%
%TO.N,LTDC_B2*%
X73000000Y-94250000D03*
%TO.P,J3,24,24*%
%TO.N,LTDC_B3*%
X73000000Y-94750000D03*
%TO.P,J3,25,25*%
%TO.N,LTDC_B4*%
X73000000Y-95250000D03*
%TO.P,J3,26,26*%
%TO.N,LTDC_B5*%
X73000000Y-95750000D03*
%TO.P,J3,27,27*%
%TO.N,LTDC_B6*%
X73000000Y-96250000D03*
%TO.P,J3,28,28*%
%TO.N,LTDC_B7*%
X73000000Y-96750000D03*
%TO.P,J3,29,29*%
%TO.N,GND*%
X73000000Y-97250000D03*
%TO.P,J3,30,30*%
%TO.N,LTDC_CLK*%
X73000000Y-97750000D03*
%TO.P,J3,31,31*%
%TO.N,LTDC_STDBY*%
X73000000Y-98250000D03*
%TO.P,J3,32,32*%
%TO.N,LTDC_HSYNC*%
X73000000Y-98750000D03*
%TO.P,J3,33,33*%
%TO.N,LTDC_VSYNC*%
X73000000Y-99250000D03*
%TO.P,J3,34,34*%
%TO.N,LTDC_DE*%
X73000000Y-99750000D03*
%TO.P,J3,35,35*%
%TO.N,unconnected-(J3-Pad35)*%
X73000000Y-100250000D03*
%TO.P,J3,36,36*%
%TO.N,GND*%
X73000000Y-100750000D03*
%TO.P,J3,37,37*%
%TO.N,unconnected-(J3-Pad37)*%
X73000000Y-101250000D03*
%TO.P,J3,38,38*%
%TO.N,unconnected-(J3-Pad38)*%
X73000000Y-101750000D03*
%TO.P,J3,39,39*%
%TO.N,unconnected-(J3-Pad39)*%
X73000000Y-102250000D03*
%TO.P,J3,40,40*%
%TO.N,unconnected-(J3-Pad40)*%
X73000000Y-102750000D03*
D56*
%TO.P,J3,SH1,SH1*%
%TO.N,GND*%
X69900000Y-81150000D03*
D57*
%TO.P,J3,SH2,SH2*%
X69900000Y-104850000D03*
%TD*%
D28*
%TO.P,C31,1*%
%TO.N,VIN*%
X87740000Y-39600000D03*
%TO.P,C31,2*%
%TO.N,GND*%
X87740000Y-37525000D03*
%TD*%
D26*
%TO.P,H1,1,1*%
%TO.N,GND*%
X160250000Y-39500000D03*
D27*
X160250000Y-39500000D03*
%TD*%
D58*
%TO.P,D5,1,K*%
%TO.N,LED+*%
X77000000Y-61500000D03*
%TO.P,D5,2,A*%
%TO.N,Net-(D5-A)*%
X81000000Y-61500000D03*
%TD*%
D53*
%TO.P,J19,1,1*%
%TO.N,VDD*%
X122160000Y-132930000D03*
D54*
%TO.P,J19,2,2*%
%TO.N,N_RTDS*%
X119160000Y-132930000D03*
%TO.P,J19,3,3*%
%TO.N,BMS_LED-*%
X116160000Y-132930000D03*
%TO.P,J19,4,4*%
%TO.N,IMD_LED-*%
X113160000Y-132930000D03*
%TO.P,J19,5,5*%
%TO.N,TS_OFF_LED-*%
X110160000Y-132930000D03*
%TO.P,J19,6,6*%
%TO.N,unconnected-(J19-Pad6)*%
X107160000Y-132930000D03*
%TO.P,J19,7,7*%
%TO.N,+5V*%
X122160000Y-129930000D03*
%TO.P,J19,8,8*%
%TO.N,unconnected-(J19-Pad8)*%
X119160000Y-129930000D03*
%TO.P,J19,9,9*%
%TO.N,unconnected-(J19-Pad9)*%
X116160000Y-129930000D03*
%TO.P,J19,10,10*%
%TO.N,unconnected-(J19-Pad10)*%
X113160000Y-129930000D03*
%TO.P,J19,11,11*%
%TO.N,unconnected-(J19-Pad11)*%
X110160000Y-129930000D03*
%TO.P,J19,12,12*%
%TO.N,GND*%
X107160000Y-129930000D03*
%TD*%
D59*
%TO.P,L3,1,1*%
%TO.N,Net-(U8-SW)*%
X92000000Y-48025000D03*
%TO.P,L3,2,2*%
%TO.N,+5V*%
X92000000Y-53475000D03*
%TD*%
D18*
%TO.P,R38,1*%
%TO.N,VIN*%
X93000000Y-42275000D03*
%TO.P,R38,2*%
%TO.N,Net-(U8-EN)*%
X93000000Y-44275000D03*
%TD*%
D23*
%TO.P,Q6,1,G*%
%TO.N,Net-(Q6-G)*%
X133700000Y-128850000D03*
%TO.P,Q6,2,S*%
%TO.N,GND*%
X131800000Y-128850000D03*
%TO.P,Q6,3,D*%
%TO.N,N_RTDS*%
X132750000Y-130725000D03*
%TD*%
D14*
%TO.P,R7,1*%
%TO.N,Net-(R7-Pad1)*%
X128750000Y-67250000D03*
%TO.P,R7,2*%
%TO.N,GND*%
X130750000Y-67250000D03*
%TD*%
D16*
%TO.P,R17,1*%
%TO.N,VDD*%
X162300000Y-65115000D03*
%TO.P,R17,2*%
%TO.N,Net-(J4-DAT0)*%
X160300000Y-65115000D03*
%TD*%
D17*
%TO.P,R46,1*%
%TO.N,Net-(Q3-G)*%
X137787500Y-111712500D03*
%TO.P,R46,2*%
%TO.N,IMD_OK*%
X140712500Y-111712500D03*
%TD*%
D18*
%TO.P,R26,1*%
%TO.N,VDD*%
X112750000Y-70500000D03*
%TO.P,R26,2*%
%TO.N,VREF*%
X112750000Y-72500000D03*
%TD*%
D60*
%TO.P,U7,1,SW*%
%TO.N,Net-(D5-A)*%
X82112500Y-66625000D03*
%TO.P,U7,2,GND*%
%TO.N,GND*%
X82112500Y-67575000D03*
%TO.P,U7,3,FB*%
%TO.N,Net-(U7-FB)*%
X82112500Y-68525000D03*
%TO.P,U7,4,EN*%
%TO.N,+5V*%
X84387500Y-68525000D03*
%TO.P,U7,5,IN*%
X84387500Y-67575000D03*
%TO.P,U7,6,NC*%
%TO.N,unconnected-(U7-NC-Pad6)*%
X84387500Y-66625000D03*
%TD*%
D61*
%TO.P,U2,1,VDD*%
%TO.N,VDD*%
X129999999Y-110259600D03*
%TO.P,U2,2,DQ0*%
%TO.N,FMC_D0*%
X129199998Y-110259600D03*
%TO.P,U2,3,VDDQ*%
%TO.N,VDD*%
X128399999Y-110259600D03*
%TO.P,U2,4,DQ1*%
%TO.N,FMC_D1*%
X127599998Y-110259600D03*
%TO.P,U2,5,DQ2*%
%TO.N,FMC_D2*%
X126800000Y-110259600D03*
%TO.P,U2,6,GNDQ*%
%TO.N,GND*%
X125999999Y-110259600D03*
%TO.P,U2,7,DQ3*%
%TO.N,FMC_D3*%
X125199998Y-110259600D03*
%TO.P,U2,8,DQ4*%
%TO.N,FMC_D4*%
X124400000Y-110259600D03*
%TO.P,U2,9,VDDQ*%
%TO.N,VDD*%
X123599999Y-110259600D03*
%TO.P,U2,10,DQ5*%
%TO.N,FMC_D5*%
X122800000Y-110259600D03*
%TO.P,U2,11,DQ6*%
%TO.N,FMC_D6*%
X121999999Y-110259600D03*
%TO.P,U2,12,GNDQ*%
%TO.N,GND*%
X121199998Y-110259600D03*
%TO.P,U2,13,DQ7*%
%TO.N,FMC_D7*%
X120400000Y-110259600D03*
%TO.P,U2,14,VDD*%
%TO.N,VDD*%
X119599999Y-110259600D03*
%TO.P,U2,15,LDQM*%
%TO.N,FMC_NBL0*%
X118800001Y-110259600D03*
%TO.P,U2,16,WE*%
%TO.N,FMC_SDNWE*%
X118000000Y-110259600D03*
%TO.P,U2,17,CAS*%
%TO.N,FMC_SDNCAS*%
X117199999Y-110259600D03*
%TO.P,U2,18,RAS*%
%TO.N,FMC_SDNRAS*%
X116400000Y-110259600D03*
%TO.P,U2,19,CS*%
%TO.N,FMC_SDNE0*%
X115599999Y-110259600D03*
%TO.P,U2,20,BA0*%
%TO.N,FMC_BA0*%
X114800001Y-110259600D03*
%TO.P,U2,21,BA1*%
%TO.N,FMC_BA1*%
X114000000Y-110259600D03*
%TO.P,U2,22,A10*%
%TO.N,FMC_A10*%
X113199999Y-110259600D03*
%TO.P,U2,23,A0*%
%TO.N,FMC_A0*%
X112400001Y-110259600D03*
%TO.P,U2,24,A1*%
%TO.N,FMC_A1*%
X111600000Y-110259600D03*
%TO.P,U2,25,A2*%
%TO.N,FMC_A2*%
X110800001Y-110259600D03*
%TO.P,U2,26,A3*%
%TO.N,FMC_A3*%
X110000000Y-110259600D03*
%TO.P,U2,27,VDD*%
%TO.N,VDD*%
X109199999Y-110259600D03*
%TO.P,U2,28,GND*%
%TO.N,GND*%
X109199999Y-121740400D03*
%TO.P,U2,29,A4*%
%TO.N,FMC_A4*%
X110000000Y-121740400D03*
%TO.P,U2,30,A5*%
%TO.N,FMC_A5*%
X110799999Y-121740400D03*
%TO.P,U2,31,A6*%
%TO.N,FMC_A6*%
X111600000Y-121740400D03*
%TO.P,U2,32,A7*%
%TO.N,FMC_A7*%
X112399998Y-121740400D03*
%TO.P,U2,33,A8*%
%TO.N,FMC_A8*%
X113199999Y-121740400D03*
%TO.P,U2,34,A9*%
%TO.N,FMC_A9*%
X114000000Y-121740400D03*
%TO.P,U2,35,A11*%
%TO.N,FMC_A11*%
X114799998Y-121740400D03*
%TO.P,U2,36,NC*%
%TO.N,unconnected-(U2-NC-Pad36)*%
X115599999Y-121740400D03*
%TO.P,U2,37,CKE*%
%TO.N,FMC_SDCKE0*%
X116399998Y-121740400D03*
%TO.P,U2,38,CLK*%
%TO.N,FMC_SDCLK*%
X117199999Y-121740400D03*
%TO.P,U2,39,UDQM*%
%TO.N,FMC_NBL1*%
X118000000Y-121740400D03*
%TO.P,U2,40,NC*%
%TO.N,unconnected-(U2-NC-Pad40)*%
X118799998Y-121740400D03*
%TO.P,U2,41,GND*%
%TO.N,GND*%
X119599999Y-121740400D03*
%TO.P,U2,42,DQ8*%
%TO.N,FMC_D8*%
X120399997Y-121740400D03*
%TO.P,U2,43,VDDQ*%
%TO.N,VDD*%
X121199998Y-121740400D03*
%TO.P,U2,44,DQ9*%
%TO.N,FMC_D9*%
X121999999Y-121740400D03*
%TO.P,U2,45,DQ10*%
%TO.N,FMC_D10*%
X122799998Y-121740400D03*
%TO.P,U2,46,GNDQ*%
%TO.N,GND*%
X123599999Y-121740400D03*
%TO.P,U2,47,DQ11*%
%TO.N,FMC_D11*%
X124399997Y-121740400D03*
%TO.P,U2,48,DQ12*%
%TO.N,FMC_D12*%
X125199998Y-121740400D03*
%TO.P,U2,49,VDDQ*%
%TO.N,VDD*%
X125999999Y-121740400D03*
%TO.P,U2,50,DQ13*%
%TO.N,FMC_D13*%
X126799997Y-121740400D03*
%TO.P,U2,51,DQ14*%
%TO.N,FMC_D14*%
X127599998Y-121740400D03*
%TO.P,U2,52,GNDQ*%
%TO.N,GND*%
X128399997Y-121740400D03*
%TO.P,U2,53,DQ15*%
%TO.N,FMC_D15*%
X129199998Y-121740400D03*
%TO.P,U2,54,GND*%
%TO.N,GND*%
X129999999Y-121740400D03*
%TD*%
D13*
%TO.P,C28,1*%
%TO.N,LED+*%
X78000000Y-73000000D03*
%TO.P,C28,2*%
%TO.N,GND*%
X75925000Y-73000000D03*
%TD*%
%TO.P,C38,1*%
%TO.N,+5V*%
X85825000Y-51250000D03*
%TO.P,C38,2*%
%TO.N,GND*%
X83750000Y-51250000D03*
%TD*%
D62*
%TO.P,U3,1,TXD*%
%TO.N,FDCAN1_TX*%
X135845000Y-83225000D03*
%TO.P,U3,2,GND*%
%TO.N,GND*%
X137115000Y-83225000D03*
%TO.P,U3,3,VCC*%
%TO.N,VDD*%
X138385000Y-83225000D03*
%TO.P,U3,4,RXD*%
%TO.N,FDCAN1_RX*%
X139655000Y-83225000D03*
%TO.P,U3,5,SHDN*%
%TO.N,unconnected-(U3-SHDN-Pad5)*%
X139655000Y-78275000D03*
%TO.P,U3,6,CANL*%
%TO.N,CANL1*%
X138385000Y-78275000D03*
%TO.P,U3,7,CANH*%
%TO.N,CANH1*%
X137115000Y-78275000D03*
%TO.P,U3,8,S*%
%TO.N,unconnected-(U3-S-Pad8)*%
X135845000Y-78275000D03*
%TD*%
D17*
%TO.P,R49,1*%
%TO.N,GND*%
X152075000Y-128250000D03*
%TO.P,R49,2*%
%TO.N,TS_OFF*%
X155000000Y-128250000D03*
%TD*%
D16*
%TO.P,R54,1*%
%TO.N,RST_PILOTO*%
X124750000Y-57000000D03*
%TO.P,R54,2*%
%TO.N,RST_PILOTO_OB*%
X122750000Y-57000000D03*
%TD*%
D18*
%TO.P,R3,1*%
%TO.N,Net-(J17-CC2)*%
X145500000Y-97000000D03*
%TO.P,R3,2*%
%TO.N,GND*%
X145500000Y-99000000D03*
%TD*%
D38*
%TO.P,R32,1*%
%TO.N,D-*%
X143337500Y-89500000D03*
%TO.P,R32,2*%
%TO.N,Net-(J17-D--PadA7)*%
X145162500Y-89500000D03*
%TD*%
D14*
%TO.P,R9,1*%
%TO.N,SDMMC1_D3*%
X146387500Y-74365000D03*
%TO.P,R9,2*%
%TO.N,Net-(J4-DAT3{slash}CD)*%
X148387500Y-74365000D03*
%TD*%
D18*
%TO.P,R37,1*%
%TO.N,Net-(U7-FB)*%
X83000000Y-70500000D03*
%TO.P,R37,2*%
%TO.N,LED+*%
X83000000Y-72500000D03*
%TD*%
D19*
%TO.P,RS1,1*%
%TO.N,Net-(Q2-D)*%
X158250000Y-123250000D03*
%TO.P,RS1,2*%
%TO.N,BMS_LED-*%
X158250000Y-126175000D03*
%TD*%
D28*
%TO.P,C6,1*%
%TO.N,Net-(C2-Pad1)*%
X134500000Y-104075000D03*
%TO.P,C6,2*%
%TO.N,GND*%
X134500000Y-102000000D03*
%TD*%
D62*
%TO.P,U4,1,TXD*%
%TO.N,FDCAN2_TX*%
X137345000Y-96475000D03*
%TO.P,U4,2,GND*%
%TO.N,GND*%
X138615000Y-96475000D03*
%TO.P,U4,3,VCC*%
%TO.N,VDD*%
X139885000Y-96475000D03*
%TO.P,U4,4,RXD*%
%TO.N,FDCAN2_RX*%
X141155000Y-96475000D03*
%TO.P,U4,5,SHDN*%
%TO.N,unconnected-(U4-SHDN-Pad5)*%
X141155000Y-91525000D03*
%TO.P,U4,6,CANL*%
%TO.N,CANL2*%
X139885000Y-91525000D03*
%TO.P,U4,7,CANH*%
%TO.N,CANH2*%
X138615000Y-91525000D03*
%TO.P,U4,8,S*%
%TO.N,unconnected-(U4-S-Pad8)*%
X137345000Y-91525000D03*
%TD*%
D63*
%TO.P,J18,1,1*%
%TO.N,BMS_OK*%
X140250000Y-46350000D03*
%TO.P,J18,2,2*%
%TO.N,IMD_OK*%
X136250000Y-46350000D03*
%TO.P,J18,3,3*%
%TO.N,TS_OFF*%
X132250000Y-46350000D03*
%TO.P,J18,4,4*%
%TO.N,RST_PILOTO*%
X128250000Y-46350000D03*
%TO.P,J18,5,5*%
%TO.N,CANH1*%
X124250000Y-46350000D03*
%TO.P,J18,6,6*%
%TO.N,CANL1*%
X138250000Y-42350000D03*
%TO.P,J18,7,7*%
%TO.N,+24V*%
X134250000Y-42350000D03*
%TO.P,J18,8,8*%
%TO.N,GND*%
X130250000Y-42350000D03*
%TO.P,J18,9,9*%
%TO.N,RTDS*%
X126250000Y-42350000D03*
%TO.P,J18,10,10*%
%TO.N,START*%
X140250000Y-38350000D03*
%TO.P,J18,11,11*%
%TO.N,CANL2*%
X136250000Y-38350000D03*
%TO.P,J18,12,12*%
%TO.N,CANH2*%
X132250000Y-38350000D03*
%TO.P,J18,13,13*%
%TO.N,GND*%
X128250000Y-38350000D03*
%TO.P,J18,14,14*%
%TO.N,+24V*%
X124250000Y-38350000D03*
D64*
%TO.P,J18,15*%
%TO.N,N/C*%
X146750000Y-41850000D03*
%TO.P,J18,16*%
X117750000Y-41850000D03*
%TD*%
D14*
%TO.P,R6,1*%
%TO.N,Net-(U1-PA14)*%
X152825000Y-100420000D03*
%TO.P,R6,2*%
%TO.N,SWCLK*%
X154825000Y-100420000D03*
%TD*%
%TO.P,R2,1*%
%TO.N,NRST*%
X127750000Y-70000000D03*
%TO.P,R2,2*%
%TO.N,Net-(U1-NRST)*%
X129750000Y-70000000D03*
%TD*%
D20*
%TO.P,C24,1*%
%TO.N,GND*%
X115250000Y-70500000D03*
%TO.P,C24,2*%
%TO.N,VREF*%
X115250000Y-72575000D03*
%TD*%
D13*
%TO.P,C22,1*%
%TO.N,VDD*%
X127287500Y-106500000D03*
%TO.P,C22,2*%
%TO.N,GND*%
X125212500Y-106500000D03*
%TD*%
D22*
%TO.P,R40,1*%
%TO.N,Net-(C40-Pad1)*%
X78500000Y-46250000D03*
%TO.P,R40,2*%
%TO.N,Net-(U8-FB)*%
X78500000Y-44250000D03*
%TD*%
D34*
%TO.P,C41,1*%
%TO.N,BMS_OK*%
X161250000Y-111687500D03*
%TO.P,C41,2*%
%TO.N,GND*%
X161250000Y-114637500D03*
%TD*%
D16*
%TO.P,R39,1*%
%TO.N,+5V*%
X85750000Y-48750000D03*
%TO.P,R39,2*%
%TO.N,Net-(C40-Pad1)*%
X83750000Y-48750000D03*
%TD*%
D31*
%TO.P,Q1,1,G*%
%TO.N,Net-(Q1-G)*%
X152312500Y-115237500D03*
%TO.P,Q1,2,S*%
%TO.N,GND*%
X152312500Y-117137500D03*
%TO.P,Q1,3,D*%
%TO.N,Net-(Q1-D)*%
X154187500Y-116187500D03*
%TD*%
D46*
%TO.P,C44,1*%
%TO.N,TS_OFF*%
X153000000Y-136250000D03*
%TO.P,C44,2*%
%TO.N,GND*%
X150050000Y-136250000D03*
%TD*%
D65*
%TO.P,J17,A1,GND*%
%TO.N,GND*%
X156900000Y-91350000D03*
%TO.P,J17,A4,VBUS*%
%TO.N,Net-(D1-A)*%
X156900000Y-90500000D03*
%TO.P,J17,A5,CC1*%
%TO.N,Net-(J17-CC1)*%
X156900000Y-89650000D03*
%TO.P,J17,A6,D+*%
%TO.N,Net-(J17-D+-PadA6)*%
X156900000Y-88800000D03*
%TO.P,J17,A7,D-*%
%TO.N,Net-(J17-D--PadA7)*%
X156900000Y-87950000D03*
%TO.P,J17,A8,SBU1*%
%TO.N,unconnected-(J17-SBU1-PadA8)*%
X156900000Y-87100000D03*
%TO.P,J17,A9,VBUS*%
%TO.N,Net-(D1-A)*%
X156900000Y-86250000D03*
%TO.P,J17,A12,GND*%
%TO.N,GND*%
X156900000Y-85400000D03*
%TO.P,J17,B1,GND*%
X158250000Y-85400000D03*
%TO.P,J17,B4,VBUS*%
%TO.N,Net-(D1-A)*%
X158250000Y-86250000D03*
%TO.P,J17,B5,CC2*%
%TO.N,Net-(J17-CC2)*%
X158250000Y-87100000D03*
%TO.P,J17,B6,D+*%
%TO.N,Net-(J17-D+-PadA6)*%
X158250000Y-87950000D03*
%TO.P,J17,B7,D-*%
%TO.N,Net-(J17-D--PadA7)*%
X158250000Y-88800000D03*
%TO.P,J17,B8,SBU2*%
%TO.N,unconnected-(J17-SBU2-PadB8)*%
X158250000Y-89650000D03*
%TO.P,J17,B9,VBUS*%
%TO.N,Net-(D1-A)*%
X158250000Y-90500000D03*
%TO.P,J17,B12,GND*%
%TO.N,GND*%
X158250000Y-91350000D03*
D66*
%TO.P,J17,S1,SHIELD*%
X157880000Y-92700000D03*
D67*
X161260000Y-92700000D03*
D66*
X157880000Y-84050000D03*
D67*
X161260000Y-84050000D03*
%TD*%
D45*
%TO.P,L1,1,1*%
%TO.N,+5V*%
X90500000Y-61500000D03*
%TO.P,L1,2,2*%
%TO.N,Net-(D5-A)*%
X85050000Y-61500000D03*
%TD*%
D68*
%TO.N,QUADSPI_BK1_NCS*%
X104050000Y-85000000D03*
X107500000Y-85000000D03*
X122000000Y-87000000D03*
X122500000Y-99000000D03*
%TO.N,VDD*%
X112750000Y-69250000D03*
X104250000Y-89000000D03*
X161824500Y-55324500D03*
X121000000Y-120500000D03*
X108899000Y-100500000D03*
X127500000Y-62000000D03*
X117000000Y-78950000D03*
X124500000Y-124000000D03*
X129500000Y-93250000D03*
D69*
X161651000Y-66500000D03*
D68*
X96000000Y-78500000D03*
X131000000Y-106500000D03*
X120000000Y-73700000D03*
X121500000Y-79000000D03*
X87500000Y-73000000D03*
X101000000Y-123250000D03*
X109500000Y-79050000D03*
X131750000Y-110750000D03*
X89100000Y-82101000D03*
X110250000Y-86000000D03*
X120113909Y-112163909D03*
X157324500Y-55574500D03*
D69*
X161700000Y-61700000D03*
D68*
X133250000Y-88500000D03*
X132613910Y-99886089D03*
X129500000Y-81250000D03*
X159574500Y-55324500D03*
X107190000Y-56500000D03*
X109750000Y-73962500D03*
X139500000Y-98000000D03*
X130000000Y-111500000D03*
X108899000Y-98000000D03*
X148250000Y-84000000D03*
X127750000Y-78750000D03*
X103450000Y-96899999D03*
X108899000Y-111500000D03*
X117000000Y-101050000D03*
X158000000Y-67000000D03*
X158250000Y-64000000D03*
X122000000Y-101000000D03*
X138500000Y-84500000D03*
X137500000Y-89000000D03*
X102812500Y-66586250D03*
X161387500Y-75615000D03*
X99462500Y-69786250D03*
X126000000Y-120500000D03*
%TO.N,QUADSPI_BK1_IO0*%
X103000000Y-90500000D03*
X102500000Y-81000000D03*
%TO.N,QUADSPI_BK1_IO3*%
X103481997Y-89221225D03*
X103500000Y-79500000D03*
%TO.N,QUADSPI_CLK*%
X101500000Y-108000000D03*
X99500000Y-81500000D03*
%TO.N,GND*%
X128750000Y-80500000D03*
D69*
X87500000Y-71250000D03*
D68*
X138250000Y-98000000D03*
D69*
X87500000Y-69875002D03*
D68*
X160637500Y-77615000D03*
X130250000Y-116250000D03*
X161250000Y-116000000D03*
X119500000Y-120500000D03*
X121750000Y-80250000D03*
X108899000Y-101330737D03*
X108871475Y-120378525D03*
X128450000Y-120500000D03*
X100750000Y-52250000D03*
X131950000Y-127600000D03*
X95000000Y-69750000D03*
X107250000Y-90250000D03*
X149750000Y-128500000D03*
X153387500Y-70615000D03*
X145500000Y-105250000D03*
X98250000Y-71586250D03*
X93750000Y-36500000D03*
X82500000Y-56250000D03*
D69*
X88500000Y-70575000D03*
D68*
X148750000Y-136250000D03*
X153750000Y-120000000D03*
X75687500Y-74500000D03*
X80500000Y-73500000D03*
D69*
X88500000Y-71250000D03*
D68*
X120000000Y-69250000D03*
X90750000Y-36500000D03*
D69*
X89500000Y-71250000D03*
D68*
X117750000Y-69250000D03*
X128750000Y-93750000D03*
X99250000Y-51750000D03*
X72000000Y-106000000D03*
X97500000Y-92000000D03*
X123530332Y-120530332D03*
X97500000Y-96000000D03*
X132700003Y-100750000D03*
X92500000Y-69750000D03*
X134500000Y-101000000D03*
X130000000Y-120500000D03*
X142250000Y-115750000D03*
X132700000Y-133600000D03*
X132700000Y-137350000D03*
X74500000Y-97000000D03*
X120750000Y-108250000D03*
X125500000Y-112500000D03*
X149000000Y-99000000D03*
X151250000Y-128250000D03*
X103000000Y-97500000D03*
X75000000Y-101500000D03*
X115250000Y-69250000D03*
X153500000Y-67250000D03*
X103033395Y-94633579D03*
X135250000Y-90999000D03*
X109750000Y-69462500D03*
X89250000Y-45500000D03*
X89750000Y-72549000D03*
X118000000Y-55750000D03*
X78750000Y-37250000D03*
X129250000Y-88500000D03*
X87000000Y-44250000D03*
X116200000Y-47900000D03*
X87750000Y-36500000D03*
X99250000Y-55250000D03*
X155250000Y-65000000D03*
X121236091Y-67263909D03*
X155750000Y-114500000D03*
X117000000Y-80050000D03*
X80750000Y-67750000D03*
D69*
X88500000Y-69875002D03*
D68*
X70971475Y-78471475D03*
X74613909Y-83713909D03*
X86750000Y-121250000D03*
X139500000Y-101000000D03*
X139250000Y-119000000D03*
D69*
X89500000Y-69875002D03*
D68*
X137000000Y-101000000D03*
X98500000Y-94500000D03*
X83750000Y-121425000D03*
X131750000Y-68250000D03*
D69*
X89500000Y-70500000D03*
D68*
X73500000Y-82500000D03*
X142000000Y-101000000D03*
X151000000Y-117250000D03*
X130893750Y-76893750D03*
X137000000Y-116750000D03*
X101250000Y-89000000D03*
D69*
X87500000Y-70500000D03*
D68*
X82250000Y-51250000D03*
X108450000Y-85550000D03*
X137000000Y-84500000D03*
X121000000Y-100500000D03*
X98312500Y-66586250D03*
X81500000Y-121425000D03*
X82500000Y-53750000D03*
X98000000Y-91000000D03*
X107000000Y-63000000D03*
X116101000Y-101050000D03*
%TO.N,FMC_A0*%
X111855866Y-107956719D03*
X110500000Y-87000000D03*
%TO.N,FMC_D3*%
X124000000Y-79000000D03*
X125500000Y-108500000D03*
%TO.N,FMC_A6*%
X115000000Y-115500000D03*
X115001000Y-103846051D03*
%TO.N,FMC_SDNE0*%
X114450000Y-112500000D03*
X113499197Y-114501790D03*
X108398340Y-96000000D03*
X108500000Y-114500000D03*
%TO.N,FMC_D10*%
X123000000Y-120000000D03*
X123090996Y-105590996D03*
%TO.N,FMC_A7*%
X116439336Y-114939336D03*
X116500000Y-104500000D03*
%TO.N,FMC_D0*%
X132500000Y-93500000D03*
X130000000Y-109000000D03*
%TO.N,FMC_D2*%
X125000000Y-79000000D03*
X126429332Y-108500000D03*
%TO.N,FMC_SDCKE0*%
X116000000Y-123000000D03*
X107298340Y-96500000D03*
%TO.N,FMC_D8*%
X121500000Y-119000000D03*
X122030332Y-104530332D03*
%TO.N,FMC_BA0*%
X131500000Y-112250000D03*
X132969668Y-91530332D03*
%TO.N,FMC_SDNWE*%
X104263909Y-94513909D03*
X106748340Y-108750000D03*
%TO.N,FMC_D14*%
X127530332Y-119969668D03*
X128000000Y-97500000D03*
%TO.N,FMC_A4*%
X108378672Y-89121328D03*
X110000000Y-118000000D03*
%TO.N,FMC_D1*%
X132000000Y-108000000D03*
X133250003Y-93500000D03*
%TO.N,FMC_NBL1*%
X117500000Y-119500000D03*
X111000000Y-79500000D03*
%TO.N,FMC_D5*%
X120101000Y-101000000D03*
X120950000Y-112500000D03*
%TO.N,FMC_A2*%
X110530332Y-108469668D03*
X109439336Y-88060664D03*
%TO.N,FMC_D7*%
X121500000Y-104000000D03*
X120651000Y-106500000D03*
%TO.N,FMC_A10*%
X113500000Y-109000000D03*
X113899000Y-107250000D03*
%TO.N,FMC_BA1*%
X133500000Y-91000000D03*
X132263909Y-112263909D03*
%TO.N,FMC_D11*%
X124000000Y-119500000D03*
X123822936Y-105754591D03*
%TO.N,FMC_A1*%
X109969668Y-87530332D03*
X111060664Y-107939336D03*
%TO.N,FMC_A9*%
X117500000Y-116000000D03*
X117560664Y-105560664D03*
%TO.N,FMC_D13*%
X127000000Y-120500000D03*
X127450000Y-98500000D03*
%TO.N,FMC_D15*%
X129000000Y-96500000D03*
X129000000Y-119500000D03*
%TO.N,FMC_SDNRAS*%
X115000000Y-99000000D03*
X115550000Y-108500000D03*
%TO.N,FMC_D4*%
X115000000Y-100500000D03*
X113500000Y-112500000D03*
%TO.N,FMC_A11*%
X118500000Y-116500000D03*
X118621328Y-106621328D03*
%TO.N,FMC_SDNCAS*%
X119050000Y-112000000D03*
X116000000Y-79500000D03*
%TO.N,FMC_A3*%
X110000000Y-109000000D03*
X108909004Y-88590996D03*
%TO.N,FMC_D12*%
X124530332Y-118969668D03*
X124300000Y-104250000D03*
%TO.N,FMC_A8*%
X117030332Y-105030332D03*
X116969668Y-115469668D03*
%TO.N,FMC_SDCLK*%
X123000000Y-90000000D03*
X125500000Y-116500000D03*
%TO.N,FMC_D9*%
X122030332Y-119530332D03*
X122560664Y-105060664D03*
%TO.N,FMC_A5*%
X107848340Y-89651660D03*
X110550000Y-120500000D03*
%TO.N,FMC_NBL0*%
X119000000Y-82000000D03*
X119050000Y-109000000D03*
%TO.N,Net-(U1-PA13)*%
X143513909Y-94513909D03*
X141000000Y-81250000D03*
%TO.N,Net-(U1-NRST)*%
X127750000Y-92000000D03*
X133750000Y-71950000D03*
%TO.N,Net-(U1-PB3)*%
X143500000Y-98750000D03*
X119950000Y-80750000D03*
X123250000Y-87500000D03*
X127750000Y-88700000D03*
%TO.N,MENU_SW*%
X136420823Y-122585412D03*
X126000000Y-126750000D03*
%TO.N,Net-(U1-PA14)*%
X144750000Y-78500000D03*
X149250000Y-98000000D03*
%TO.N,DOWN_SW*%
X95750000Y-124549000D03*
X91750000Y-126250000D03*
%TO.N,VREF*%
X117750000Y-73500000D03*
X108899000Y-97000000D03*
X112750000Y-73500000D03*
X115250000Y-73500000D03*
%TO.N,UP_SW*%
X101750000Y-127000000D03*
X122750000Y-126000000D03*
X135750000Y-122250000D03*
X125250000Y-126000000D03*
%TO.N,CANL2*%
X139486091Y-89263909D03*
X140250000Y-68500000D03*
%TO.N,CANH2*%
X138500000Y-88750000D03*
X138750000Y-68500000D03*
%TO.N,CANL1*%
X138500000Y-76500000D03*
X136500000Y-56850000D03*
X137625000Y-68625000D03*
%TO.N,CANH1*%
X137000000Y-76500000D03*
X135875000Y-68625000D03*
%TO.N,SDMMC1_D1*%
X135000000Y-86199000D03*
X137500000Y-80200000D03*
%TO.N,SDMMC1_D0*%
X135000000Y-74300000D03*
X132750000Y-86751000D03*
%TO.N,Net-(U1-BOOT0)*%
X112750000Y-76002000D03*
X121500000Y-73700000D03*
%TO.N,Net-(J17-D--PadA7)*%
X154500000Y-89250000D03*
%TO.N,Net-(J17-CC2)*%
X149250000Y-95063909D03*
X151000000Y-95000000D03*
%TO.N,MICROSD_DET*%
X154887500Y-69865000D03*
X139293453Y-81809379D03*
X155750000Y-71250000D03*
X136250000Y-86500000D03*
X154875000Y-80450000D03*
%TO.N,LED+*%
X74500000Y-82500000D03*
X77687500Y-74500000D03*
X83000000Y-73500000D03*
D69*
X75000000Y-61500000D03*
D68*
%TO.N,+5V*%
X88500000Y-68000000D03*
D69*
X94250000Y-64250000D03*
D68*
X87250000Y-51500000D03*
X96000000Y-53500000D03*
X87500000Y-68000000D03*
X95000000Y-65250000D03*
X87500000Y-54000000D03*
X87500000Y-50500000D03*
X92000000Y-56000000D03*
X90500000Y-66500000D03*
X71100000Y-112300000D03*
X86000000Y-67500000D03*
X87500000Y-56500000D03*
X86000000Y-68500000D03*
X92000000Y-64500000D03*
X158000000Y-118250000D03*
X147000000Y-117750000D03*
X87750000Y-49750000D03*
%TO.N,FDCAN1_RX*%
X138500000Y-80700000D03*
X138500000Y-81800000D03*
%TO.N,FDCAN1_TX*%
X133700001Y-83577817D03*
X132500000Y-81500000D03*
%TO.N,FDCAN2_RX*%
X138000000Y-99250000D03*
X140750000Y-98250000D03*
%TO.N,LED3*%
X96500000Y-83151000D03*
X80079232Y-107925000D03*
%TO.N,LTDC_R3*%
X98030332Y-106450000D03*
X94000000Y-87000000D03*
%TO.N,LTDC_R7*%
X82500000Y-79000000D03*
X84000000Y-75500000D03*
X117500000Y-92500000D03*
X72000000Y-80000000D03*
X71654075Y-87926257D03*
X105750000Y-74000000D03*
%TO.N,LTDC_G5*%
X79000000Y-96500000D03*
X103077817Y-100799999D03*
X78000000Y-92000000D03*
X100592647Y-97911608D03*
%TO.N,SPI_CE*%
X105250000Y-65000000D03*
X108250000Y-79750000D03*
%TO.N,LTDC_G7*%
X107500000Y-84000000D03*
X104050000Y-83701000D03*
X90000000Y-92500000D03*
X92000000Y-84500000D03*
%TO.N,SPI_CLK*%
X113000000Y-80450000D03*
X113000000Y-78950000D03*
X113050000Y-98999000D03*
%TO.N,LTDC_B2*%
X107500000Y-82500000D03*
X104050000Y-82000000D03*
X89500000Y-84000000D03*
X87000000Y-93500000D03*
%TO.N,LTDC_VSYNC*%
X75500000Y-84700000D03*
X70500000Y-98500000D03*
%TO.N,USART1_TX*%
X145500000Y-93000000D03*
X143500000Y-57500000D03*
X143399000Y-63252473D03*
X141700000Y-64750000D03*
%TO.N,LTDC_R2*%
X76969668Y-86530332D03*
X80450000Y-97000000D03*
%TO.N,LTDC_CLK*%
X101000000Y-101400000D03*
X81000000Y-101550000D03*
X78500000Y-98000000D03*
X106500000Y-104000000D03*
X107298340Y-91500000D03*
X103000000Y-103000000D03*
%TO.N,VBUS*%
X128750000Y-86250000D03*
X134750000Y-89250000D03*
X137250000Y-93250000D03*
X143750000Y-100250000D03*
%TO.N,LTDC_G2*%
X75000000Y-90200000D03*
X77000000Y-103500000D03*
%TO.N,LTDC_B5*%
X83000000Y-95899000D03*
X84000000Y-97000000D03*
X100050000Y-98429332D03*
X101500000Y-100800000D03*
%TO.N,UART5_RX*%
X125778525Y-72278525D03*
X140800000Y-67750000D03*
%TO.N,LTDC_R5*%
X92500000Y-88500000D03*
X104550000Y-95250000D03*
X129550000Y-101500000D03*
X94000000Y-96500000D03*
X129000000Y-95750000D03*
X107349000Y-94800000D03*
%TO.N,SPI_MOSI*%
X113736091Y-80263909D03*
X113800002Y-99000071D03*
X113750000Y-78950000D03*
%TO.N,LTDC_R4*%
X116250000Y-96700000D03*
X127750000Y-100500000D03*
X105950000Y-101701000D03*
X104786091Y-104113909D03*
X127529332Y-99365654D03*
X93500000Y-88000000D03*
X95550000Y-103050000D03*
X115000000Y-98000000D03*
%TO.N,LED2*%
X83000000Y-105550000D03*
X95000000Y-82601000D03*
%TO.N,LTDC_R1*%
X81000000Y-98500000D03*
X77500000Y-86000000D03*
%TO.N,LTDC_STDBY*%
X77500000Y-105000000D03*
X71500000Y-98250000D03*
%TO.N,SPI_MISO*%
X118500000Y-63500000D03*
X119750000Y-79000000D03*
%TO.N,LTDC_G6*%
X82000000Y-84550000D03*
X82000000Y-83450000D03*
X75000000Y-80550000D03*
X81500000Y-81000000D03*
X69399000Y-89000000D03*
X97500000Y-86100000D03*
X93500000Y-86050000D03*
X84500000Y-86000000D03*
%TO.N,LED1*%
X103003025Y-98429842D03*
X84000000Y-111675000D03*
%TO.N,UART5_TX*%
X125848780Y-71246817D03*
X141000000Y-67000000D03*
%TO.N,LTDC_B0*%
X104500000Y-78500000D03*
X101000000Y-73450000D03*
X74000000Y-75500000D03*
X68500000Y-89500000D03*
%TO.N,LTDC_R0*%
X78030332Y-85469668D03*
X82000000Y-99000000D03*
%TO.N,LTDC_HSYNC*%
X96000000Y-85000000D03*
X86000000Y-84000000D03*
X98950000Y-85550000D03*
X74500000Y-98500000D03*
%TO.N,LTDC_G3*%
X87000000Y-75500000D03*
X119000000Y-75500000D03*
X85500000Y-91000000D03*
X116000000Y-74500000D03*
%TO.N,LTDC_B6*%
X84500000Y-93300000D03*
X77000000Y-96300000D03*
X90000000Y-76614908D03*
X77450000Y-93500000D03*
%TO.N,LTDC_B4*%
X103000000Y-77164908D03*
X94000000Y-79000000D03*
X67950000Y-85000000D03*
X71000000Y-95000000D03*
%TO.N,Net-(C2-Pad1)*%
X126000000Y-98722181D03*
X126500000Y-82750000D03*
%TO.N,LTDC_G4*%
X93500000Y-101950000D03*
X91613909Y-92163909D03*
%TO.N,LTDC_B7*%
X110500000Y-76002000D03*
X106750000Y-74001000D03*
X71500000Y-96500000D03*
X91500000Y-73099000D03*
%TO.N,LTDC_DE*%
X100081564Y-93102196D03*
X87500000Y-101000000D03*
X103000000Y-93000000D03*
X90500000Y-94000000D03*
%TO.N,SPI_CS*%
X105600000Y-55700000D03*
X107500000Y-79250000D03*
%TO.N,LTDC_G1*%
X102500000Y-79500000D03*
X70500000Y-86500000D03*
X101500000Y-77399000D03*
X72361091Y-77861091D03*
%TO.N,USART1_CK*%
X144000000Y-82359379D03*
X129750000Y-86250000D03*
X143350264Y-55001734D03*
X139236091Y-85486091D03*
%TO.N,USART1_RX*%
X143500000Y-56250000D03*
X146500000Y-90250000D03*
%TO.N,SPI_IRQ*%
X116500000Y-65250000D03*
X105750000Y-66000000D03*
X107111091Y-76138909D03*
%TO.N,LTDC_B3*%
X86030332Y-91530332D03*
X87763911Y-75513908D03*
X114500000Y-75101000D03*
X82550000Y-95000000D03*
X83000000Y-91500000D03*
X118236089Y-75513908D03*
%TO.N,LTDC_G0*%
X72000000Y-79000000D03*
X71000000Y-87500000D03*
%TO.N,LTDC_R6*%
X95000000Y-91000000D03*
X97500000Y-107000000D03*
%TO.N,Net-(D1-A)*%
X149250000Y-104000000D03*
X98200000Y-58700000D03*
%TO.N,LTDC_B1*%
X113500000Y-75651000D03*
X117500000Y-76000000D03*
X71500000Y-93500000D03*
X72000000Y-76500000D03*
%TO.N,Net-(J4-CLK)*%
X149637500Y-72865000D03*
X153500000Y-75750000D03*
%TO.N,Net-(J4-CMD)*%
X150637500Y-73615000D03*
X151750000Y-75000000D03*
%TO.N,Net-(J4-DAT2)*%
X160750000Y-72250000D03*
X159250000Y-76365000D03*
%TO.N,Net-(J4-DAT0)*%
X160250000Y-67250000D03*
X160750000Y-78500000D03*
%TO.N,Net-(J17-CC1)*%
X149750000Y-92750000D03*
X148571768Y-95750000D03*
%TO.N,+24V*%
X105000000Y-42000000D03*
X101500000Y-46500000D03*
X104000000Y-47250000D03*
X132750000Y-135250000D03*
%TO.N,VIN*%
X86000000Y-40750000D03*
X95250000Y-42000000D03*
X94250000Y-42000000D03*
X90750000Y-40750000D03*
X95250000Y-39750000D03*
X87750000Y-40750000D03*
X89500000Y-41000000D03*
%TO.N,BMS_OK*%
X151750000Y-105250000D03*
X145000000Y-64500000D03*
%TO.N,IMD_OK*%
X144250000Y-65200000D03*
X137875000Y-59875000D03*
X151000000Y-104250000D03*
%TO.N,RTDS*%
X138000000Y-130250000D03*
X141000000Y-71250000D03*
%TO.N,TS_OFF*%
X156500000Y-127750000D03*
X144850000Y-60950735D03*
%TO.N,RST_PILOTO*%
X127500000Y-56750000D03*
X126500000Y-58250000D03*
X145000000Y-62000000D03*
%TO.N,START*%
X149549265Y-106549265D03*
%TO.N,N_RTDS*%
X126500000Y-134000000D03*
%TO.N,Net-(U8-EN)*%
X82000000Y-43000000D03*
X91000000Y-44250000D03*
%TO.N,RST_PILOTO_OB*%
X122750000Y-59250000D03*
X122800000Y-75500000D03*
%TO.N,START_OB*%
X123750000Y-75000000D03*
X119500000Y-52750000D03*
%TD*%
D70*
%TO.N,QUADSPI_BK1_NCS*%
X104050000Y-85000000D02*
X97244600Y-85000000D01*
X124750000Y-101250000D02*
X122500000Y-99000000D01*
X122000000Y-87000000D02*
X121000000Y-86000000D01*
X120000000Y-85000000D02*
X107500000Y-85000000D01*
X95595000Y-86649600D02*
X95595000Y-87144900D01*
X124750000Y-102675000D02*
X124750000Y-101250000D01*
X97244600Y-85000000D02*
X95595000Y-86649600D01*
X121000000Y-86000000D02*
X120000000Y-85000000D01*
%TO.N,VDD*%
X131175000Y-81750000D02*
X130000000Y-81750000D01*
D71*
X99462500Y-69786250D02*
X99462500Y-68781250D01*
D70*
X112750000Y-70500000D02*
X112750000Y-69250000D01*
X129325001Y-106500000D02*
X131000000Y-106500000D01*
X101750000Y-114712500D02*
X104250000Y-114712500D01*
X131970768Y-93750000D02*
X132271768Y-94051000D01*
X132529232Y-88250000D02*
X131175000Y-88250000D01*
X126250000Y-105462500D02*
X126250000Y-102675000D01*
X161651000Y-65764000D02*
X162300000Y-65115000D01*
X138385000Y-84385000D02*
X138500000Y-84500000D01*
X132750000Y-118212500D02*
X128287500Y-118212500D01*
X135236500Y-94051000D02*
X135250000Y-94037500D01*
X127750000Y-77325000D02*
X127750000Y-78750000D01*
X109750000Y-102675000D02*
X109750000Y-101351000D01*
X127750000Y-76611888D02*
X129111888Y-75250000D01*
X103825001Y-87500000D02*
X105075001Y-86250000D01*
X119599999Y-110259600D02*
X119599999Y-111649999D01*
X109750000Y-101351000D02*
X108899000Y-100500000D01*
X123599999Y-110259600D02*
X123599999Y-109462700D01*
X76559050Y-82548000D02*
X74357050Y-84750000D01*
D71*
X87550000Y-72075000D02*
X87550000Y-72950000D01*
D70*
X127750000Y-77325000D02*
X127750000Y-76611888D01*
X161700000Y-61700000D02*
X161700000Y-62265000D01*
X109750000Y-77325000D02*
X109750000Y-78800000D01*
X116250000Y-77325000D02*
X116250000Y-78200000D01*
X105075001Y-86250000D02*
X105825000Y-86250000D01*
D71*
X88500000Y-72075000D02*
X87550000Y-72075000D01*
D70*
X130711888Y-78500000D02*
X132712500Y-78500000D01*
X116250000Y-103970768D02*
X116250000Y-102675000D01*
X88653000Y-82548000D02*
X76559050Y-82548000D01*
X138385000Y-83225000D02*
X138385000Y-84385000D01*
X161700000Y-62265000D02*
X162300000Y-62865000D01*
X132712500Y-78500000D02*
X133750000Y-79537500D01*
X115537500Y-104683268D02*
X116250000Y-103970768D01*
X95595000Y-79855100D02*
X95595000Y-78905000D01*
X109750000Y-78800000D02*
X109500000Y-79050000D01*
X128287500Y-118212500D02*
X126000000Y-120500000D01*
X120000000Y-72500000D02*
X120000000Y-73700000D01*
X131175000Y-99750000D02*
X132477821Y-99750000D01*
X123600000Y-109462700D02*
X123599999Y-109462700D01*
D71*
X101537500Y-66456250D02*
X102682500Y-66456250D01*
D70*
X108649000Y-98250000D02*
X108899000Y-98000000D01*
X131750000Y-110750000D02*
X132814909Y-111814909D01*
X128843499Y-111500000D02*
X130000000Y-111500000D01*
X127000000Y-61500000D02*
X127500000Y-62000000D01*
X158287500Y-65000000D02*
X158287500Y-64037500D01*
X129500000Y-81250000D02*
X129500000Y-79711888D01*
X139326411Y-99886089D02*
X132613910Y-99886089D01*
X162324500Y-55824500D02*
X161824500Y-55324500D01*
X109199999Y-110259600D02*
X109199999Y-111199001D01*
X74357050Y-84750000D02*
X73000000Y-84750000D01*
X131259600Y-110259600D02*
X131750000Y-110750000D01*
X103287500Y-87500000D02*
X103825001Y-87500000D01*
X136787500Y-88287500D02*
X137500000Y-89000000D01*
X139712500Y-99500000D02*
X139326411Y-99886089D01*
X132477821Y-99750000D02*
X132613910Y-99886089D01*
X132271768Y-94051000D02*
X135236500Y-94051000D01*
X105686500Y-114712500D02*
X108899000Y-111500000D01*
D71*
X99462500Y-68781250D02*
X99537500Y-68706250D01*
D70*
X161651000Y-66500000D02*
X161651000Y-65764000D01*
D71*
X87550000Y-72950000D02*
X87500000Y-73000000D01*
D70*
X105825000Y-86250000D02*
X110000000Y-86250000D01*
X133000000Y-88250000D02*
X133250000Y-88500000D01*
X109750000Y-72750000D02*
X109750000Y-73962500D01*
X132814909Y-114147591D02*
X132750000Y-114212500D01*
X159824500Y-55574500D02*
X159574500Y-55324500D01*
X126750000Y-107750000D02*
X127287500Y-107212500D01*
X116250000Y-102675000D02*
X116250000Y-101800000D01*
X127287500Y-106500000D02*
X129325001Y-106500000D01*
X126250000Y-102675000D02*
X126250000Y-103424999D01*
X116250000Y-101800000D02*
X117000000Y-101050000D01*
X157324500Y-56574500D02*
X157324500Y-55574500D01*
X156575000Y-67250000D02*
X157750000Y-67250000D01*
X139885000Y-96475000D02*
X139885000Y-97615000D01*
X149500000Y-83750000D02*
X148500000Y-83750000D01*
X129999999Y-110259600D02*
X131259600Y-110259600D01*
X105111888Y-90250000D02*
X104250000Y-89388112D01*
X148500000Y-83750000D02*
X148250000Y-84000000D01*
X129500000Y-79711888D02*
X130711888Y-78500000D01*
X129111888Y-75250000D02*
X130462500Y-75250000D01*
X130000000Y-81750000D02*
X129500000Y-81250000D01*
X132529232Y-88250000D02*
X133000000Y-88250000D01*
X125999999Y-121740400D02*
X126000000Y-120500000D01*
X104250000Y-96750000D02*
X105825000Y-96750000D01*
X107190000Y-56500000D02*
X107190000Y-58235000D01*
X121250000Y-78750000D02*
X121500000Y-79000000D01*
X105825000Y-90250000D02*
X105111888Y-90250000D01*
X104100001Y-96899999D02*
X104250000Y-96750000D01*
X104250000Y-89388112D02*
X104250000Y-89000000D01*
X119599999Y-111649999D02*
X120113909Y-112163909D01*
X121250000Y-77325000D02*
X121250000Y-78750000D01*
X131175000Y-93750000D02*
X130000000Y-93750000D01*
X159824500Y-56574500D02*
X159824500Y-55574500D01*
X162750000Y-75550000D02*
X161452500Y-75550000D01*
X121250000Y-102675000D02*
X121250000Y-101750000D01*
X128399999Y-111056500D02*
X128843499Y-111500000D01*
X157750000Y-67250000D02*
X158000000Y-67000000D01*
X131175000Y-93750000D02*
X131970768Y-93750000D01*
X109199999Y-111199001D02*
X108899000Y-111500000D01*
X139885000Y-97615000D02*
X139500000Y-98000000D01*
X95595000Y-78905000D02*
X96000000Y-78500000D01*
X121199998Y-120699998D02*
X121000000Y-120500000D01*
X127287500Y-107212500D02*
X127287500Y-106500000D01*
X110000000Y-86250000D02*
X110250000Y-86000000D01*
X104250000Y-114712500D02*
X105686500Y-114712500D01*
X125312700Y-107750000D02*
X123600000Y-109462700D01*
X130000000Y-93750000D02*
X129500000Y-93250000D01*
X103450000Y-96899999D02*
X104100001Y-96899999D01*
X132814909Y-111814909D02*
X132814909Y-114147591D01*
X116250000Y-78200000D02*
X117000000Y-78950000D01*
X105825000Y-98250000D02*
X108649000Y-98250000D01*
X162324500Y-56574500D02*
X162324500Y-55824500D01*
X161452500Y-75550000D02*
X161387500Y-75615000D01*
X127287500Y-106500000D02*
X126250000Y-105462500D01*
X89100000Y-82101000D02*
X88653000Y-82548000D01*
X121199998Y-121740400D02*
X121199998Y-120699998D01*
X126450000Y-61500000D02*
X127000000Y-61500000D01*
X125312700Y-107750000D02*
X126750000Y-107750000D01*
X121250000Y-101750000D02*
X122000000Y-101000000D01*
X128399999Y-110259600D02*
X128399999Y-111056500D01*
X136787500Y-87750000D02*
X136787500Y-88287500D01*
D71*
X102682500Y-66456250D02*
X102812500Y-66586250D01*
D70*
X158287500Y-64037500D02*
X158250000Y-64000000D01*
X115537500Y-106000000D02*
X115537500Y-104683268D01*
%TO.N,QUADSPI_BK1_IO2*%
X103774001Y-89949000D02*
X105075001Y-91250000D01*
X98135000Y-87405600D02*
X100678400Y-89949000D01*
X98135000Y-87144900D02*
X98135000Y-87405600D01*
X100678400Y-89949000D02*
X103774001Y-89949000D01*
X105075001Y-91250000D02*
X105825000Y-91250000D01*
%TO.N,QUADSPI_BK1_IO0*%
X103279232Y-90500000D02*
X103000000Y-90500000D01*
X99405000Y-79855100D02*
X100549900Y-81000000D01*
X100549900Y-81000000D02*
X102500000Y-81000000D01*
X104529232Y-91750000D02*
X103279232Y-90500000D01*
X105825000Y-91750000D02*
X104529232Y-91750000D01*
%TO.N,QUADSPI_BK1_IO3*%
X103561121Y-89221225D02*
X103481997Y-89221225D01*
X105825000Y-90750000D02*
X105089896Y-90750000D01*
X96865000Y-79855100D02*
X96865000Y-79359800D01*
X105089896Y-90750000D02*
X103561121Y-89221225D01*
X97382700Y-78842100D02*
X102842100Y-78842100D01*
X102842100Y-78842100D02*
X103500000Y-79500000D01*
X96865000Y-79359800D02*
X97382700Y-78842100D01*
%TO.N,QUADSPI_CLK*%
X101500000Y-108000000D02*
X108660551Y-108000000D01*
X98135000Y-79855100D02*
X98135000Y-80135000D01*
X109660551Y-107000000D02*
X110674999Y-107000000D01*
X110674999Y-107000000D02*
X114250000Y-103424999D01*
X108660551Y-108000000D02*
X109660551Y-107000000D01*
X98135000Y-80135000D02*
X99500000Y-81500000D01*
X114250000Y-103424999D02*
X114250000Y-102675000D01*
%TO.N,GND*%
X120750000Y-102675000D02*
X120750000Y-100750000D01*
X128250000Y-78250000D02*
X128500000Y-78500000D01*
D71*
X93760000Y-37525000D02*
X93760000Y-36510000D01*
X89450000Y-72075000D02*
X89450000Y-72249000D01*
D70*
X120000000Y-70425000D02*
X120000000Y-69250000D01*
X120500000Y-66527818D02*
X121236091Y-67263909D01*
X133500000Y-89250000D02*
X134712500Y-88037500D01*
X88500000Y-70575000D02*
X88175000Y-70575000D01*
D72*
X157000000Y-114437500D02*
X155812500Y-114437500D01*
D70*
X105280450Y-116787500D02*
X108871475Y-120378525D01*
X89175000Y-71250000D02*
X88500000Y-70575000D01*
X138615000Y-97635000D02*
X138250000Y-98000000D01*
D72*
X148787500Y-128600000D02*
X149650000Y-128600000D01*
D70*
X125212500Y-106500000D02*
X122496388Y-106500000D01*
X69900000Y-79542950D02*
X70971475Y-78471475D01*
X118750000Y-56500000D02*
X118000000Y-55750000D01*
X115750000Y-103876283D02*
X115750000Y-102675000D01*
X162750000Y-77750000D02*
X160772500Y-77750000D01*
X73000000Y-83250000D02*
X73000000Y-83000000D01*
D72*
X138500000Y-116687500D02*
X137062500Y-116687500D01*
D70*
X99225000Y-55225000D02*
X99250000Y-55250000D01*
D71*
X99215000Y-50275000D02*
X99215000Y-51715000D01*
D70*
X120500000Y-65750000D02*
X120500000Y-66527818D01*
X104250000Y-116787500D02*
X105280450Y-116787500D01*
X125999999Y-112000001D02*
X125500000Y-112500000D01*
X88500000Y-70575000D02*
X88500000Y-71250000D01*
X131175000Y-88750000D02*
X129500000Y-88750000D01*
X88175000Y-70575000D02*
X87500000Y-71250000D01*
X101750000Y-116787500D02*
X104250000Y-116787500D01*
X145500000Y-104000000D02*
X145500000Y-105250000D01*
X69900000Y-81150000D02*
X69900000Y-79542950D01*
D71*
X75925000Y-74262500D02*
X75687500Y-74500000D01*
D70*
X131175000Y-94250000D02*
X129250000Y-94250000D01*
X83250000Y-119925000D02*
X83250000Y-120925000D01*
X88500000Y-70575000D02*
X89425000Y-70575000D01*
D72*
X155812500Y-114437500D02*
X155750000Y-114500000D01*
D70*
X119599999Y-121740400D02*
X119599999Y-120599999D01*
X88199998Y-70575000D02*
X87500000Y-69875002D01*
X131175000Y-100250000D02*
X132200003Y-100250000D01*
X115250000Y-70500000D02*
X115250000Y-69250000D01*
X104250000Y-93750000D02*
X105825000Y-93750000D01*
X147750000Y-99000000D02*
X149000000Y-99000000D01*
X130893750Y-76893750D02*
X131018750Y-76768750D01*
X99750000Y-95500000D02*
X101500000Y-95500000D01*
X98900000Y-94100000D02*
X98500000Y-94500000D01*
D72*
X153800000Y-120050000D02*
X153750000Y-120000000D01*
D71*
X86475000Y-43725000D02*
X87000000Y-44250000D01*
D70*
X103033395Y-94633579D02*
X103366421Y-94633579D01*
D71*
X98380000Y-71456250D02*
X98250000Y-71586250D01*
X78750000Y-38250000D02*
X78750000Y-37250000D01*
D70*
X116100000Y-49000000D02*
X116100000Y-48000000D01*
X121199998Y-110259600D02*
X121199998Y-108699998D01*
D72*
X143250000Y-114675000D02*
X146987500Y-114675000D01*
D70*
X117551000Y-78551000D02*
X117551000Y-79178232D01*
X74250000Y-97250000D02*
X74500000Y-97000000D01*
X128750000Y-80500000D02*
X128750000Y-79965500D01*
X105825000Y-89750000D02*
X106750000Y-89750000D01*
X99750000Y-94100000D02*
X99750000Y-95500000D01*
D71*
X95000000Y-68537500D02*
X95000000Y-69750000D01*
D70*
X130287500Y-116287500D02*
X130250000Y-116250000D01*
X152900000Y-70127500D02*
X153387500Y-70615000D01*
D71*
X89450000Y-72075000D02*
X89450000Y-71300000D01*
D70*
X71050000Y-106000000D02*
X72000000Y-106000000D01*
X154500000Y-67250000D02*
X153500000Y-67250000D01*
X119599999Y-120599999D02*
X119500000Y-120500000D01*
X116750000Y-78074999D02*
X117001001Y-78326000D01*
D72*
X153800000Y-121375000D02*
X153800000Y-120050000D01*
D70*
X117000000Y-79729232D02*
X117000000Y-80050000D01*
D72*
X143250000Y-114675000D02*
X143250000Y-114750000D01*
D70*
X142000000Y-101925000D02*
X142000000Y-101000000D01*
X86250000Y-120750000D02*
X86750000Y-121250000D01*
X73000000Y-84250000D02*
X74077818Y-84250000D01*
D72*
X152312500Y-117137500D02*
X151112500Y-117137500D01*
D70*
X128500000Y-78500000D02*
X129287500Y-78500000D01*
D71*
X92500000Y-68537500D02*
X92500000Y-69750000D01*
D72*
X161250000Y-114637500D02*
X161250000Y-116000000D01*
D71*
X80925000Y-67575000D02*
X80750000Y-67750000D01*
D70*
X88500000Y-70575000D02*
X88199998Y-70575000D01*
X109750000Y-70675000D02*
X109750000Y-69462500D01*
D72*
X132887500Y-133787500D02*
X132700000Y-133600000D01*
D70*
X160772500Y-77750000D02*
X160637500Y-77615000D01*
X120750000Y-104753612D02*
X120750000Y-102675000D01*
X99225000Y-53525000D02*
X99225000Y-55225000D01*
X117750000Y-70462500D02*
X117750000Y-69250000D01*
X128250000Y-77325000D02*
X128250000Y-78250000D01*
D71*
X87740000Y-36510000D02*
X87750000Y-36500000D01*
D70*
X131175000Y-82250000D02*
X129720768Y-82250000D01*
D71*
X99462500Y-66456250D02*
X98442500Y-66456250D01*
D70*
X123599999Y-121740400D02*
X123599999Y-120599999D01*
X116100000Y-48000000D02*
X116200000Y-47900000D01*
D71*
X99215000Y-51715000D02*
X99250000Y-51750000D01*
D70*
X122496388Y-106500000D02*
X120750000Y-104753612D01*
D71*
X75925000Y-73000000D02*
X75925000Y-74262500D01*
D70*
X137115000Y-83225000D02*
X137115000Y-84385000D01*
X137115000Y-84385000D02*
X137000000Y-84500000D01*
X117326000Y-78326000D02*
X117551000Y-78551000D01*
X103000000Y-97500000D02*
X104500000Y-97500000D01*
X129999999Y-121740400D02*
X130000000Y-120500000D01*
D71*
X93760000Y-36510000D02*
X93750000Y-36500000D01*
X99625000Y-71456250D02*
X98380000Y-71456250D01*
D70*
X74077818Y-84250000D02*
X74613909Y-83713909D01*
X121750000Y-77325000D02*
X121750000Y-78470768D01*
X101212500Y-87500000D02*
X101212500Y-88962500D01*
X132220768Y-88750000D02*
X132720768Y-89250000D01*
D71*
X102225000Y-50275000D02*
X102225000Y-50775000D01*
X98442500Y-66456250D02*
X98312500Y-66586250D01*
D70*
X128750000Y-79965500D02*
X131253000Y-77462500D01*
D72*
X139250000Y-120500000D02*
X139250000Y-119000000D01*
D70*
X109250000Y-102675000D02*
X109250000Y-101681737D01*
X129500000Y-88750000D02*
X129250000Y-88500000D01*
X99750000Y-94100000D02*
X98900000Y-94100000D01*
D71*
X89500000Y-45250000D02*
X89250000Y-45500000D01*
D70*
X129287500Y-78500000D02*
X130893750Y-76893750D01*
D71*
X102225000Y-50775000D02*
X100750000Y-52250000D01*
X83675000Y-53750000D02*
X82500000Y-53750000D01*
D70*
X73000000Y-83000000D02*
X73500000Y-82500000D01*
D72*
X132762500Y-137287500D02*
X132700000Y-137350000D01*
D70*
X137000000Y-101962500D02*
X137000000Y-101000000D01*
X121199998Y-108699998D02*
X120750000Y-108250000D01*
X105825000Y-85750000D02*
X108250000Y-85750000D01*
X107190000Y-62810000D02*
X107000000Y-63000000D01*
D72*
X137062500Y-116687500D02*
X137000000Y-116750000D01*
D70*
X104500000Y-97500000D02*
X104750000Y-97250000D01*
X69900000Y-104850000D02*
X71050000Y-106000000D01*
X88500000Y-70575000D02*
X88500000Y-69875002D01*
X117001001Y-78326000D02*
X117326000Y-78326000D01*
X97000000Y-95500000D02*
X97500000Y-96000000D01*
X101212500Y-88962500D02*
X101250000Y-89000000D01*
X128399997Y-121740400D02*
X128399997Y-120550003D01*
X130893750Y-76893750D02*
X132537500Y-75250000D01*
D72*
X133825000Y-133787500D02*
X132887500Y-133787500D01*
D70*
X120750000Y-100750000D02*
X121000000Y-100500000D01*
X89425000Y-70575000D02*
X89500000Y-70500000D01*
D71*
X89450000Y-72249000D02*
X89750000Y-72549000D01*
X80500000Y-72500000D02*
X80500000Y-73500000D01*
D72*
X151112500Y-117137500D02*
X151000000Y-117250000D01*
D70*
X123599999Y-120599999D02*
X123530332Y-120530332D01*
X116750000Y-77325000D02*
X116750000Y-78074999D01*
D71*
X87740000Y-37525000D02*
X87740000Y-36510000D01*
D70*
X138615000Y-96475000D02*
X138615000Y-97635000D01*
X80000000Y-119925000D02*
X81500000Y-121425000D01*
X128399997Y-120550003D02*
X128450000Y-120500000D01*
X86250000Y-119750000D02*
X86250000Y-120750000D01*
X130212500Y-120287500D02*
X132750000Y-120287500D01*
D72*
X150050000Y-136250000D02*
X148750000Y-136250000D01*
X131800000Y-128850000D02*
X131800000Y-127750000D01*
D70*
X130000000Y-120500000D02*
X130212500Y-120287500D01*
X152900000Y-69615000D02*
X152900000Y-70127500D01*
X135250000Y-91962500D02*
X135250000Y-90999000D01*
D71*
X83750000Y-51250000D02*
X82250000Y-51250000D01*
D70*
X117551000Y-79178232D02*
X117000000Y-79729232D01*
D72*
X152075000Y-128250000D02*
X151250000Y-128250000D01*
D70*
X97000000Y-95037500D02*
X97000000Y-95500000D01*
X104750000Y-97250000D02*
X105825000Y-97250000D01*
X113462500Y-106000000D02*
X113626283Y-106000000D01*
X132200003Y-100250000D02*
X132700003Y-100750000D01*
X122051000Y-79949000D02*
X121750000Y-80250000D01*
D71*
X83675000Y-56250000D02*
X82500000Y-56250000D01*
D70*
X125999999Y-110259600D02*
X125999999Y-112000001D01*
X121750000Y-78470768D02*
X122051000Y-78771768D01*
D72*
X146987500Y-114675000D02*
X147000000Y-114687500D01*
D70*
X109199999Y-121740400D02*
X109199999Y-120707049D01*
X100857400Y-87144900D02*
X101212500Y-87500000D01*
D72*
X131800000Y-127750000D02*
X131950000Y-127600000D01*
D70*
X97000000Y-92500000D02*
X97500000Y-92000000D01*
D71*
X89500000Y-44275000D02*
X89500000Y-45250000D01*
D70*
X88800002Y-70575000D02*
X89500000Y-69875002D01*
X97000000Y-92962500D02*
X97000000Y-92500000D01*
X109199999Y-120707049D02*
X108871475Y-120378525D01*
X129720768Y-82250000D02*
X128750000Y-81279232D01*
X88500000Y-70575000D02*
X88800002Y-70575000D01*
D71*
X89450000Y-71300000D02*
X89500000Y-71250000D01*
D72*
X149650000Y-128600000D02*
X149750000Y-128500000D01*
D70*
X145500000Y-99000000D02*
X147750000Y-99000000D01*
X134500000Y-102000000D02*
X134500000Y-101000000D01*
X103366421Y-94633579D02*
X104250000Y-93750000D01*
X118750000Y-57000000D02*
X118750000Y-56500000D01*
X115750000Y-101401000D02*
X116101000Y-101050000D01*
X73000000Y-97250000D02*
X74250000Y-97250000D01*
X99405000Y-87144900D02*
X100857400Y-87144900D01*
D71*
X85887500Y-43725000D02*
X86475000Y-43725000D01*
D70*
X132750000Y-116287500D02*
X130287500Y-116287500D01*
X141787500Y-100787500D02*
X142000000Y-101000000D01*
X89500000Y-71250000D02*
X89175000Y-71250000D01*
X134712500Y-88037500D02*
X134712500Y-87750000D01*
X131175000Y-88750000D02*
X132220768Y-88750000D01*
X106750000Y-89750000D02*
X107250000Y-90250000D01*
D71*
X90750000Y-37525000D02*
X90750000Y-36500000D01*
D70*
X128750000Y-81279232D02*
X128750000Y-80500000D01*
D71*
X82112500Y-67575000D02*
X80925000Y-67575000D01*
D70*
X141787500Y-99500000D02*
X141787500Y-100787500D01*
X113626283Y-106000000D02*
X115750000Y-103876283D01*
X129250000Y-94250000D02*
X128750000Y-93750000D01*
X99000000Y-92000000D02*
X98000000Y-91000000D01*
X156212500Y-65000000D02*
X155250000Y-65000000D01*
D72*
X143250000Y-114750000D02*
X142250000Y-115750000D01*
D70*
X131253000Y-77462500D02*
X133750000Y-77462500D01*
X99425000Y-92000000D02*
X99000000Y-92000000D01*
X74250000Y-100750000D02*
X75000000Y-101500000D01*
X83250000Y-120925000D02*
X83750000Y-121425000D01*
X115750000Y-102675000D02*
X115750000Y-101401000D01*
X109250000Y-101681737D02*
X108899000Y-101330737D01*
X73000000Y-100750000D02*
X74250000Y-100750000D01*
X132720768Y-89250000D02*
X133500000Y-89250000D01*
D72*
X133800000Y-137287500D02*
X132762500Y-137287500D01*
D70*
X108250000Y-85750000D02*
X108450000Y-85550000D01*
X139500000Y-101925000D02*
X139500000Y-101000000D01*
X122051000Y-78771768D02*
X122051000Y-79949000D01*
X130750000Y-67250000D02*
X131750000Y-68250000D01*
X107190000Y-60775000D02*
X107190000Y-62810000D01*
%TO.N,QUADSPI_BK1_IO1*%
X103970768Y-92250000D02*
X102020768Y-90300000D01*
X96865000Y-87365000D02*
X99750000Y-90250000D01*
X96865000Y-87144900D02*
X96865000Y-87365000D01*
X96865000Y-87405600D02*
X96865000Y-87144900D01*
X99800000Y-90300000D02*
X99750000Y-90250000D01*
X102020768Y-90300000D02*
X99800000Y-90300000D01*
X105825000Y-92250000D02*
X103970768Y-92250000D01*
%TO.N,FMC_A0*%
X112400001Y-108500854D02*
X111855866Y-107956719D01*
X112400001Y-110259600D02*
X112400001Y-108500854D01*
X110250000Y-86750000D02*
X110500000Y-87000000D01*
X105825000Y-86750000D02*
X110250000Y-86750000D01*
%TO.N,FMC_D3*%
X124250000Y-77325000D02*
X124250000Y-78750000D01*
X125199998Y-108800002D02*
X125500000Y-108500000D01*
X124250000Y-78750000D02*
X124000000Y-79000000D01*
X125199998Y-110259600D02*
X125199998Y-108800002D01*
%TO.N,FMC_A6*%
X115250000Y-103597051D02*
X115250000Y-102675000D01*
X111600000Y-121740400D02*
X111600000Y-118900000D01*
X115001000Y-103846051D02*
X115250000Y-103597051D01*
X111600000Y-118900000D02*
X115000000Y-115500000D01*
%TO.N,FMC_SDNE0*%
X115599999Y-110259600D02*
X115599999Y-111350001D01*
X113497407Y-114500000D02*
X108500000Y-114500000D01*
X113499197Y-114501790D02*
X113497407Y-114500000D01*
X105825000Y-95750000D02*
X108148340Y-95750000D01*
X108148340Y-95750000D02*
X108398340Y-96000000D01*
X115599999Y-111350001D02*
X114450000Y-112500000D01*
%TO.N,FMC_D10*%
X123250000Y-105431992D02*
X123090996Y-105590996D01*
X123250000Y-102675000D02*
X123250000Y-105431992D01*
X122799998Y-121740400D02*
X122799998Y-120200002D01*
X122799998Y-120200002D02*
X123000000Y-120000000D01*
%TO.N,FMC_A7*%
X112399998Y-121740400D02*
X112399998Y-118978674D01*
X116750000Y-102675000D02*
X116750000Y-104250000D01*
X112399998Y-118978674D02*
X116439336Y-114939336D01*
X116750000Y-104250000D02*
X116500000Y-104500000D01*
%TO.N,FMC_D0*%
X129199998Y-109800002D02*
X130000000Y-109000000D01*
X129199998Y-110259600D02*
X129199998Y-109706701D01*
X131175000Y-93250000D02*
X132250000Y-93250000D01*
X132250000Y-93250000D02*
X132500000Y-93500000D01*
X129199998Y-110259600D02*
X129199998Y-109800002D01*
%TO.N,FMC_D2*%
X126800000Y-110259600D02*
X126800000Y-108870668D01*
X124750000Y-78750000D02*
X125000000Y-79000000D01*
X124750000Y-77325000D02*
X124750000Y-78750000D01*
X126800000Y-108870668D02*
X126429332Y-108500000D01*
%TO.N,FMC_SDCKE0*%
X116399998Y-122600002D02*
X116000000Y-123000000D01*
X107048340Y-96250000D02*
X107298340Y-96500000D01*
X105825000Y-96250000D02*
X107048340Y-96250000D01*
X116399998Y-121740400D02*
X116399998Y-122600002D01*
%TO.N,FMC_D8*%
X122250000Y-104310664D02*
X122030332Y-104530332D01*
X122250000Y-102675000D02*
X122250000Y-104310664D01*
X120399997Y-121740400D02*
X120399997Y-120100003D01*
X120399997Y-120100003D02*
X121500000Y-119000000D01*
%TO.N,FMC_BA0*%
X112949000Y-112728232D02*
X112949000Y-112271768D01*
X113663500Y-111949000D02*
X114800001Y-110812499D01*
X131500000Y-112250000D02*
X130348000Y-113402000D01*
X130348000Y-113402000D02*
X113622768Y-113402000D01*
X113622768Y-113402000D02*
X112949000Y-112728232D01*
X114800001Y-110812499D02*
X114800001Y-110259600D01*
X113271768Y-111949000D02*
X113663500Y-111949000D01*
X112949000Y-112271768D02*
X113271768Y-111949000D01*
X131175000Y-91250000D02*
X132689336Y-91250000D01*
X132689336Y-91250000D02*
X132969668Y-91530332D01*
%TO.N,FMC_SDNWE*%
X104263909Y-94513909D02*
X104593141Y-94513909D01*
X116486300Y-107949000D02*
X112627379Y-107949000D01*
X112066715Y-107388336D02*
X109768603Y-107388336D01*
X104829232Y-94750000D02*
X105825000Y-94750000D01*
X118000000Y-110259600D02*
X118000000Y-109462700D01*
X109768603Y-107388336D02*
X108406939Y-108750000D01*
X112627379Y-107949000D02*
X112066715Y-107388336D01*
X108406939Y-108750000D02*
X106748340Y-108750000D01*
X118000000Y-109462700D02*
X116486300Y-107949000D01*
X104593141Y-94513909D02*
X104829232Y-94750000D01*
%TO.N,FMC_D14*%
X131175000Y-96750000D02*
X130250000Y-96750000D01*
X129949000Y-97051000D02*
X129000000Y-97051000D01*
X130250000Y-96750000D02*
X129949000Y-97051000D01*
X127599998Y-121740400D02*
X127599998Y-120039334D01*
X129000000Y-97051000D02*
X128449000Y-97051000D01*
X128449000Y-97051000D02*
X128000000Y-97500000D01*
X127599998Y-120039334D02*
X127530332Y-119969668D01*
%TO.N,FMC_A4*%
X108007344Y-88750000D02*
X108378672Y-89121328D01*
X110000000Y-121740400D02*
X110000000Y-118000000D01*
X105825000Y-88750000D02*
X108007344Y-88750000D01*
%TO.N,FMC_D1*%
X131175000Y-92750000D02*
X132750000Y-92750000D01*
X127599998Y-109400002D02*
X129000000Y-108000000D01*
X129000000Y-108000000D02*
X132000000Y-108000000D01*
X132750000Y-92750000D02*
X133250003Y-93250003D01*
X127599998Y-110259600D02*
X127599998Y-109400002D01*
X133250003Y-93250003D02*
X133250003Y-93500000D01*
%TO.N,FMC_NBL1*%
X110750000Y-77325000D02*
X110750000Y-79250000D01*
X118000000Y-121740400D02*
X118000000Y-120000000D01*
X118000000Y-120000000D02*
X117500000Y-119500000D01*
X110750000Y-79250000D02*
X111000000Y-79500000D01*
%TO.N,FMC_D5*%
X122800000Y-110259600D02*
X122800000Y-111056500D01*
X119750000Y-102675000D02*
X119750000Y-101351000D01*
X122800000Y-111056500D02*
X121356500Y-112500000D01*
X119750000Y-101351000D02*
X120101000Y-101000000D01*
X121356500Y-112500000D02*
X120950000Y-112500000D01*
%TO.N,FMC_A2*%
X110800001Y-110259600D02*
X110800001Y-108739337D01*
X109128672Y-87750000D02*
X109439336Y-88060664D01*
X105825000Y-87750000D02*
X109128672Y-87750000D01*
X110800001Y-108739337D02*
X110530332Y-108469668D01*
%TO.N,FMC_D7*%
X120000000Y-108650000D02*
X120400000Y-109050000D01*
X121750000Y-102675000D02*
X121750000Y-103750000D01*
X120651000Y-106500000D02*
X120651000Y-106849000D01*
X120400000Y-109050000D02*
X120400000Y-110259600D01*
X120000000Y-107500000D02*
X120000000Y-108650000D01*
X120651000Y-106849000D02*
X120000000Y-107500000D01*
X121750000Y-103750000D02*
X121500000Y-104000000D01*
%TO.N,FMC_A10*%
X113199999Y-110259600D02*
X113199999Y-109300001D01*
X117000000Y-107250000D02*
X118250000Y-106000000D01*
X113199999Y-109300001D02*
X113500000Y-109000000D01*
X118250000Y-106000000D02*
X118250000Y-102675000D01*
X113899000Y-107250000D02*
X117000000Y-107250000D01*
%TO.N,FMC_BA1*%
X114000000Y-110724380D02*
X112598000Y-112126379D01*
X112598000Y-112126379D02*
X112598000Y-112873620D01*
X130774818Y-113753000D02*
X132263909Y-112263909D01*
X133250000Y-90750000D02*
X133500000Y-91000000D01*
X114000000Y-110259600D02*
X114000000Y-110724380D01*
X113477379Y-113753000D02*
X130774818Y-113753000D01*
X112598000Y-112873620D02*
X113477379Y-113753000D01*
X131175000Y-90750000D02*
X133250000Y-90750000D01*
%TO.N,FMC_D11*%
X123822936Y-105754591D02*
X123750000Y-105681655D01*
X124399997Y-119899997D02*
X124000000Y-119500000D01*
X124399997Y-121740400D02*
X124399997Y-119899997D01*
X123750000Y-105681655D02*
X123750000Y-102675000D01*
%TO.N,FMC_A1*%
X111600000Y-110259600D02*
X111600000Y-108478672D01*
X109689336Y-87250000D02*
X109969668Y-87530332D01*
X105825000Y-87250000D02*
X109689336Y-87250000D01*
X111600000Y-108478672D02*
X111060664Y-107939336D01*
%TO.N,FMC_A9*%
X114000000Y-121740400D02*
X114000000Y-119500000D01*
X117750000Y-102675000D02*
X117750000Y-105371328D01*
X117750000Y-105371328D02*
X117560664Y-105560664D01*
X114000000Y-119500000D02*
X117500000Y-116000000D01*
%TO.N,FMC_D13*%
X126799997Y-120700003D02*
X127000000Y-120500000D01*
X129449000Y-98051000D02*
X130250000Y-97250000D01*
X130250000Y-97250000D02*
X131175000Y-97250000D01*
X127450000Y-98500000D02*
X127899000Y-98051000D01*
X126799997Y-121740400D02*
X126799997Y-120700003D01*
X127899000Y-98051000D02*
X129449000Y-98051000D01*
%TO.N,FMC_D15*%
X129199998Y-121740400D02*
X129000000Y-121540402D01*
X129000000Y-121540402D02*
X129000000Y-119500000D01*
X129250000Y-96250000D02*
X129000000Y-96500000D01*
X131175000Y-96250000D02*
X129250000Y-96250000D01*
%TO.N,FMC_SDNRAS*%
X114449000Y-101449000D02*
X114449000Y-99551000D01*
X114449000Y-99551000D02*
X115000000Y-99000000D01*
X116400000Y-109350000D02*
X115550000Y-108500000D01*
X114750000Y-101750000D02*
X114449000Y-101449000D01*
X116400000Y-110259600D02*
X116400000Y-109350000D01*
X114750000Y-102675000D02*
X114750000Y-101750000D01*
%TO.N,FMC_D4*%
X119250000Y-101250000D02*
X119250000Y-102675000D01*
X115000000Y-100500000D02*
X118500000Y-100500000D01*
X114051000Y-113051000D02*
X113500000Y-112500000D01*
X124400000Y-110259600D02*
X124400000Y-111056500D01*
X122405500Y-113051000D02*
X114051000Y-113051000D01*
X124400000Y-111056500D02*
X122405500Y-113051000D01*
X118500000Y-100500000D02*
X119250000Y-101250000D01*
%TO.N,FMC_A11*%
X118750000Y-102675000D02*
X118750000Y-106492656D01*
X118750000Y-106492656D02*
X118621328Y-106621328D01*
X114799998Y-121740400D02*
X114799998Y-120200002D01*
X114799998Y-120200002D02*
X118500000Y-116500000D01*
%TO.N,FMC_SDNCAS*%
X118387500Y-112000000D02*
X117199999Y-110812499D01*
X117199999Y-110812499D02*
X117199999Y-110259600D01*
X119050000Y-112000000D02*
X118387500Y-112000000D01*
X115750000Y-77325000D02*
X115750000Y-79250000D01*
X115750000Y-79250000D02*
X116000000Y-79500000D01*
%TO.N,FMC_A3*%
X108568008Y-88250000D02*
X108909004Y-88590996D01*
X110000000Y-110259600D02*
X110000000Y-109000000D01*
X105825000Y-88250000D02*
X108568008Y-88250000D01*
%TO.N,FMC_D12*%
X125199998Y-121740400D02*
X125199998Y-119639334D01*
X124300000Y-104250000D02*
X124250000Y-104200000D01*
X125199998Y-119639334D02*
X124530332Y-118969668D01*
X124250000Y-104200000D02*
X124250000Y-102675000D01*
%TO.N,FMC_A8*%
X113199999Y-121740400D02*
X113199999Y-119239337D01*
X117250000Y-104810664D02*
X117030332Y-105030332D01*
X117250000Y-102675000D02*
X117250000Y-104810664D01*
X113199999Y-119239337D02*
X116969668Y-115469668D01*
%TO.N,FMC_SDCLK*%
X131175000Y-89250000D02*
X123500000Y-89250000D01*
X117199999Y-120699999D02*
X117199999Y-121740400D01*
X116750000Y-119000000D02*
X116750000Y-120250000D01*
X125500000Y-116500000D02*
X124500000Y-117500000D01*
X118250000Y-117500000D02*
X116750000Y-119000000D01*
X124500000Y-117500000D02*
X118250000Y-117500000D01*
X123000000Y-90000000D02*
X123000000Y-89750000D01*
X123000000Y-89750000D02*
X123500000Y-89250000D01*
X116750000Y-120250000D02*
X117199999Y-120699999D01*
%TO.N,FMC_D9*%
X121999999Y-121740400D02*
X121999999Y-119560665D01*
X121999999Y-119560665D02*
X122030332Y-119530332D01*
X122750000Y-102675000D02*
X122750000Y-104871328D01*
X122750000Y-104871328D02*
X122560664Y-105060664D01*
%TO.N,FMC_A5*%
X110799999Y-121740400D02*
X110799999Y-120749999D01*
X105825000Y-89250000D02*
X107446680Y-89250000D01*
X107446680Y-89250000D02*
X107848340Y-89651660D01*
X110799999Y-120749999D02*
X110550000Y-120500000D01*
%TO.N,FMC_NBL0*%
X118800001Y-109249999D02*
X119050000Y-109000000D01*
X111250000Y-78750000D02*
X112000000Y-79500000D01*
X112000000Y-79500000D02*
X112000000Y-80500000D01*
X112500000Y-81000000D02*
X118000000Y-81000000D01*
X111250000Y-77325000D02*
X111250000Y-78750000D01*
X112000000Y-80500000D02*
X112500000Y-81000000D01*
X118000000Y-81000000D02*
X119000000Y-82000000D01*
X118800001Y-110259600D02*
X118800001Y-109249999D01*
%TO.N,FMC_D6*%
X121999999Y-110259600D02*
X121999999Y-106499999D01*
X120250000Y-104750000D02*
X120250000Y-102675000D01*
X121999999Y-106499999D02*
X120250000Y-104750000D01*
%TO.N,Net-(U1-PA13)*%
X141000000Y-81250000D02*
X135250000Y-81250000D01*
X149513909Y-94513909D02*
X152750000Y-97750000D01*
X143513909Y-94513909D02*
X149513909Y-94513909D01*
X152750000Y-97750000D02*
X152750000Y-97920000D01*
X135250000Y-81250000D02*
X133250000Y-83250000D01*
X133250000Y-83250000D02*
X131175000Y-83250000D01*
%TO.N,SWDIO*%
X154750000Y-97920000D02*
X158710000Y-97920000D01*
X158710000Y-97920000D02*
X159750000Y-98960000D01*
%TO.N,NRST*%
X126050000Y-70000000D02*
X123050000Y-67000000D01*
X127750000Y-70000000D02*
X126050000Y-70000000D01*
%TO.N,Net-(U1-NRST)*%
X105825000Y-94250000D02*
X125500000Y-94250000D01*
X129750000Y-70000000D02*
X131800000Y-70000000D01*
X125500000Y-94250000D02*
X127750000Y-92000000D01*
X131800000Y-70000000D02*
X133750000Y-71950000D01*
%TO.N,Net-(U1-PB3)*%
X116369768Y-80649000D02*
X119849000Y-80649000D01*
X115250000Y-79529232D02*
X116369768Y-80649000D01*
X145000000Y-100250000D02*
X150500000Y-100250000D01*
X123250000Y-87500000D02*
X124450000Y-88700000D01*
X143500000Y-98750000D02*
X145000000Y-100250000D01*
X119849000Y-80649000D02*
X119950000Y-80750000D01*
X150500000Y-100250000D02*
X152750000Y-102500000D01*
X152750000Y-102500000D02*
X152750000Y-102920000D01*
X115250000Y-77325000D02*
X115250000Y-79529232D01*
X124450000Y-88700000D02*
X127750000Y-88700000D01*
%TO.N,SWO*%
X154750000Y-102920000D02*
X158630000Y-102920000D01*
X158630000Y-102920000D02*
X159750000Y-104040000D01*
%TO.N,MENU_SW*%
X136420823Y-108170823D02*
X133500000Y-105250000D01*
X128250000Y-103424999D02*
X128250000Y-102675000D01*
X133000000Y-105250000D02*
X132466668Y-104716668D01*
X106250000Y-126750000D02*
X126000000Y-126750000D01*
X94250000Y-133000000D02*
X95750000Y-131500000D01*
X95750000Y-131500000D02*
X101500000Y-131500000D01*
X101500000Y-131500000D02*
X106250000Y-126750000D01*
X93660000Y-133000000D02*
X94250000Y-133000000D01*
X132466668Y-104716668D02*
X129541669Y-104716668D01*
X136420823Y-122585412D02*
X136420823Y-108170823D01*
X133500000Y-105250000D02*
X133000000Y-105250000D01*
X129541669Y-104716668D02*
X128250000Y-103424999D01*
%TO.N,SELECT_SW*%
X131918668Y-105418668D02*
X129243669Y-105418668D01*
X135051000Y-121759664D02*
X135030332Y-121780332D01*
X129901000Y-125099000D02*
X132750000Y-122250000D01*
X89651000Y-125099000D02*
X129901000Y-125099000D01*
X86250000Y-131410000D02*
X86250000Y-128500000D01*
X86250000Y-128500000D02*
X89651000Y-125099000D01*
X134501000Y-108000000D02*
X134500000Y-108000000D01*
X134560664Y-122250000D02*
X135030332Y-121780332D01*
X132750000Y-122250000D02*
X134560664Y-122250000D01*
X134500000Y-108000000D02*
X131918668Y-105418668D01*
X84660000Y-133000000D02*
X86250000Y-131410000D01*
X134501000Y-108000000D02*
X135051000Y-108550000D01*
X127250000Y-103424999D02*
X127250000Y-102675000D01*
X135051000Y-108550000D02*
X135051000Y-121759664D01*
X129243669Y-105418668D02*
X127250000Y-103424999D01*
%TO.N,SWCLK*%
X154825000Y-100420000D02*
X158670000Y-100420000D01*
X158670000Y-100420000D02*
X159750000Y-101500000D01*
%TO.N,Net-(U1-PA14)*%
X144750000Y-78500000D02*
X141250000Y-75000000D01*
X149250000Y-98000000D02*
X151670000Y-100420000D01*
X141250000Y-75000000D02*
X134386091Y-75000000D01*
X129399000Y-74101000D02*
X127250000Y-76250000D01*
X134386091Y-75000000D02*
X133487091Y-74101000D01*
X133487091Y-74101000D02*
X129399000Y-74101000D01*
X151670000Y-100420000D02*
X152825000Y-100420000D01*
X127250000Y-76250000D02*
X127250000Y-77325000D01*
%TO.N,DOWN_SW*%
X131530332Y-105969668D02*
X134500000Y-108939336D01*
X126750000Y-102675000D02*
X126750000Y-103424999D01*
X134500000Y-108939336D02*
X134500000Y-121250000D01*
X131509664Y-105949000D02*
X131530332Y-105969668D01*
X88661000Y-131999000D02*
X88661000Y-129339000D01*
X129274001Y-105949000D02*
X131509664Y-105949000D01*
X88661000Y-129339000D02*
X91750000Y-126250000D01*
X129755612Y-124748000D02*
X132753612Y-121750000D01*
X134000000Y-121750000D02*
X134500000Y-121250000D01*
X126750000Y-103424999D02*
X129274001Y-105949000D01*
X95949000Y-124748000D02*
X129755612Y-124748000D01*
X132753612Y-121750000D02*
X134000000Y-121750000D01*
X95750000Y-124549000D02*
X95949000Y-124748000D01*
X87660000Y-133000000D02*
X88661000Y-131999000D01*
%TO.N,Net-(D4-K)*%
X80000000Y-115725000D02*
X80000000Y-117925000D01*
%TO.N,VREF*%
X112750000Y-72500000D02*
X112750000Y-73500000D01*
X115250000Y-72575000D02*
X115250000Y-73500000D01*
X105825000Y-97750000D02*
X108149000Y-97750000D01*
X108149000Y-97750000D02*
X108899000Y-97000000D01*
X117750000Y-72537500D02*
X117750000Y-73500000D01*
%TO.N,UP_SW*%
X129392669Y-105067668D02*
X127750000Y-103424999D01*
X94750000Y-127000000D02*
X101750000Y-127000000D01*
X125250000Y-126000000D02*
X122750000Y-126000000D01*
X127750000Y-103424999D02*
X127750000Y-102675000D01*
X135750000Y-108000000D02*
X133500000Y-105750000D01*
X92000000Y-129750000D02*
X94750000Y-127000000D01*
X133500000Y-105750000D02*
X133000000Y-105750000D01*
X135750000Y-108000000D02*
X135750000Y-122250000D01*
X90660000Y-133000000D02*
X92000000Y-131660000D01*
X133000000Y-105750000D02*
X132317668Y-105067668D01*
X132317668Y-105067668D02*
X129392669Y-105067668D01*
X92000000Y-131660000D02*
X92000000Y-129750000D01*
%TO.N,Net-(D3-K)*%
X86250000Y-115575000D02*
X86250000Y-117750000D01*
%TO.N,SDMMC1_CK*%
X145358268Y-72365000D02*
X146387500Y-72365000D01*
X127989611Y-73014000D02*
X144709268Y-73014000D01*
X125250000Y-77325000D02*
X125250000Y-75753611D01*
X144709268Y-73014000D02*
X145358268Y-72365000D01*
X125250000Y-75753611D02*
X127989611Y-73014000D01*
%TO.N,Net-(D2-K)*%
X83250000Y-115750000D02*
X83250000Y-117925000D01*
%TO.N,Net-(R7-Pad1)*%
X126700000Y-67250000D02*
X126450000Y-67000000D01*
X128750000Y-67250000D02*
X126700000Y-67250000D01*
%TO.N,CANL2*%
X140250000Y-63710000D02*
X140250000Y-65750000D01*
X139885000Y-91525000D02*
X139885000Y-89662818D01*
X138790000Y-62250000D02*
X140250000Y-63710000D01*
X139885000Y-89662818D02*
X139486091Y-89263909D01*
X140250000Y-68500000D02*
X140250000Y-65750000D01*
%TO.N,CANH2*%
X138250000Y-64250000D02*
X138250000Y-65750000D01*
X138250000Y-68000000D02*
X138250000Y-65750000D01*
X138750000Y-68500000D02*
X138250000Y-68000000D01*
X138615000Y-88865000D02*
X138500000Y-88750000D01*
X136250000Y-62250000D02*
X138250000Y-64250000D01*
X138615000Y-91525000D02*
X138615000Y-88865000D01*
%TO.N,CANL1*%
X136000000Y-64540000D02*
X136000000Y-65750000D01*
X137625000Y-68625000D02*
X136000000Y-67000000D01*
X133710000Y-62250000D02*
X136000000Y-64540000D01*
X133710000Y-62250000D02*
X133710000Y-59750000D01*
X136500000Y-56850000D02*
X133710000Y-59640000D01*
X133710000Y-59640000D02*
X133710000Y-59750000D01*
X136000000Y-67000000D02*
X136000000Y-65750000D01*
X138385000Y-78275000D02*
X138385000Y-76615000D01*
X138385000Y-76615000D02*
X138500000Y-76500000D01*
%TO.N,CANH1*%
X137115000Y-78275000D02*
X137115000Y-76615000D01*
X134250000Y-66000000D02*
X134000000Y-65750000D01*
X134250000Y-67000000D02*
X134250000Y-66000000D01*
X134000000Y-65080000D02*
X131170000Y-62250000D01*
X134000000Y-65750000D02*
X134000000Y-65080000D01*
X137115000Y-76615000D02*
X137000000Y-76500000D01*
X135875000Y-68625000D02*
X134250000Y-67000000D01*
%TO.N,SDMMC1_CMD*%
X146387500Y-70365000D02*
X146387500Y-70615000D01*
X146387500Y-70615000D02*
X146137500Y-70865000D01*
X123750000Y-77325000D02*
X123750000Y-76149000D01*
X124520389Y-75378611D02*
X125128611Y-75378611D01*
X128007222Y-72500000D02*
X144252500Y-72500000D01*
X144252500Y-72500000D02*
X146387500Y-70365000D01*
X123750000Y-76149000D02*
X124520389Y-75378611D01*
X125128611Y-75378611D02*
X128007222Y-72500000D01*
%TO.N,SDMMC1_D1*%
X137551000Y-80149000D02*
X143921500Y-80149000D01*
X135000000Y-86199000D02*
X131226000Y-86199000D01*
X144137500Y-80365000D02*
X146387500Y-80365000D01*
X137500000Y-80200000D02*
X137551000Y-80149000D01*
X143921500Y-80149000D02*
X144137500Y-80365000D01*
X131226000Y-86199000D02*
X131175000Y-86250000D01*
%TO.N,SDMMC1_D0*%
X141699000Y-74300000D02*
X135000000Y-74300000D01*
X132749000Y-86750000D02*
X132750000Y-86751000D01*
X146387500Y-78365000D02*
X145764000Y-78365000D01*
X145764000Y-78365000D02*
X141699000Y-74300000D01*
X131175000Y-86750000D02*
X132749000Y-86750000D01*
%TO.N,SDMMC1_D2*%
X143772500Y-73750000D02*
X145137500Y-75115000D01*
X126250000Y-76256233D02*
X128756233Y-73750000D01*
X126250000Y-77325000D02*
X126250000Y-76256233D01*
X146387500Y-76365000D02*
X145137500Y-75115000D01*
X128756233Y-73750000D02*
X143772500Y-73750000D01*
%TO.N,SDMMC1_D3*%
X146137500Y-74365000D02*
X145137500Y-73365000D01*
X145137500Y-73365000D02*
X128135000Y-73365000D01*
X146387500Y-74365000D02*
X146137500Y-74365000D01*
X125750000Y-77325000D02*
X125750000Y-75750000D01*
X128135000Y-73365000D02*
X126250000Y-75250000D01*
X125750000Y-75750000D02*
X126250000Y-75250000D01*
%TO.N,Net-(U1-BOOT0)*%
X122750000Y-61500000D02*
X121875000Y-62375000D01*
X123050000Y-61500000D02*
X122750000Y-61500000D01*
X121500000Y-73700000D02*
X121875000Y-73325000D01*
X121875000Y-62375000D02*
X120500000Y-63750000D01*
X112750000Y-77325000D02*
X112750000Y-76002000D01*
X121875000Y-73325000D02*
X121875000Y-62375000D01*
%TO.N,Net-(J17-D--PadA7)*%
X154250000Y-89500000D02*
X145162500Y-89500000D01*
X154500000Y-89250000D02*
X154250000Y-89500000D01*
%TO.N,Net-(J17-CC2)*%
X158000000Y-95000000D02*
X159750000Y-93250000D01*
X145500000Y-97000000D02*
X147436091Y-95063909D01*
X151000000Y-95000000D02*
X158000000Y-95000000D01*
X158850000Y-87100000D02*
X158250000Y-87100000D01*
X147436091Y-95063909D02*
X149250000Y-95063909D01*
X159750000Y-93250000D02*
X159750000Y-88000000D01*
X159750000Y-88000000D02*
X158850000Y-87100000D01*
%TO.N,MICROSD_DET*%
X159250000Y-66965000D02*
X159250000Y-60500000D01*
X156600000Y-69615000D02*
X155887500Y-70327500D01*
X133632552Y-87302000D02*
X134184552Y-86750000D01*
X134184552Y-86750000D02*
X136000000Y-86750000D01*
X156600000Y-69615000D02*
X159250000Y-66965000D01*
X131227000Y-87302000D02*
X133632552Y-87302000D01*
X155887500Y-71112500D02*
X155750000Y-71250000D01*
X155887500Y-70327500D02*
X155887500Y-71112500D01*
X155425000Y-69865000D02*
X155887500Y-70327500D01*
X154887500Y-69865000D02*
X155425000Y-69865000D01*
X154800000Y-80450000D02*
X153440621Y-81809379D01*
X153440621Y-81809379D02*
X139293453Y-81809379D01*
X159250000Y-60500000D02*
X157324500Y-58574500D01*
X131175000Y-87250000D02*
X131227000Y-87302000D01*
X154875000Y-80450000D02*
X154800000Y-80450000D01*
X136000000Y-86750000D02*
X136250000Y-86500000D01*
D71*
%TO.N,Net-(U7-FB)*%
X80500000Y-70500000D02*
X83000000Y-70500000D01*
X83000000Y-70500000D02*
X83000000Y-69412500D01*
X83000000Y-69412500D02*
X82112500Y-68525000D01*
%TO.N,LED+*%
X78000000Y-73000000D02*
X78000000Y-74187500D01*
X77000000Y-61500000D02*
X75000000Y-61500000D01*
D70*
X73800000Y-83750000D02*
X74500000Y-83050000D01*
D71*
X78000000Y-74187500D02*
X77687500Y-74500000D01*
D70*
X73000000Y-83750000D02*
X73800000Y-83750000D01*
X74500000Y-83050000D02*
X74500000Y-82500000D01*
D71*
X83000000Y-72500000D02*
X83000000Y-73500000D01*
%TO.N,Net-(LED1-A)*%
X101500000Y-71456250D02*
X101500000Y-68743750D01*
X101500000Y-68743750D02*
X101537500Y-68706250D01*
D72*
%TO.N,+5V*%
X95000000Y-66462500D02*
X95000000Y-66000000D01*
D71*
X84387500Y-68525000D02*
X85975000Y-68525000D01*
X94300000Y-64200000D02*
X94250000Y-64250000D01*
X97150000Y-53525000D02*
X96025000Y-53525000D01*
D72*
X158000000Y-118250000D02*
X159175000Y-118250000D01*
D71*
X86750000Y-48750000D02*
X87750000Y-49750000D01*
X90537500Y-66462500D02*
X90500000Y-66500000D01*
X90500000Y-61500000D02*
X90500000Y-63000000D01*
X95000000Y-66462500D02*
X95000000Y-65250000D01*
X85925000Y-67575000D02*
X86000000Y-67500000D01*
X87000000Y-51250000D02*
X87250000Y-51500000D01*
X85975000Y-68525000D02*
X86000000Y-68500000D01*
X84387500Y-67575000D02*
X85925000Y-67575000D01*
X87250000Y-56250000D02*
X87500000Y-56500000D01*
X88500000Y-69075000D02*
X88500000Y-68000000D01*
X85750000Y-53750000D02*
X87250000Y-53750000D01*
X94300000Y-61500000D02*
X94300000Y-64200000D01*
X96025000Y-53525000D02*
X96000000Y-53500000D01*
D72*
X159175000Y-118250000D02*
X159425000Y-118500000D01*
D71*
X87550000Y-69075000D02*
X87550000Y-68050000D01*
X85750000Y-48750000D02*
X86750000Y-48750000D01*
X87550000Y-68050000D02*
X87500000Y-68000000D01*
X85825000Y-51250000D02*
X87000000Y-51250000D01*
X92500000Y-66462500D02*
X90537500Y-66462500D01*
X90500000Y-63000000D02*
X92000000Y-64500000D01*
X85750000Y-56250000D02*
X87250000Y-56250000D01*
X87250000Y-53750000D02*
X87500000Y-54000000D01*
X92000000Y-53475000D02*
X92000000Y-56000000D01*
D72*
X145462500Y-117750000D02*
X147000000Y-117750000D01*
D71*
%TO.N,Net-(D5-A)*%
X81000000Y-61500000D02*
X85050000Y-61500000D01*
X81000000Y-65512500D02*
X82112500Y-66625000D01*
X81000000Y-61500000D02*
X81000000Y-65512500D01*
D70*
%TO.N,FDCAN1_RX*%
X138450000Y-80750000D02*
X138500000Y-80700000D01*
X131175000Y-80750000D02*
X138450000Y-80750000D01*
X138500000Y-81800000D02*
X138550000Y-81800000D01*
X138500000Y-81800000D02*
X138506256Y-81800000D01*
X138506256Y-81800000D02*
X139655000Y-82948744D01*
X139655000Y-82948744D02*
X139655000Y-83225000D01*
X139655000Y-82905000D02*
X139655000Y-83225000D01*
%TO.N,FDCAN1_TX*%
X134122184Y-84000000D02*
X135070000Y-84000000D01*
X132250000Y-81250000D02*
X132500000Y-81500000D01*
X131175000Y-81250000D02*
X132250000Y-81250000D01*
X133700001Y-83577817D02*
X134122184Y-84000000D01*
X135070000Y-84000000D02*
X135845000Y-83225000D01*
%TO.N,FDCAN2_RX*%
X141155000Y-96475000D02*
X141155000Y-97845000D01*
X141155000Y-97845000D02*
X140750000Y-98250000D01*
X131175000Y-99250000D02*
X138104999Y-99250000D01*
%TO.N,FDCAN2_TX*%
X136500000Y-98750000D02*
X137345000Y-97905000D01*
X131175000Y-98750000D02*
X136500000Y-98750000D01*
X137345000Y-97905000D02*
X137345000Y-96475000D01*
%TO.N,LED3*%
X80079232Y-107925000D02*
X80000000Y-108004232D01*
X104575621Y-82750000D02*
X104174621Y-83151000D01*
X105825000Y-82750000D02*
X104575621Y-82750000D01*
X104174621Y-83151000D02*
X96500000Y-83151000D01*
X80000000Y-108004232D02*
X80000000Y-113675000D01*
%TO.N,LTDC_R3*%
X111591111Y-105083888D02*
X113250000Y-103424999D01*
X98030333Y-106450001D02*
X101950001Y-106450001D01*
X94000000Y-87000000D02*
X93918668Y-87081332D01*
X76068008Y-86750000D02*
X76409004Y-87090996D01*
X98030332Y-106450000D02*
X98030333Y-106450001D01*
X93918668Y-87081332D02*
X76460004Y-87081332D01*
X73000000Y-86750000D02*
X76068008Y-86750000D01*
X101950001Y-106450001D02*
X102702000Y-107202000D01*
X76460004Y-87081332D02*
X76439336Y-87060664D01*
X110583887Y-105083888D02*
X111591111Y-105083888D01*
X108465775Y-107202000D02*
X110583887Y-105083888D01*
X113250000Y-103424999D02*
X113250000Y-102675000D01*
X102702000Y-107202000D02*
X108465775Y-107202000D01*
%TO.N,LTDC_R7*%
X123496388Y-92500000D02*
X117500000Y-92500000D01*
X81500000Y-80000000D02*
X72000000Y-80000000D01*
X72200000Y-88750000D02*
X71654075Y-88204075D01*
X71654075Y-88204075D02*
X71654075Y-87926257D01*
X73000000Y-88750000D02*
X72200000Y-88750000D01*
X131175000Y-90250000D02*
X125746388Y-90250000D01*
X125746388Y-90250000D02*
X123496388Y-92500000D01*
X85500000Y-74000000D02*
X84000000Y-75500000D01*
X82500000Y-79000000D02*
X81500000Y-80000000D01*
X105750000Y-74000000D02*
X85500000Y-74000000D01*
%TO.N,LTDC_G5*%
X100181039Y-97500000D02*
X92500000Y-97500000D01*
X92500000Y-97500000D02*
X91449000Y-96449000D01*
X104000000Y-100800000D02*
X104351000Y-101151000D01*
X106637112Y-101151000D02*
X110538112Y-97250000D01*
X100592647Y-97911608D02*
X100181039Y-97500000D01*
X121529232Y-97250000D02*
X125250000Y-100970768D01*
X110538112Y-97250000D02*
X121529232Y-97250000D01*
X91449000Y-96449000D02*
X79051000Y-96449000D01*
X103077817Y-100799999D02*
X103077818Y-100800000D01*
X73000000Y-91750000D02*
X77750000Y-91750000D01*
X103077818Y-100800000D02*
X104000000Y-100800000D01*
X77750000Y-91750000D02*
X78000000Y-92000000D01*
X79051000Y-96449000D02*
X79000000Y-96500000D01*
X104351000Y-101151000D02*
X106637112Y-101151000D01*
X125250000Y-100970768D02*
X125250000Y-102675000D01*
%TO.N,SPI_CE*%
X106745821Y-79920822D02*
X108079178Y-79920822D01*
X109730000Y-60775000D02*
X109730000Y-64270000D01*
X105825000Y-79750000D02*
X106574999Y-79750000D01*
X105250000Y-65000000D02*
X109000000Y-65000000D01*
X109730000Y-64270000D02*
X109000000Y-65000000D01*
X108079178Y-79920822D02*
X108250000Y-79750000D01*
X106574999Y-79750000D02*
X106745821Y-79920822D01*
%TO.N,LTDC_G7*%
X93000000Y-83500000D02*
X92000000Y-84500000D01*
X103851000Y-83502000D02*
X96928232Y-83502000D01*
X123250000Y-77325000D02*
X123250000Y-78750000D01*
X108000000Y-84500000D02*
X107500000Y-84000000D01*
X123250000Y-78750000D02*
X123000000Y-79000000D01*
X121000000Y-84500000D02*
X108000000Y-84500000D01*
X96928232Y-83502000D02*
X96728232Y-83702000D01*
X104050000Y-83701000D02*
X103851000Y-83502000D01*
X89750000Y-92750000D02*
X73000000Y-92750000D01*
X90000000Y-92500000D02*
X89750000Y-92750000D01*
X96069768Y-83500000D02*
X93000000Y-83500000D01*
X123000000Y-79000000D02*
X123000000Y-82500000D01*
X123000000Y-82500000D02*
X121000000Y-84500000D01*
X96728232Y-83702000D02*
X96271768Y-83702000D01*
X96271768Y-83702000D02*
X96069768Y-83500000D01*
%TO.N,SPI_CLK*%
X110750000Y-102675000D02*
X110750000Y-101299000D01*
X113000000Y-80450000D02*
X113000000Y-78950000D01*
X110750000Y-101299000D02*
X113050000Y-98999000D01*
X110750000Y-102675000D02*
X110750000Y-103424999D01*
%TO.N,D-*%
X132000000Y-84250000D02*
X133250000Y-85500000D01*
X143337500Y-89500000D02*
X140500000Y-89500000D01*
X133250000Y-85500000D02*
X136500000Y-85500000D01*
X131175000Y-84250000D02*
X132000000Y-84250000D01*
X136500000Y-85500000D02*
X140500000Y-89500000D01*
%TO.N,LTDC_B2*%
X87000000Y-93500000D02*
X86250000Y-94250000D01*
X91449000Y-82051000D02*
X89500000Y-84000000D01*
X120750000Y-77325000D02*
X120750000Y-81029232D01*
X119228232Y-82551000D02*
X107551000Y-82551000D01*
X107551000Y-82551000D02*
X107500000Y-82500000D01*
X103999000Y-82051000D02*
X91449000Y-82051000D01*
X120750000Y-81029232D02*
X119228232Y-82551000D01*
X86250000Y-94250000D02*
X73000000Y-94250000D01*
X104050000Y-82000000D02*
X103999000Y-82051000D01*
%TO.N,LTDC_VSYNC*%
X105823000Y-84252000D02*
X93027232Y-84252000D01*
X93027232Y-84252000D02*
X92130232Y-85149000D01*
X87928232Y-85149000D02*
X85678232Y-82899000D01*
X92130232Y-85149000D02*
X87928232Y-85149000D01*
X70500000Y-98500000D02*
X71250000Y-99250000D01*
X71250000Y-99250000D02*
X73000000Y-99250000D01*
X85678232Y-82899000D02*
X77301000Y-82899000D01*
X77301000Y-82899000D02*
X75500000Y-84700000D01*
X105825000Y-84250000D02*
X105823000Y-84252000D01*
%TO.N,USART1_TX*%
X143750000Y-93500000D02*
X142250000Y-95000000D01*
X145500000Y-93000000D02*
X145000000Y-93500000D01*
X133750000Y-98250000D02*
X131175000Y-98250000D01*
X145000000Y-93500000D02*
X143750000Y-93500000D01*
X143500000Y-57500000D02*
X152210000Y-57500000D01*
X137000000Y-95000000D02*
X133750000Y-98250000D01*
X152210000Y-57500000D02*
X153750000Y-55960000D01*
X141700000Y-64750000D02*
X143197527Y-63252473D01*
X142250000Y-95000000D02*
X137000000Y-95000000D01*
X143197527Y-63252473D02*
X143399000Y-63252473D01*
%TO.N,LTDC_R2*%
X102979332Y-98979332D02*
X103000000Y-99000000D01*
X103250000Y-99250000D02*
X103000000Y-99000000D01*
X83520668Y-98979332D02*
X102979332Y-98979332D01*
X80450000Y-97000000D02*
X81500000Y-97000000D01*
X81500000Y-97000000D02*
X83500000Y-99000000D01*
X73000000Y-86250000D02*
X76628672Y-86250000D01*
X76628672Y-86250000D02*
X76939336Y-86560664D01*
X83500000Y-99000000D02*
X83520668Y-98979332D01*
X105825000Y-99250000D02*
X103250000Y-99250000D01*
%TO.N,LTDC_CLK*%
X107298340Y-91500000D02*
X124000000Y-91500000D01*
X104450000Y-103000000D02*
X105450000Y-104000000D01*
X125750000Y-89750000D02*
X131175000Y-89750000D01*
X103000000Y-103000000D02*
X104450000Y-103000000D01*
X90750000Y-101399000D02*
X100999000Y-101399000D01*
X81000000Y-101550000D02*
X81599000Y-102149000D01*
X78250000Y-97750000D02*
X78500000Y-98000000D01*
X90000000Y-102149000D02*
X90750000Y-101399000D01*
X105450000Y-104000000D02*
X106500000Y-104000000D01*
X73000000Y-97750000D02*
X78250000Y-97750000D01*
X81599000Y-102149000D02*
X90000000Y-102149000D01*
X100999000Y-101399000D02*
X101000000Y-101400000D01*
X124000000Y-91500000D02*
X125750000Y-89750000D01*
%TO.N,VBUS*%
X145500000Y-102000000D02*
X143750000Y-100250000D01*
X145500000Y-102000000D02*
X147750000Y-102000000D01*
X136500000Y-91000000D02*
X136500000Y-92500000D01*
X136500000Y-92500000D02*
X137250000Y-93250000D01*
X134750000Y-89250000D02*
X136500000Y-91000000D01*
X129750000Y-85250000D02*
X128750000Y-86250000D01*
X134750000Y-89250000D02*
X134801000Y-89199000D01*
X131175000Y-85250000D02*
X129750000Y-85250000D01*
%TO.N,LTDC_G2*%
X77851000Y-104351000D02*
X102790336Y-104351000D01*
X102790336Y-104351000D02*
X103969668Y-105530332D01*
X111250000Y-103424999D02*
X108174999Y-106500000D01*
X74950000Y-90250000D02*
X75000000Y-90200000D01*
X108174999Y-106500000D02*
X104939336Y-106500000D01*
X73000000Y-90250000D02*
X74950000Y-90250000D01*
X77000000Y-103500000D02*
X77851000Y-104351000D01*
X111250000Y-102675000D02*
X111250000Y-103424999D01*
X104939336Y-106500000D02*
X103969668Y-105530332D01*
%TO.N,LTDC_B5*%
X100050000Y-98429332D02*
X100050000Y-98250000D01*
X100050000Y-98250000D02*
X99800000Y-98000000D01*
X107326000Y-101674000D02*
X108462112Y-101674000D01*
X102300000Y-100800000D02*
X103099000Y-101599000D01*
X108462112Y-101674000D02*
X108750000Y-101961888D01*
X82851000Y-95750000D02*
X73000000Y-95750000D01*
X101500000Y-100800000D02*
X102300000Y-100800000D01*
X105496388Y-102500000D02*
X106500000Y-102500000D01*
X85000000Y-98000000D02*
X84000000Y-97000000D01*
X106500000Y-102500000D02*
X107326000Y-101674000D01*
X108750000Y-101961888D02*
X108750000Y-102675000D01*
X103099000Y-101599000D02*
X104595388Y-101599000D01*
X83000000Y-95899000D02*
X82851000Y-95750000D01*
X99800000Y-98000000D02*
X85000000Y-98000000D01*
X104595388Y-101599000D02*
X105496388Y-102500000D01*
%TO.N,UART5_RX*%
X118119768Y-74601000D02*
X116717768Y-76003000D01*
X151450000Y-66300000D02*
X156000000Y-61750000D01*
X114250000Y-76575001D02*
X114250000Y-77325000D01*
X140800000Y-67750000D02*
X141335411Y-67750000D01*
X154500000Y-58500000D02*
X153750000Y-58500000D01*
X141750000Y-67500000D02*
X142950000Y-66300000D01*
X123174620Y-74601000D02*
X118119768Y-74601000D01*
X141585411Y-67500000D02*
X141750000Y-67500000D01*
X114822001Y-76003000D02*
X114250000Y-76575001D01*
X125778525Y-72278525D02*
X125497095Y-72278525D01*
X156000000Y-61750000D02*
X156000000Y-60000000D01*
X142950000Y-66300000D02*
X151450000Y-66300000D01*
X156000000Y-60000000D02*
X154500000Y-58500000D01*
X125497095Y-72278525D02*
X123174620Y-74601000D01*
X116717768Y-76003000D02*
X114822001Y-76003000D01*
X141335411Y-67750000D02*
X141585411Y-67500000D01*
%TO.N,LTDC_R5*%
X129000000Y-95750000D02*
X109250000Y-95750000D01*
X94051000Y-96551000D02*
X94000000Y-96500000D01*
X75030332Y-87969668D02*
X76060664Y-89000000D01*
X109250000Y-95750000D02*
X108300000Y-94800000D01*
X76060664Y-89000000D02*
X90000000Y-89000000D01*
X90000000Y-89000000D02*
X90500000Y-88500000D01*
X129250000Y-101800000D02*
X129550000Y-101500000D01*
X73000000Y-87750000D02*
X74750000Y-87750000D01*
X102949000Y-96551000D02*
X104250000Y-95250000D01*
X129250000Y-102675000D02*
X129250000Y-101800000D01*
X104250000Y-95250000D02*
X104550000Y-95250000D01*
X102949000Y-96551000D02*
X94051000Y-96551000D01*
X74750000Y-87750000D02*
X75000000Y-88000000D01*
X90500000Y-88500000D02*
X92500000Y-88500000D01*
X108300000Y-94800000D02*
X107349000Y-94800000D01*
%TO.N,SPI_MOSI*%
X113800002Y-99874999D02*
X113800002Y-99000071D01*
X111750000Y-101925001D02*
X113800002Y-99874999D01*
X113736091Y-78963909D02*
X113750000Y-78950000D01*
X113736091Y-80263909D02*
X113736091Y-78963909D01*
X111750000Y-102675000D02*
X111750000Y-101925001D01*
%TO.N,LTDC_R4*%
X110284500Y-98000000D02*
X115000000Y-98000000D01*
X104786091Y-104113909D02*
X103613909Y-104113909D01*
X75929672Y-87611664D02*
X93111664Y-87611664D01*
X75909004Y-87590996D02*
X75929672Y-87611664D01*
X96500000Y-104000000D02*
X95550000Y-103050000D01*
X116250000Y-96700000D02*
X116450000Y-96500000D01*
X75507344Y-87250000D02*
X75878672Y-87621328D01*
X106782501Y-101502000D02*
X110284500Y-98000000D01*
X103500000Y-104000000D02*
X96500000Y-104000000D01*
X128750000Y-101500000D02*
X127750000Y-100500000D01*
X106498000Y-101502000D02*
X106782501Y-101502000D01*
X103613909Y-104113909D02*
X103500000Y-104000000D01*
X128750000Y-102675000D02*
X128750000Y-101500000D01*
X93111664Y-87611664D02*
X93500000Y-88000000D01*
X105950000Y-101701000D02*
X106299000Y-101701000D01*
X106299000Y-101701000D02*
X106498000Y-101502000D01*
X73000000Y-87250000D02*
X75507344Y-87250000D01*
X124663678Y-96500000D02*
X127529332Y-99365654D01*
X116450000Y-96500000D02*
X124663678Y-96500000D01*
%TO.N,LED2*%
X86250000Y-113525000D02*
X86250000Y-111175000D01*
X85775000Y-113525000D02*
X86250000Y-113525000D01*
X83000000Y-105550000D02*
X83000000Y-107925000D01*
X104228232Y-82601000D02*
X95000000Y-82601000D01*
X104579232Y-82250000D02*
X104228232Y-82601000D01*
X105825000Y-82250000D02*
X104579232Y-82250000D01*
X86250000Y-111175000D02*
X83000000Y-107925000D01*
%TO.N,LTDC_R1*%
X105825000Y-99750000D02*
X102689336Y-99750000D01*
X73000000Y-85750000D02*
X77189336Y-85750000D01*
X102689336Y-99750000D02*
X102469668Y-99530332D01*
X83530332Y-99530332D02*
X102469668Y-99530332D01*
X82449000Y-98449000D02*
X83530332Y-99530332D01*
X77189336Y-85750000D02*
X77469668Y-86030332D01*
X81000000Y-98500000D02*
X81051000Y-98449000D01*
X81051000Y-98449000D02*
X82449000Y-98449000D01*
%TO.N,D+*%
X143122884Y-87889616D02*
X139610384Y-87889616D01*
X133750000Y-85000000D02*
X136720768Y-85000000D01*
X132500000Y-83750000D02*
X133750000Y-85000000D01*
X131175000Y-83750000D02*
X132500000Y-83750000D01*
X143262500Y-87750000D02*
X143122884Y-87889616D01*
X136720768Y-85000000D02*
X139610384Y-87889616D01*
%TO.N,LTDC_STDBY*%
X103851000Y-106851000D02*
X108320387Y-106851000D01*
X98000000Y-105000000D02*
X98500000Y-105500000D01*
X110585693Y-104585694D02*
X111589305Y-104585694D01*
X71500000Y-98250000D02*
X73000000Y-98250000D01*
X112750000Y-103424999D02*
X112750000Y-102675000D01*
X108320387Y-106851000D02*
X110585693Y-104585694D01*
X111589305Y-104585694D02*
X112750000Y-103424999D01*
X102500000Y-105500000D02*
X103851000Y-106851000D01*
X98500000Y-105500000D02*
X102500000Y-105500000D01*
X77500000Y-105000000D02*
X98000000Y-105000000D01*
%TO.N,SPI_MISO*%
X118250000Y-63250000D02*
X117285000Y-63250000D01*
X117285000Y-63250000D02*
X114810000Y-60775000D01*
X118500000Y-63500000D02*
X118250000Y-63250000D01*
X119750000Y-77325000D02*
X119750000Y-79000000D01*
%TO.N,LTDC_G6*%
X105073620Y-85250000D02*
X104223620Y-86100000D01*
X104223620Y-86100000D02*
X97500000Y-86100000D01*
X82000000Y-83450000D02*
X82000000Y-84550000D01*
X105825000Y-85250000D02*
X105073620Y-85250000D01*
X73000000Y-92250000D02*
X72200000Y-92250000D01*
X84500000Y-86000000D02*
X93450000Y-86000000D01*
X75450000Y-81000000D02*
X81500000Y-81000000D01*
X69399000Y-89449000D02*
X69399000Y-89000000D01*
X93450000Y-86000000D02*
X93500000Y-86050000D01*
X72200000Y-92250000D02*
X69399000Y-89449000D01*
X75000000Y-80550000D02*
X75450000Y-81000000D01*
%TO.N,LED1*%
X103003025Y-98429842D02*
X103614933Y-98429842D01*
X83250000Y-112425000D02*
X84000000Y-111675000D01*
X103614933Y-98429842D02*
X103935091Y-98750000D01*
X103935091Y-98750000D02*
X105825000Y-98750000D01*
X83250000Y-113700000D02*
X83250000Y-112425000D01*
%TO.N,Net-(U1-PH0)*%
X101500000Y-94100000D02*
X102900000Y-94100000D01*
X102900000Y-94100000D02*
X103750000Y-93250000D01*
X103750000Y-93250000D02*
X105825000Y-93250000D01*
X101500000Y-92000000D02*
X101500000Y-94100000D01*
%TO.N,UART5_TX*%
X149040000Y-65750000D02*
X153750000Y-61040000D01*
X142250000Y-65750000D02*
X149040000Y-65750000D01*
X115098000Y-75652000D02*
X114598000Y-75652000D01*
X115250000Y-75500000D02*
X115098000Y-75652000D01*
X125848780Y-71246817D02*
X125848780Y-71430452D01*
X141000000Y-67000000D02*
X142250000Y-65750000D01*
X117029232Y-74250000D02*
X115779232Y-75500000D01*
X114598000Y-75652000D02*
X113750000Y-76500000D01*
X125848780Y-71430452D02*
X123029232Y-74250000D01*
X115779232Y-75500000D02*
X115250000Y-75500000D01*
X123029232Y-74250000D02*
X117029232Y-74250000D01*
X113750000Y-76500000D02*
X113750000Y-77325000D01*
%TO.N,LTDC_B0*%
X74000000Y-75500000D02*
X83000000Y-75500000D01*
X105825000Y-80250000D02*
X105075001Y-80250000D01*
X104500000Y-79674999D02*
X104500000Y-78500000D01*
X84851000Y-73649000D02*
X100801000Y-73649000D01*
X68500000Y-89550000D02*
X68500000Y-89500000D01*
X105075001Y-80250000D02*
X104500000Y-79674999D01*
X100801000Y-73649000D02*
X101000000Y-73450000D01*
X83000000Y-75500000D02*
X84851000Y-73649000D01*
X73000000Y-93250000D02*
X72200000Y-93250000D01*
X72200000Y-93250000D02*
X68500000Y-89550000D01*
%TO.N,LTDC_R0*%
X82000000Y-99000000D02*
X83250000Y-100250000D01*
X77750000Y-85250000D02*
X78000000Y-85500000D01*
X73000000Y-85250000D02*
X77750000Y-85250000D01*
X83250000Y-100250000D02*
X105825000Y-100250000D01*
%TO.N,LTDC_HSYNC*%
X73000000Y-98750000D02*
X74250000Y-98750000D01*
X87500000Y-85500000D02*
X86000000Y-84000000D01*
X74250000Y-98750000D02*
X74500000Y-98500000D01*
X98950000Y-85550000D02*
X104277232Y-85550000D01*
X95500000Y-85500000D02*
X87500000Y-85500000D01*
X104277232Y-85550000D02*
X105077232Y-84750000D01*
X105077232Y-84750000D02*
X105825000Y-84750000D01*
X96000000Y-85000000D02*
X95500000Y-85500000D01*
%TO.N,LTDC_G3*%
X88000000Y-74500000D02*
X87000000Y-75500000D01*
X119250000Y-75750000D02*
X119000000Y-75500000D01*
X115949000Y-74551000D02*
X89301000Y-74551000D01*
X89301000Y-74551000D02*
X89250000Y-74500000D01*
X85500000Y-91000000D02*
X85250000Y-90750000D01*
X89250000Y-74500000D02*
X88000000Y-74500000D01*
X116000000Y-74500000D02*
X115949000Y-74551000D01*
X85250000Y-90750000D02*
X73000000Y-90750000D01*
X119250000Y-77325000D02*
X119250000Y-75750000D01*
%TO.N,LTDC_B6*%
X108250000Y-78074999D02*
X107998999Y-78326000D01*
X107326000Y-78326000D02*
X106000000Y-77000000D01*
X105614908Y-76614908D02*
X90000000Y-76614908D01*
X77000000Y-96300000D02*
X76950000Y-96250000D01*
X107998999Y-78326000D02*
X107326000Y-78326000D01*
X106000000Y-77000000D02*
X105614908Y-76614908D01*
X77700000Y-93300000D02*
X77500000Y-93500000D01*
X76950000Y-96250000D02*
X73000000Y-96250000D01*
X108250000Y-77325000D02*
X108250000Y-78074999D01*
X77500000Y-93500000D02*
X77450000Y-93500000D01*
X84500000Y-93300000D02*
X77700000Y-93300000D01*
%TO.N,LTDC_B4*%
X93551000Y-79000000D02*
X91000000Y-81551000D01*
X94000000Y-79000000D02*
X93551000Y-79000000D01*
X72674642Y-81551000D02*
X71225642Y-83000000D01*
X103944140Y-77164908D02*
X103000000Y-77164908D01*
X67950000Y-83550000D02*
X67950000Y-85000000D01*
X71250000Y-95250000D02*
X73000000Y-95250000D01*
X71000000Y-95000000D02*
X71250000Y-95250000D01*
X91000000Y-81551000D02*
X72674642Y-81551000D01*
X108611112Y-78677000D02*
X105456232Y-78677000D01*
X68500000Y-83000000D02*
X67950000Y-83550000D01*
X109250000Y-77325000D02*
X109250000Y-78038112D01*
X109250000Y-78038112D02*
X108611112Y-78677000D01*
X105456232Y-78677000D02*
X103944140Y-77164908D01*
X71225642Y-83000000D02*
X68500000Y-83000000D01*
%TO.N,Net-(C2-Pad1)*%
X131175000Y-82750000D02*
X128529232Y-82750000D01*
X139462500Y-104037500D02*
X139500000Y-104000000D01*
X137000000Y-104037500D02*
X139462500Y-104037500D01*
X128529232Y-82750000D02*
X128103232Y-82324000D01*
X133286888Y-104075000D02*
X134500000Y-104075000D01*
X127521768Y-99949000D02*
X129160888Y-99949000D01*
X134500000Y-104075000D02*
X134925000Y-104075000D01*
X126500000Y-100970768D02*
X127521768Y-99949000D01*
X126000000Y-101500000D02*
X126500000Y-101000000D01*
X129160888Y-99949000D02*
X133286888Y-104075000D01*
X126926000Y-82324000D02*
X126500000Y-82750000D01*
X126000000Y-101500000D02*
X125750000Y-101750000D01*
X134925000Y-104075000D02*
X134962500Y-104037500D01*
X125750000Y-101750000D02*
X125750000Y-102675000D01*
X126500000Y-101000000D02*
X126500000Y-100970768D01*
X126000000Y-98722181D02*
X126000000Y-101500000D01*
X142000000Y-104000000D02*
X139500000Y-104000000D01*
X128103232Y-82324000D02*
X126926000Y-82324000D01*
X134962500Y-104037500D02*
X137000000Y-104037500D01*
%TO.N,LTDC_G4*%
X107425000Y-103000000D02*
X107750000Y-102675000D01*
X73000000Y-91250000D02*
X81970768Y-91250000D01*
X91399000Y-91949000D02*
X91613909Y-92163909D01*
X81970768Y-91250000D02*
X82802100Y-92081332D01*
X86390896Y-91949000D02*
X91399000Y-91949000D01*
X93500000Y-101950000D02*
X104450000Y-101950000D01*
X86258564Y-92081332D02*
X86390896Y-91949000D01*
X105500000Y-103000000D02*
X107425000Y-103000000D01*
X104450000Y-101950000D02*
X105500000Y-103000000D01*
X82802100Y-92081332D02*
X86258564Y-92081332D01*
%TO.N,LTDC_B7*%
X91700000Y-72899000D02*
X105648000Y-72899000D01*
X71750000Y-96750000D02*
X71500000Y-96500000D01*
X91500000Y-73099000D02*
X91700000Y-72899000D01*
X105648000Y-72899000D02*
X106750000Y-74001000D01*
X111140112Y-76002000D02*
X110500000Y-76002000D01*
X111750000Y-77325000D02*
X111750000Y-76611888D01*
X111750000Y-76611888D02*
X111140112Y-76002000D01*
X73000000Y-96750000D02*
X71750000Y-96750000D01*
%TO.N,LTDC_DE*%
X97490448Y-94000000D02*
X90500000Y-94000000D01*
X87500000Y-101000000D02*
X76002000Y-101000000D01*
X98388252Y-93102196D02*
X97490448Y-94000000D01*
X105825000Y-92750000D02*
X103250000Y-92750000D01*
X74752000Y-99750000D02*
X73000000Y-99750000D01*
X103250000Y-92750000D02*
X103000000Y-93000000D01*
X100081564Y-93102196D02*
X98388252Y-93102196D01*
X76002000Y-101000000D02*
X74752000Y-99750000D01*
%TO.N,SPI_CS*%
X105825000Y-79250000D02*
X107500000Y-79250000D01*
X109730000Y-56830000D02*
X109730000Y-58235000D01*
X108600000Y-55700000D02*
X109730000Y-56830000D01*
X105600000Y-55700000D02*
X108600000Y-55700000D01*
%TO.N,LTDC_G1*%
X72823182Y-77399000D02*
X101500000Y-77399000D01*
X73000000Y-89750000D02*
X71750000Y-89750000D01*
X70449000Y-86551000D02*
X70500000Y-86500000D01*
X104250000Y-81250000D02*
X102500000Y-79500000D01*
X72361091Y-77861091D02*
X72823182Y-77399000D01*
X71750000Y-89750000D02*
X70449000Y-88449000D01*
X70449000Y-88449000D02*
X70449000Y-86551000D01*
X105825000Y-81250000D02*
X104250000Y-81250000D01*
%TO.N,USART1_CK*%
X144000000Y-82359379D02*
X144000000Y-83000000D01*
X144852000Y-53500000D02*
X151130000Y-53500000D01*
X130250000Y-85750000D02*
X129750000Y-86250000D01*
X141220768Y-83500000D02*
X139271768Y-85449000D01*
X143500000Y-83500000D02*
X141220768Y-83500000D01*
X143350264Y-55001734D02*
X143350266Y-55001734D01*
X131175000Y-85750000D02*
X130250000Y-85750000D01*
X151130000Y-53500000D02*
X153750000Y-50880000D01*
X143350266Y-55001734D02*
X144852000Y-53500000D01*
X144000000Y-83000000D02*
X143500000Y-83500000D01*
%TO.N,USART1_RX*%
X146500000Y-90250000D02*
X146500000Y-91000000D01*
X144750000Y-92750000D02*
X143750000Y-92750000D01*
X144000000Y-55750000D02*
X151420000Y-55750000D01*
X143500000Y-56250000D02*
X144000000Y-55750000D01*
X136851000Y-94649000D02*
X133750000Y-97750000D01*
X133750000Y-97750000D02*
X131175000Y-97750000D01*
X141851000Y-94649000D02*
X136851000Y-94649000D01*
X143750000Y-92750000D02*
X141851000Y-94649000D01*
X151420000Y-55750000D02*
X153750000Y-53420000D01*
X146500000Y-91000000D02*
X144750000Y-92750000D01*
%TO.N,SPI_IRQ*%
X105750000Y-66000000D02*
X115750000Y-66000000D01*
X108313908Y-76138909D02*
X107111091Y-76138909D01*
X115750000Y-66000000D02*
X116500000Y-65250000D01*
X108750000Y-77325000D02*
X108750000Y-76575001D01*
X108750000Y-76575001D02*
X108313908Y-76138909D01*
%TO.N,LTDC_B3*%
X114500000Y-75101000D02*
X88176819Y-75101000D01*
X86009664Y-91551000D02*
X83051000Y-91551000D01*
X82550000Y-95000000D02*
X82300000Y-94750000D01*
X83051000Y-91551000D02*
X83000000Y-91500000D01*
X118750000Y-77325000D02*
X118750000Y-76027819D01*
X88176819Y-75101000D02*
X87763911Y-75513908D01*
X82300000Y-94750000D02*
X73000000Y-94750000D01*
X118750000Y-76027819D02*
X118236089Y-75513908D01*
X86030332Y-91530332D02*
X86009664Y-91551000D01*
%TO.N,LTDC_G0*%
X73051000Y-77949000D02*
X72000000Y-79000000D01*
X103500000Y-78500000D02*
X102949000Y-77949000D01*
X104149000Y-79820387D02*
X104149000Y-79149000D01*
X104149000Y-79149000D02*
X103500000Y-78500000D01*
X105825000Y-80750000D02*
X105078613Y-80750000D01*
X105078613Y-80750000D02*
X104149000Y-79820387D01*
X71000000Y-88050000D02*
X71000000Y-87500000D01*
X73000000Y-89250000D02*
X72200000Y-89250000D01*
X72200000Y-89250000D02*
X71000000Y-88050000D01*
X102949000Y-77949000D02*
X73051000Y-77949000D01*
%TO.N,LTDC_R6*%
X110582081Y-105582082D02*
X111592917Y-105582082D01*
X113750000Y-103424999D02*
X113750000Y-102675000D01*
X95000000Y-91000000D02*
X94000000Y-90000000D01*
X73000000Y-88250000D02*
X74189336Y-88250000D01*
X102053000Y-107553000D02*
X108611163Y-107553000D01*
X101500000Y-107000000D02*
X102053000Y-107553000D01*
X97500000Y-107000000D02*
X101500000Y-107000000D01*
X111592917Y-105582082D02*
X113750000Y-103424999D01*
X94000000Y-90000000D02*
X76000000Y-90000000D01*
X76000000Y-90000000D02*
X74500000Y-88500000D01*
X108611163Y-107553000D02*
X110582081Y-105582082D01*
X74189336Y-88250000D02*
X74469668Y-88530332D01*
%TO.N,Net-(D1-A)*%
X98751000Y-61449000D02*
X98700000Y-61500000D01*
X147750000Y-104000000D02*
X149250000Y-104000000D01*
D71*
X98200000Y-58700000D02*
X98700000Y-59200000D01*
X98700000Y-59200000D02*
X98700000Y-61500000D01*
D70*
%TO.N,LTDC_B1*%
X117942949Y-76000000D02*
X117500000Y-76000000D01*
X73000000Y-93750000D02*
X71750000Y-93750000D01*
X89798000Y-75452000D02*
X88750000Y-76500000D01*
X113500000Y-75651000D02*
X113301000Y-75452000D01*
X71750000Y-93750000D02*
X71500000Y-93500000D01*
X118250000Y-77325000D02*
X118250000Y-76307051D01*
X79719184Y-76500000D02*
X79284092Y-76064908D01*
X79284092Y-76064908D02*
X72435092Y-76064908D01*
X72435092Y-76064908D02*
X72000000Y-76500000D01*
X88750000Y-76500000D02*
X79719184Y-76500000D01*
X113301000Y-75452000D02*
X89798000Y-75452000D01*
X118250000Y-76307051D02*
X117942949Y-76000000D01*
%TO.N,Net-(J4-DAT1)*%
X154570768Y-79900000D02*
X156500000Y-79900000D01*
X152650000Y-83750000D02*
X156500000Y-79900000D01*
X151500000Y-83750000D02*
X152650000Y-83750000D01*
X156500000Y-79900000D02*
X162750000Y-79900000D01*
X153369768Y-81101000D02*
X154570768Y-79900000D01*
X148387500Y-80365000D02*
X149123500Y-81101000D01*
X149123500Y-81101000D02*
X153369768Y-81101000D01*
%TO.N,Net-(J4-CLK)*%
X159700000Y-75750000D02*
X160565000Y-76615000D01*
X149137500Y-72365000D02*
X148387500Y-72365000D01*
X149637500Y-72865000D02*
X149137500Y-72365000D01*
X162715000Y-76615000D02*
X162750000Y-76650000D01*
X153500000Y-75750000D02*
X159700000Y-75750000D01*
X160565000Y-76615000D02*
X162715000Y-76615000D01*
%TO.N,Net-(J4-CMD)*%
X162324500Y-58574500D02*
X164351000Y-60601000D01*
X159752500Y-75000000D02*
X160387500Y-74365000D01*
X164351000Y-60601000D02*
X164351000Y-73599000D01*
X164351000Y-73599000D02*
X163500000Y-74450000D01*
X160472500Y-74450000D02*
X160387500Y-74365000D01*
X150637500Y-73615000D02*
X150637500Y-72615000D01*
X162750000Y-74450000D02*
X160472500Y-74450000D01*
X162324500Y-58574500D02*
X162324500Y-59074500D01*
X151750000Y-75000000D02*
X159752500Y-75000000D01*
X150637500Y-72615000D02*
X148387500Y-70365000D01*
X163500000Y-74450000D02*
X162750000Y-74450000D01*
%TO.N,Net-(J4-DAT2)*%
X162500000Y-72250000D02*
X162750000Y-72250000D01*
X159250000Y-76365000D02*
X148387500Y-76365000D01*
X160750000Y-72250000D02*
X162750000Y-72250000D01*
X161151000Y-63716000D02*
X160300000Y-62865000D01*
X161151000Y-70901000D02*
X161151000Y-63716000D01*
X161750000Y-71500000D02*
X162500000Y-72250000D01*
X161750000Y-71500000D02*
X161500000Y-71250000D01*
X161500000Y-71250000D02*
X161151000Y-70901000D01*
%TO.N,Net-(J4-DAT3{slash}CD)*%
X160074500Y-58574500D02*
X159824500Y-58574500D01*
X163400000Y-73350000D02*
X164000000Y-72750000D01*
X162750000Y-73350000D02*
X163400000Y-73350000D01*
X160152500Y-73350000D02*
X159137500Y-74365000D01*
X148387500Y-74365000D02*
X159137500Y-74365000D01*
X164000000Y-62500000D02*
X160074500Y-58574500D01*
X162936856Y-73163144D02*
X162750000Y-73350000D01*
X162750000Y-73350000D02*
X160152500Y-73350000D01*
X164000000Y-72750000D02*
X164000000Y-62500000D01*
%TO.N,Net-(J4-DAT0)*%
X160250000Y-67250000D02*
X160300000Y-67200000D01*
X160300000Y-67200000D02*
X160300000Y-65115000D01*
X148387500Y-78637500D02*
X150500000Y-80750000D01*
X162750000Y-78850000D02*
X161100000Y-78850000D01*
X162000000Y-78850000D02*
X162750000Y-78850000D01*
X154974380Y-79000000D02*
X161850000Y-79000000D01*
X153224380Y-80750000D02*
X154974380Y-79000000D01*
X150500000Y-80750000D02*
X153224380Y-80750000D01*
X161850000Y-79000000D02*
X162000000Y-78850000D01*
X161100000Y-78850000D02*
X160750000Y-78500000D01*
X148387500Y-78365000D02*
X148387500Y-78637500D01*
%TO.N,Net-(J17-D+-PadA6)*%
X157400000Y-88800000D02*
X158250000Y-87950000D01*
X155300000Y-87750000D02*
X145087500Y-87750000D01*
X156350000Y-88800000D02*
X155300000Y-87750000D01*
X156350000Y-88800000D02*
X156900000Y-88800000D01*
X156900000Y-88800000D02*
X157400000Y-88800000D01*
%TO.N,Net-(J17-CC1)*%
X156900000Y-89650000D02*
X156300000Y-90250000D01*
X147750000Y-96571768D02*
X148571768Y-95750000D01*
X154000000Y-90250000D02*
X152250000Y-90250000D01*
X147750000Y-97000000D02*
X147750000Y-96571768D01*
X152250000Y-90250000D02*
X149750000Y-92750000D01*
X156300000Y-90250000D02*
X154000000Y-90250000D01*
D73*
%TO.N,+24V*%
X99800000Y-48200000D02*
X101500000Y-46500000D01*
X102225000Y-48200000D02*
X103050000Y-48200000D01*
X104975000Y-42025000D02*
X105000000Y-42000000D01*
X103050000Y-48200000D02*
X104000000Y-47250000D01*
X99215000Y-48200000D02*
X99800000Y-48200000D01*
X132750000Y-135250000D02*
X131237500Y-135250000D01*
X102950000Y-42025000D02*
X104975000Y-42025000D01*
X131237500Y-135250000D02*
X131000000Y-135487500D01*
%TO.N,VIN*%
X85887500Y-40862500D02*
X86000000Y-40750000D01*
X93975000Y-42275000D02*
X94250000Y-42000000D01*
X93760000Y-39600000D02*
X95100000Y-39600000D01*
X95275000Y-42025000D02*
X95250000Y-42000000D01*
X87740000Y-40740000D02*
X87750000Y-40750000D01*
X97500000Y-42025000D02*
X95275000Y-42025000D01*
X87740000Y-39600000D02*
X87740000Y-40740000D01*
X85887500Y-41825000D02*
X85887500Y-40862500D01*
X93000000Y-42275000D02*
X93975000Y-42275000D01*
X95100000Y-39600000D02*
X95250000Y-39750000D01*
X90750000Y-39600000D02*
X90750000Y-40750000D01*
X89500000Y-42200000D02*
X89500000Y-41000000D01*
D71*
%TO.N,Net-(U8-SW)*%
X87750000Y-45750000D02*
X90025000Y-48025000D01*
X90025000Y-48025000D02*
X92000000Y-48025000D01*
X85887500Y-42775000D02*
X87025000Y-42775000D01*
X87025000Y-42775000D02*
X87750000Y-43500000D01*
X86250000Y-46500000D02*
X87775000Y-48025000D01*
X85750000Y-46500000D02*
X86250000Y-46500000D01*
X87775000Y-48025000D02*
X92000000Y-48025000D01*
X87750000Y-43500000D02*
X87750000Y-45750000D01*
%TO.N,Net-(U8-CB)*%
X83675000Y-46500000D02*
X83675000Y-43787500D01*
X83675000Y-43787500D02*
X83612500Y-43725000D01*
%TO.N,Net-(U8-FB)*%
X78750000Y-41250000D02*
X79325000Y-41825000D01*
X81250000Y-44250000D02*
X78500000Y-44250000D01*
X78750000Y-40250000D02*
X78750000Y-41250000D01*
X83612500Y-41825000D02*
X79675000Y-41825000D01*
X79675000Y-41825000D02*
X78500000Y-43000000D01*
X79325000Y-41825000D02*
X79675000Y-41825000D01*
X78500000Y-43000000D02*
X78500000Y-44250000D01*
%TO.N,Net-(C40-Pad1)*%
X81175000Y-46250000D02*
X81250000Y-46325000D01*
X81325000Y-46325000D02*
X83750000Y-48750000D01*
X81250000Y-46325000D02*
X81325000Y-46325000D01*
X78500000Y-46250000D02*
X81175000Y-46250000D01*
D72*
%TO.N,BMS_OK*%
X151750000Y-106000000D02*
X151750000Y-105250000D01*
X140250000Y-55250000D02*
X140250000Y-46350000D01*
X153500000Y-107750000D02*
X151750000Y-106000000D01*
X154212500Y-111437500D02*
X154212500Y-108462500D01*
X154287500Y-111512500D02*
X154212500Y-111437500D01*
X157000000Y-111512500D02*
X161075000Y-111512500D01*
X145601000Y-63899000D02*
X145601000Y-60601000D01*
X154212500Y-108462500D02*
X153500000Y-107750000D01*
X157000000Y-111512500D02*
X154287500Y-111512500D01*
X145000000Y-64500000D02*
X145601000Y-63899000D01*
X145601000Y-60601000D02*
X140250000Y-55250000D01*
X161075000Y-111512500D02*
X161250000Y-111687500D01*
%TO.N,IMD_OK*%
X145500000Y-109750000D02*
X141000000Y-109750000D01*
X144250000Y-62650057D02*
X142175943Y-60576000D01*
X144250000Y-65200000D02*
X144250000Y-62650057D01*
X151000000Y-104250000D02*
X147000000Y-108250000D01*
X140712500Y-111712500D02*
X143212500Y-111712500D01*
X140712500Y-110037500D02*
X141000000Y-109750000D01*
X140712500Y-111712500D02*
X140712500Y-110037500D01*
X142175943Y-60576000D02*
X140076000Y-60576000D01*
X140076000Y-60576000D02*
X139750000Y-60250000D01*
X137875000Y-59875000D02*
X138250000Y-60250000D01*
X147000000Y-108250000D02*
X145500000Y-109750000D01*
X138250000Y-60250000D02*
X139750000Y-60250000D01*
X147000000Y-111737500D02*
X147000000Y-108250000D01*
X143212500Y-111712500D02*
X143250000Y-111750000D01*
D70*
%TO.N,RTDS*%
X140000000Y-70250000D02*
X141000000Y-71250000D01*
D72*
X136750000Y-133300000D02*
X136500000Y-133050000D01*
D70*
X126250000Y-57000000D02*
X129250000Y-60000000D01*
X126250000Y-42350000D02*
X126250000Y-57000000D01*
D72*
X137537500Y-130712500D02*
X138000000Y-130250000D01*
X136500000Y-130712500D02*
X137537500Y-130712500D01*
X136750000Y-133787500D02*
X136750000Y-133300000D01*
D70*
X129250000Y-63500000D02*
X136000000Y-70250000D01*
D72*
X136750000Y-137287500D02*
X136750000Y-133787500D01*
D70*
X129250000Y-60000000D02*
X129250000Y-63500000D01*
D72*
X136500000Y-133050000D02*
X136500000Y-130712500D01*
D70*
X136000000Y-70250000D02*
X140000000Y-70250000D01*
D72*
%TO.N,TS_OFF*%
X154962500Y-132250000D02*
X154962500Y-128287500D01*
X144700735Y-60950735D02*
X139000000Y-55250000D01*
X154962500Y-128287500D02*
X155000000Y-128250000D01*
X153000000Y-134212500D02*
X154962500Y-132250000D01*
X139000000Y-55250000D02*
X135750000Y-55250000D01*
X153000000Y-136250000D02*
X153000000Y-134212500D01*
X132250000Y-51750000D02*
X132250000Y-46350000D01*
X156000000Y-128250000D02*
X156500000Y-127750000D01*
X135750000Y-55250000D02*
X132250000Y-51750000D01*
X144850000Y-60950735D02*
X144700735Y-60950735D01*
X155000000Y-128250000D02*
X156000000Y-128250000D01*
%TO.N,RST_PILOTO*%
X143125000Y-60125000D02*
X141875000Y-60125000D01*
D70*
X126000000Y-58250000D02*
X124750000Y-57000000D01*
X128250000Y-54250000D02*
X128250000Y-56000000D01*
D72*
X138000000Y-56250000D02*
X130250000Y-56250000D01*
X128250000Y-54250000D02*
X128250000Y-46350000D01*
D70*
X128250000Y-56000000D02*
X127500000Y-56750000D01*
D72*
X141875000Y-60125000D02*
X138000000Y-56250000D01*
X145000000Y-62000000D02*
X143125000Y-60125000D01*
X130250000Y-56250000D02*
X128250000Y-54250000D01*
D70*
X126500000Y-58250000D02*
X126000000Y-58250000D01*
D72*
%TO.N,START*%
X100250000Y-134500000D02*
X107250000Y-127500000D01*
X147549000Y-123799000D02*
X147776000Y-123799000D01*
D70*
X138350000Y-40250000D02*
X140250000Y-38350000D01*
D72*
X107250000Y-127500000D02*
X128000000Y-127500000D01*
D70*
X120500000Y-49500000D02*
X120500000Y-44250000D01*
D72*
X83160000Y-134500000D02*
X100250000Y-134500000D01*
X128000000Y-127500000D02*
X130000000Y-125500000D01*
X130000000Y-125500000D02*
X130612190Y-125500000D01*
D70*
X120250000Y-51000000D02*
X120250000Y-49750000D01*
X124500000Y-40250000D02*
X138350000Y-40250000D01*
D72*
X149549265Y-119375735D02*
X149549265Y-106549265D01*
D70*
X120500000Y-44250000D02*
X124500000Y-40250000D01*
D72*
X130612190Y-125500000D02*
X132313190Y-123799000D01*
D70*
X120250000Y-49750000D02*
X120500000Y-49500000D01*
D72*
X81660000Y-133000000D02*
X83160000Y-134500000D01*
X147776000Y-123799000D02*
X149250000Y-122325000D01*
X149250000Y-122325000D02*
X149250000Y-119675000D01*
X149250000Y-119675000D02*
X149549265Y-119375735D01*
X132313190Y-123799000D02*
X147549000Y-123799000D01*
%TO.N,N_RTDS*%
X132750000Y-130725000D02*
X132750000Y-131687500D01*
X132750000Y-131687500D02*
X131000000Y-133437500D01*
X126500000Y-134000000D02*
X126625000Y-133875000D01*
X128000000Y-133875000D02*
X128437500Y-133437500D01*
X126625000Y-133875000D02*
X128000000Y-133875000D01*
X128437500Y-133437500D02*
X131000000Y-133437500D01*
%TO.N,BMS_LED-*%
X116160000Y-132930000D02*
X117590000Y-131500000D01*
X146675000Y-126175000D02*
X158250000Y-126175000D01*
X117590000Y-131500000D02*
X124750000Y-131500000D01*
X144750000Y-124250000D02*
X146675000Y-126175000D01*
X124750000Y-131500000D02*
X130174265Y-126075735D01*
X130674265Y-126075735D02*
X132500000Y-124250000D01*
X132500000Y-124250000D02*
X144750000Y-124250000D01*
X130174265Y-126075735D02*
X130674265Y-126075735D01*
%TO.N,IMD_LED-*%
X142825000Y-124750000D02*
X143500000Y-125425000D01*
X122750000Y-134500000D02*
X114730000Y-134500000D01*
X129500000Y-127750000D02*
X122750000Y-134500000D01*
X132750000Y-124750000D02*
X142825000Y-124750000D01*
X130250000Y-127000000D02*
X130500000Y-127000000D01*
X114730000Y-134500000D02*
X113160000Y-132930000D01*
X130500000Y-127000000D02*
X132750000Y-124750000D01*
X129500000Y-127750000D02*
X130250000Y-127000000D01*
%TO.N,TS_OFF_LED-*%
X111500000Y-135000000D02*
X110160000Y-133660000D01*
X129500000Y-128750000D02*
X133000000Y-125250000D01*
X123250000Y-135000000D02*
X111500000Y-135000000D01*
X140750000Y-125250000D02*
X145050000Y-129550000D01*
X145050000Y-129550000D02*
X146912500Y-129550000D01*
X133000000Y-125250000D02*
X140750000Y-125250000D01*
X129500000Y-128750000D02*
X123250000Y-135000000D01*
X110160000Y-133660000D02*
X110160000Y-132930000D01*
%TO.N,Net-(Q1-D)*%
X156500000Y-118500000D02*
X156500000Y-120575000D01*
X156500000Y-120575000D02*
X155700000Y-121375000D01*
X154187500Y-116187500D02*
X156500000Y-118500000D01*
%TO.N,Net-(Q1-G)*%
X152312500Y-115237500D02*
X151287500Y-114212500D01*
X151287500Y-114212500D02*
X151287500Y-111437500D01*
%TO.N,Net-(Q2-D)*%
X154750000Y-123250000D02*
X158250000Y-123250000D01*
%TO.N,Net-(Q3-D)*%
X141150000Y-119350000D02*
X141150000Y-120500000D01*
X142537500Y-117962500D02*
X141150000Y-119350000D01*
X140375000Y-115737500D02*
X140525000Y-115737500D01*
X142537500Y-117750000D02*
X142537500Y-117962500D01*
X140525000Y-115737500D02*
X142537500Y-117750000D01*
%TO.N,Net-(Q3-G)*%
X137787500Y-114075000D02*
X137787500Y-111712500D01*
X138500000Y-114787500D02*
X137787500Y-114075000D01*
%TO.N,Net-(Q4-D)*%
X143375000Y-122375000D02*
X143500000Y-122500000D01*
X140200000Y-122375000D02*
X143375000Y-122375000D01*
%TO.N,Net-(Q6-G)*%
X136500000Y-127787500D02*
X134762500Y-127787500D01*
X134762500Y-127787500D02*
X133700000Y-128850000D01*
%TO.N,Net-(Q7-G)*%
X148787500Y-130500000D02*
X150287500Y-130500000D01*
X150287500Y-130500000D02*
X152037500Y-132250000D01*
D71*
%TO.N,Net-(U8-EN)*%
X91000000Y-44250000D02*
X92975000Y-44250000D01*
X82225000Y-42775000D02*
X82000000Y-43000000D01*
X83612500Y-42775000D02*
X82225000Y-42775000D01*
X92975000Y-44250000D02*
X93000000Y-44275000D01*
D70*
%TO.N,RST_PILOTO_OB*%
X122750000Y-59250000D02*
X122750000Y-57000000D01*
X122250000Y-77325000D02*
X122250000Y-76050000D01*
X120750000Y-57000000D02*
X122750000Y-57000000D01*
X122250000Y-76050000D02*
X122800000Y-75500000D01*
%TO.N,START_OB*%
X116100000Y-51000000D02*
X118250000Y-51000000D01*
X119500000Y-52750000D02*
X118250000Y-51500000D01*
X123750000Y-75329232D02*
X123750000Y-75000000D01*
X118250000Y-51500000D02*
X118250000Y-51000000D01*
X122750000Y-77325000D02*
X122750000Y-76329232D01*
X122750000Y-76329232D02*
X123750000Y-75329232D01*
%TD*%
M02*
